<svg width="18" height="18" viewBox="0 0 18 18" fill="none" xmlns="http://www.w3.org/2000/svg">
<path d="M4.10568 5.32787C4.10568 4.09625 5.08642 3.11353 6.27695 3.11353C6.93023 3.11353 7.51781 3.40746 7.9178 3.87767C8.07268 4.05973 8.34668 4.08249 8.5298 3.9285C8.71291 3.7745 8.7358 3.50207 8.58092 3.32001C8.02535 2.66692 7.20004 2.25 6.27695 2.25C4.58949 2.25 3.23717 3.63669 3.23717 5.32787C3.23717 5.94147 3.41487 6.51432 3.72151 6.9953C2.3869 7.83704 1.5 9.31954 1.5 11.0087V12.1806C1.5 13.3729 2.47211 14.3394 3.67127 14.3394H4.10552C4.10552 15.5317 5.07763 16.4983 6.27679 16.4983V16.5H11.4878C12.687 16.5 13.6591 15.5335 13.6591 14.3412V14.3394H14.3287C15.5279 14.3394 16.5 13.3729 16.5 12.1806V11.0087C16.5 9.31954 15.6131 7.83704 14.2785 6.9953C14.5851 6.51432 14.7628 5.94147 14.7628 5.32787C14.7628 3.63669 13.4105 2.25 11.7231 2.25C10.8 2.25 9.97465 2.66692 9.41908 3.32001C9.2642 3.50207 9.28709 3.7745 9.4702 3.9285C9.65332 4.08249 9.92732 4.05973 10.0822 3.87767C10.4822 3.40746 11.0698 3.11353 11.7231 3.11353C12.9136 3.11353 13.8943 4.09625 13.8943 5.32787C13.8943 5.91321 13.6722 6.44346 13.3105 6.83859C13.2185 6.93903 13.1795 7.07665 13.2051 7.21007C13.2306 7.34349 13.3179 7.45717 13.4405 7.51694C14.739 8.14958 15.6315 9.4759 15.6315 11.0087V12.1806C15.6315 12.896 15.0482 13.4759 14.3287 13.4759H13.6591V13.1692C13.6591 12.5914 13.5553 12.0377 13.3653 11.5256L13.3662 11.5253C13.3505 11.484 13.3343 11.4429 13.3175 11.4021C12.9425 10.4725 12.2804 9.68836 11.4408 9.1579L11.437 9.15549C11.7442 8.67423 11.9223 8.10088 11.9223 7.4867C11.9223 5.79551 10.5699 4.40883 8.88247 4.40883C7.19502 4.40883 5.84269 5.79551 5.84269 7.4867C5.84269 8.1003 6.02039 8.67315 6.32703 9.15412C4.99242 9.99587 4.10552 11.4784 4.10552 13.1675V13.4759H3.67127C2.95177 13.4759 2.36851 12.896 2.36851 12.1806V11.0087C2.36851 9.4759 3.26101 8.14958 4.55946 7.51694C4.68213 7.45717 4.76936 7.34349 4.79494 7.21007C4.82052 7.07665 4.78146 6.93903 4.6895 6.83859C4.32776 6.44346 4.10568 5.91321 4.10568 5.32787ZM10.6004 9.67611C10.4777 9.61633 10.39 9.5024 10.3644 9.36898C10.3388 9.23555 10.3779 9.09794 10.4698 8.9975C10.8316 8.60236 11.0537 8.07208 11.0537 7.4867C11.0537 6.25507 10.073 5.27236 8.88247 5.27236C7.69195 5.27236 6.7112 6.25507 6.7112 7.4867C6.7112 8.07203 6.93328 8.60228 7.29503 8.99741C7.38698 9.09786 7.42604 9.23547 7.40046 9.3689C7.37489 9.50232 7.28765 9.616 7.16498 9.67577C5.86653 10.3084 4.97403 11.6347 4.97403 13.1675V14.3394C4.97403 15.0548 5.5573 15.6347 6.27679 15.6347H11.4878V15.6365C12.2073 15.6365 12.7906 15.0565 12.7906 14.3412V13.1692C12.7906 12.6523 12.6891 12.1589 12.5047 11.7076C12.1838 10.9406 11.6261 10.3018 10.9688 9.88275C10.8499 9.808 10.7267 9.73943 10.5997 9.67751L10.6004 9.67611Z" fill="#C42F2F"/>
<path d="M4.10568 5.32787C4.10568 4.09625 5.08642 3.11353 6.27695 3.11353C6.93023 3.11353 7.51781 3.40746 7.9178 3.87767C8.07268 4.05973 8.34668 4.08249 8.5298 3.9285C8.71291 3.7745 8.7358 3.50207 8.58092 3.32001C8.02535 2.66692 7.20004 2.25 6.27695 2.25C4.58949 2.25 3.23717 3.63669 3.23717 5.32787C3.23717 5.94147 3.41487 6.51432 3.72151 6.9953C2.3869 7.83704 1.5 9.31954 1.5 11.0087V12.1806C1.5 13.3729 2.47211 14.3394 3.67127 14.3394H4.10552C4.10552 15.5317 5.07763 16.4983 6.27679 16.4983V16.5H11.4878C12.687 16.5 13.6591 15.5335 13.6591 14.3412V14.3394H14.3287C15.5279 14.3394 16.5 13.3729 16.5 12.1806V11.0087C16.5 9.31954 15.6131 7.83704 14.2785 6.9953C14.5851 6.51432 14.7628 5.94147 14.7628 5.32787C14.7628 3.63669 13.4105 2.25 11.7231 2.25C10.8 2.25 9.97465 2.66692 9.41908 3.32001C9.2642 3.50207 9.28709 3.7745 9.4702 3.9285C9.65332 4.08249 9.92732 4.05973 10.0822 3.87767C10.4822 3.40746 11.0698 3.11353 11.7231 3.11353C12.9136 3.11353 13.8943 4.09625 13.8943 5.32787C13.8943 5.91321 13.6722 6.44346 13.3105 6.83859C13.2185 6.93903 13.1795 7.07665 13.2051 7.21007C13.2306 7.34349 13.3179 7.45717 13.4405 7.51694C14.739 8.14958 15.6315 9.4759 15.6315 11.0087V12.1806C15.6315 12.896 15.0482 13.4759 14.3287 13.4759H13.6591V13.1692C13.6591 12.5914 13.5553 12.0377 13.3653 11.5256L13.3662 11.5253C13.3505 11.484 13.3343 11.4429 13.3175 11.4021C12.9425 10.4725 12.2804 9.68836 11.4408 9.1579L11.437 9.15549C11.7442 8.67423 11.9223 8.10088 11.9223 7.4867C11.9223 5.79551 10.5699 4.40883 8.88247 4.40883C7.19502 4.40883 5.84269 5.79551 5.84269 7.4867C5.84269 8.1003 6.02039 8.67315 6.32703 9.15412C4.99242 9.99587 4.10552 11.4784 4.10552 13.1675V13.4759H3.67127C2.95177 13.4759 2.36851 12.896 2.36851 12.1806V11.0087C2.36851 9.4759 3.26101 8.14958 4.55946 7.51694C4.68213 7.45717 4.76936 7.34349 4.79494 7.21007C4.82052 7.07665 4.78146 6.93903 4.6895 6.83859C4.32776 6.44346 4.10568 5.91321 4.10568 5.32787ZM10.6004 9.67611C10.4777 9.61633 10.39 9.5024 10.3644 9.36898C10.3388 9.23555 10.3779 9.09794 10.4698 8.9975C10.8316 8.60236 11.0537 8.07208 11.0537 7.4867C11.0537 6.25507 10.073 5.27236 8.88247 5.27236C7.69195 5.27236 6.7112 6.25507 6.7112 7.4867C6.7112 8.07203 6.93328 8.60228 7.29503 8.99741C7.38698 9.09786 7.42604 9.23547 7.40046 9.3689C7.37489 9.50232 7.28765 9.616 7.16498 9.67577C5.86653 10.3084 4.97403 11.6347 4.97403 13.1675V14.3394C4.97403 15.0548 5.5573 15.6347 6.27679 15.6347H11.4878V15.6365C12.2073 15.6365 12.7906 15.0565 12.7906 14.3412V13.1692C12.7906 12.6523 12.6891 12.1589 12.5047 11.7076C12.1838 10.9406 11.6261 10.3018 10.9688 9.88275C10.8499 9.808 10.7267 9.73943 10.5997 9.67751L10.6004 9.67611Z" stroke="#C42F2F"/>
<path d="M11.25 7.125L10.875 9L11.25 9.75L12 10.5L12.75 12L13.125 13.5V14.625L12.375 15.75H11.625H9.75H7.125H5.625L5.25 15V14.625L4.875 13.125V12L6.375 10.125L7.125 9.375L6.75 8.625V7.125L7.125 5.625L8.625 5.25L10.125 5.625L11.25 7.125Z" fill="#C42F2F" stroke="#C42F2F"/>
</svg>
