<svg width="18" height="18" viewBox="0 0 18 18" fill="none" xmlns="http://www.w3.org/2000/svg">
<path d="M6.78147 12.3662C7.46539 14.3371 9.31969 15.75 11.4999 15.75C12.4838 15.75 13.4013 15.4622 14.1747 14.9652L15.2348 15.323C15.6419 15.4604 15.8457 15.5292 15.9811 15.4803C16.0989 15.4378 16.1914 15.3439 16.2334 15.2246C16.2817 15.0875 16.214 14.8814 16.0783 14.4692L15.725 13.3959L15.8433 13.1971C16.2612 12.4574 16.5 11.6007 16.5 10.6875C16.5 7.89155 14.2612 5.62499 11.4998 5.62499L11.3126 5.62849L11.2182 5.63356M6.49995 12.375C5.51604 12.375 4.59852 12.0873 3.82498 11.5904L2.76503 11.9481C2.35791 12.0855 2.15415 12.1542 2.01879 12.1053C1.90099 12.0628 1.80817 11.9689 1.76616 11.8496C1.71789 11.7125 1.78584 11.5064 1.92154 11.0942L2.27489 10.0209C1.78411 9.23767 1.5 8.30871 1.5 7.31249C1.5 4.51655 3.73853 2.25 6.4999 2.25C9.26126 2.25 11.4998 4.51655 11.4998 7.31249C11.4998 10.1084 9.26131 12.375 6.49995 12.375Z" stroke="#444444" stroke-linecap="round" stroke-linejoin="round"/>
</svg>
