<svg width="50" height="50" viewBox="0 0 50 50" fill="none" xmlns="http://www.w3.org/2000/svg">
<path fill-rule="evenodd" clip-rule="evenodd" d="M32.2917 31.3826C36.6505 28.8611 39.5833 24.1479 39.5833 18.75H39.5809C39.5809 10.6961 33.052 4.16669 24.9988 4.16669C16.9456 4.16669 10.4167 10.6938 10.4167 18.75C10.4167 24.1488 13.3497 28.8608 17.7083 31.3821V34.3751H32.2917V31.3826Z" fill="url(#paint0_linear_1796_5905)"/>
<path d="M30.2086 43.7499C30.2086 46.0514 27.8799 47.9166 25.0003 47.9166C22.1207 47.9166 19.792 46.0514 19.792 43.7499" fill="#313647"/>
<path d="M17.7083 34.3751H32.2916V42.9501C32.2916 43.3919 31.9335 43.7501 31.4916 43.7501H18.5083C18.0665 43.7501 17.7083 43.3919 17.7083 42.9501V34.3751Z" fill="#646A82"/>
<path d="M32.2916 37.5001H17.7083V40.6251H32.2916V37.5001Z" fill="#313647"/>
<path d="M27.4526 20.0958C25.7971 21.4621 25.2112 23.7885 25.0097 25.0139H24.9849C24.7834 23.7852 24.1974 21.4621 22.545 20.0958C20.2199 18.1758 16.6671 18.8737 16.6671 18.8737C16.6671 18.8737 16.8841 22.6876 19.2092 24.6076C21.0445 26.1247 23.6425 26.01 24.6594 25.892V34.375H25.3445V25.892C26.3614 26.0067 28.9593 26.1247 30.7947 24.6076C33.1167 22.6876 33.3337 18.8737 33.3337 18.8737C33.3337 18.8737 29.7809 18.1758 27.4557 20.0958H27.4526Z" fill="white"/>
<path d="M44.7917 3.125H42.7083V1.04167C42.7083 0.467262 42.2411 0 41.6667 0C41.0923 0 40.625 0.467262 40.625 1.04167V3.125H38.5417C37.9673 3.125 37.5 3.59226 37.5 4.16667C37.5 4.74107 37.9673 5.20833 38.5417 5.20833H40.625V7.29167C40.625 7.86607 41.0923 8.33333 41.6667 8.33333C42.2411 8.33333 42.7083 7.86607 42.7083 7.29167V5.20833H44.7917C45.3661 5.20833 45.8333 4.74107 45.8333 4.16667C45.8333 3.59226 45.3661 3.125 44.7917 3.125Z" fill="url(#paint1_linear_1796_5905)"/>
<path d="M49.2188 14.8438H47.6562V13.2812C47.6562 12.8504 47.3058 12.5 46.875 12.5C46.4442 12.5 46.0938 12.8504 46.0938 13.2812V14.8438H44.5312C44.1004 14.8438 43.75 15.1942 43.75 15.625C43.75 16.0558 44.1004 16.4062 44.5312 16.4062H46.0938V17.9688C46.0938 18.3996 46.4442 18.75 46.875 18.75C47.3058 18.75 47.6562 18.3996 47.6562 17.9688V16.4062H49.2188C49.6496 16.4062 50 16.0558 50 15.625C50 15.1942 49.6496 14.8438 49.2188 14.8438Z" fill="#DD3636"/>
<defs>
<linearGradient id="paint0_linear_1796_5905" x1="18.5125" y1="10.6391" x2="30.5563" y2="29.8559" gradientUnits="userSpaceOnUse">
<stop stop-color="#DD3636"/>
<stop offset="1" stop-color="#FF7575"/>
</linearGradient>
<linearGradient id="paint1_linear_1796_5905" x1="39.8131" y1="1.78548" x2="43.0835" y2="7.18997" gradientUnits="userSpaceOnUse">
<stop stop-color="#DD3636"/>
<stop offset="1" stop-color="#FF7575"/>
</linearGradient>
</defs>
</svg>
