<?xml version="1.0" encoding="utf-8"?>
<!-- Generator: Adobe Illustrator 28.2.0, SVG Export Plug-In . SVG Version: 6.00 Build 0)  -->
<svg version="1.1" id="Layer_1" xmlns="http://www.w3.org/2000/svg" xmlns:xlink="http://www.w3.org/1999/xlink" x="0px" y="0px"
	 viewBox="0 0 18 18" style="enable-background:new 0 0 18 18;" xml:space="preserve">
<style type="text/css">
	.st0{fill:none;stroke:#FFFFFF;stroke-linecap:round;stroke-linejoin:round;}
</style>
<path class="st0" d="M6.8,12.4c0.7,2,2.5,3.4,4.7,3.4c1,0,1.9-0.3,2.7-0.8l1.1,0.4c0.4,0.1,0.6,0.2,0.7,0.2c0.1,0,0.2-0.1,0.3-0.3
	c0-0.1,0-0.3-0.2-0.8l-0.4-1.1l0.1-0.2c0.4-0.7,0.7-1.6,0.7-2.5c0-2.8-2.2-5.1-5-5.1l-0.2,0l-0.1,0 M6.5,12.4c-1,0-1.9-0.3-2.7-0.8
	l-1.1,0.4c-0.4,0.1-0.6,0.2-0.7,0.2c-0.1,0-0.2-0.1-0.3-0.3c0-0.1,0-0.3,0.2-0.8L2.3,10C1.8,9.2,1.5,8.3,1.5,7.3
	c0-2.8,2.2-5.1,5-5.1c2.8,0,5,2.3,5,5.1C11.5,10.1,9.3,12.4,6.5,12.4z"/>
</svg>
