<svg width="40" height="40" viewBox="0 0 40 40" fill="none" xmlns="http://www.w3.org/2000/svg">
<path d="M26.5411 21.5631C26.5411 21.2173 26.2624 20.9375 25.9179 20.9375H22.1207C21.7762 20.9375 21.4975 21.2173 21.4975 21.5631V22.3429C21.4975 23.0401 21.7799 23.6731 22.2364 24.1314C22.6938 24.5915 23.3244 24.8759 24.0197 24.8759C24.7151 24.8759 25.3475 24.5924 25.804 24.1341C26.2605 23.6759 26.5429 23.0429 26.5429 22.3429V21.5631H26.5411Z" fill="#D4DBDF"/>
<path d="M26.5411 21.5631C26.5411 21.2173 26.2624 20.9375 25.9179 20.9375H22.1207C21.7762 20.9375 21.4975 21.2173 21.4975 21.5631V22.3429C21.4975 22.6088 21.5382 22.8653 21.6151 23.1061C21.7179 23.12 21.8225 23.1275 21.9271 23.1275H22.8623V23.1247H25.179V23.1275H26.1142C26.2198 23.1275 26.3235 23.12 26.4253 23.1052C26.5013 22.8644 26.542 22.6088 26.542 22.3429V21.5631H26.5411Z" fill="#C9CFD3"/>
<path d="M20.6032 19.6025V20.8601C20.6032 21.2013 20.7328 21.5127 20.9458 21.7497C20.9596 21.7664 20.9745 21.7832 20.9902 21.799H20.9911C21.2319 22.0397 21.5615 22.1875 21.9245 22.1875V22.1847H26.1116V22.1875C26.4514 22.1875 26.7616 22.0574 26.9977 21.8436C27.0143 21.8296 27.031 21.8148 27.0467 21.799H27.0458L27.0467 21.7971C27.2866 21.5554 27.4338 21.2245 27.4338 20.8601V19.6016H20.6022L20.6032 19.6025Z" fill="#D4DBDF"/>
<path d="M23.3948 4.66235C23.3948 5.00813 23.6735 5.28792 24.0179 5.28792C24.3624 5.28792 24.6411 5.0072 24.6411 4.66235V3.82577C24.6411 3.47999 24.3615 3.2002 24.0179 3.2002C23.6744 3.2002 23.3948 3.47999 23.3948 3.82577V4.66235Z" fill="#FFAE06"/>
<path d="M29.0384 6.49079C28.7948 6.73526 28.7948 7.13124 29.0384 7.3757C29.2819 7.62017 29.6763 7.62017 29.9198 7.3757L30.5097 6.78359C30.7532 6.53912 30.7532 6.14315 30.5097 5.89868C30.2661 5.65422 29.8717 5.65422 29.6282 5.89868L29.0384 6.49079Z" fill="#FFAE06"/>
<path d="M31.7412 11.7891C31.3967 11.7891 31.118 12.0698 31.118 12.4146C31.118 12.7595 31.3967 13.0402 31.7412 13.0402H32.5745C32.919 13.0402 33.1977 12.7595 33.1977 12.4146C33.1977 12.0698 32.919 11.7891 32.5745 11.7891H31.7412Z" fill="#FFAE06"/>
<path d="M18.117 7.37273C18.3587 7.6172 18.7531 7.61813 18.9966 7.37552C19.2401 7.13292 19.2411 6.73694 18.9994 6.49247L18.4105 5.90036C18.1688 5.65589 17.7744 5.65496 17.5309 5.89757C17.2874 6.14018 17.2864 6.53616 17.5281 6.78062L18.117 7.37273Z" fill="#FFAE06"/>
<path d="M16.2955 13.0402C16.64 13.0402 16.9187 12.7595 16.9187 12.4146C16.9187 12.0698 16.64 11.7891 16.2955 11.7891H15.464C15.1196 11.7891 14.8409 12.0698 14.8409 12.4146C14.8409 12.7595 15.1196 13.0402 15.464 13.0402H16.2955Z" fill="#FFAE06"/>
<path d="M18.9984 18.3388C19.2419 18.0943 19.2419 17.6983 18.9984 17.4539C18.7549 17.2094 18.3605 17.2094 18.1169 17.4539L17.528 18.045C17.2845 18.2895 17.2845 18.6855 17.528 18.9299C17.7716 19.1744 18.166 19.1744 18.4095 18.9299L18.9984 18.3388Z" fill="#FFAE06"/>
<path d="M27.4365 18.9732V17.9024C27.4365 17.815 27.4476 17.7332 27.468 17.6579C27.4874 17.5891 27.5161 17.5203 27.5541 17.4534C27.5652 17.4367 27.5754 17.419 27.5846 17.4014C27.6078 17.367 27.6346 17.3335 27.6624 17.301C27.693 17.2666 27.7254 17.2341 27.7596 17.2052C27.7671 17.1997 27.7745 17.1941 27.7828 17.1876H27.7819L27.7828 17.1857H27.7819C28.5013 16.6141 29.0874 15.8816 29.4893 15.0432C29.8754 14.2354 30.0902 13.3291 30.0847 12.3735C30.0736 10.7143 29.3948 9.20757 28.3069 8.11537C27.2309 7.03433 25.7541 6.35484 24.1253 6.32696C24.105 6.3251 24.0846 6.32417 24.0642 6.32324L24.0615 6.32603H24.0226V6.32324C22.3559 6.32324 20.8448 6.99901 19.7466 8.09399C18.6642 9.17318 17.9845 10.6614 17.9577 12.3103C17.9558 12.3308 17.9549 12.3512 17.954 12.3717L17.9568 12.3745V12.4135H17.954C17.954 13.3635 18.1725 14.2651 18.5614 15.0701C18.9605 15.8955 19.5392 16.615 20.2447 17.1792C20.2531 17.1866 20.2623 17.1941 20.2716 17.2015L20.2734 17.1997C20.3142 17.2313 20.3512 17.2666 20.3846 17.3047C20.4096 17.3335 20.4327 17.3633 20.454 17.3939L20.4735 17.4302L20.4762 17.4283C20.5188 17.4999 20.5512 17.5752 20.5725 17.6523C20.5929 17.7267 20.6031 17.8104 20.6031 17.9005V18.9369C20.6031 18.95 20.6031 18.963 20.6031 18.9769V19.6025H27.4374V18.9732H27.4383H27.4365Z" fill="#FFC107"/>
<path d="M29.9171 17.4537C29.6735 17.2111 29.28 17.212 29.0374 17.4565C28.7958 17.701 28.7967 18.096 29.0402 18.3396L29.63 18.9307C29.8736 19.1734 30.2671 19.1724 30.5097 18.928C30.7513 18.6835 30.7504 18.2884 30.5069 18.0449L29.9171 17.4537Z" fill="#FFAE06"/>
<path d="M3.48052 32.9656C3.51663 33.2147 3.74719 33.3867 3.99535 33.3504L5.57499 33.1181C6.16111 33.0316 6.74815 32.9944 7.33057 33.0056C7.90187 33.0167 8.4741 33.0744 9.04262 33.1785C9.05373 33.1813 9.06484 33.1841 9.07688 33.1859V33.1841C9.37688 33.2408 9.67226 33.3095 9.963 33.3895C10.2482 33.4685 10.5371 33.5624 10.826 33.6702L19.9955 37.0788L20.0048 37.0825H20.0066C20.9261 37.458 21.9048 37.6281 22.8789 37.5965C23.852 37.5649 24.8187 37.3307 25.7132 36.8966L38.6004 30.6409C38.6105 30.6362 38.6216 30.6316 38.6318 30.6269C38.6402 30.6223 38.6494 30.6186 38.6578 30.6139C39.2513 30.3165 39.6707 29.8061 39.8698 29.2205C40.0652 28.6461 40.0467 27.9991 39.7726 27.408C39.768 27.3959 39.7633 27.3847 39.7578 27.3736H39.7568C39.7531 27.3643 39.7485 27.3559 39.7448 27.3466H39.743C39.5346 26.9311 39.2217 26.5965 38.8494 26.366C38.4689 26.1289 38.0272 25.9997 37.5753 25.9997C37.4726 25.9997 37.3633 26.0072 37.2485 26.0239C37.1531 26.0369 37.0568 26.0564 36.9624 26.0806C36.9476 26.0834 36.9318 26.0871 36.917 26.0918L26.59 29.1704C26.5289 28.9491 26.4326 28.7372 26.3058 28.5429C26.1271 28.2706 25.8863 28.0345 25.5937 27.8597C25.5669 27.8411 25.5382 27.8253 25.5067 27.8123H25.5058L15.6214 23.7735C14.4556 23.2967 13.2399 22.9657 12.001 22.7845C10.7788 22.6051 9.53337 22.5735 8.28983 22.6915C8.27409 22.6915 8.25835 22.6915 8.24354 22.6943L3.87868 23.1991C3.6296 23.2279 3.45089 23.4538 3.4796 23.7038C3.82034 26.7127 3.11663 30.4624 3.48052 32.9656Z" fill="#F9C5B8"/>
<path d="M27.5159 28.8942L26.59 29.1702C26.5733 29.4426 26.5594 29.6424 26.5557 29.6638C26.5428 29.7391 26.5252 29.8097 26.5011 29.8757H26.4993C26.4965 29.8822 26.4937 29.8906 26.4919 29.898C26.3733 30.2159 26.1437 30.4613 25.8631 30.6026C25.5752 30.7476 25.2326 30.7857 24.9011 30.6835L16.8751 28.2109C16.6362 28.1375 16.3825 28.2723 16.3084 28.5121C16.2353 28.7519 16.3695 29.0066 16.6084 29.081L24.6344 31.5535C25.1974 31.7274 25.778 31.6632 26.2678 31.416C26.7502 31.1724 27.1437 30.7532 27.3437 30.2104C27.3474 30.2011 27.3511 30.1927 27.3548 30.1834H27.3539V30.1815C27.3983 30.057 27.4298 29.9362 27.4502 29.819C27.4595 29.7642 27.4863 29.358 27.5159 28.8942Z" fill="#FAB1A6"/>
<path d="M2.11021 35.1806H0.454635C0.203706 35.1806 0 34.9761 0 34.7242V21.826C0 21.5741 0.203706 21.3696 0.454635 21.3696H2.11021C2.73799 21.3696 3.30652 21.6252 3.71764 22.038C4.12875 22.4507 4.38338 23.0214 4.38338 23.6516H4.38153V32.8976H4.38338C4.38338 33.5279 4.12875 34.0986 3.71764 34.5113C3.30652 34.9249 2.73799 35.1806 2.11021 35.1806Z" fill="#F05959"/>
<path d="M21.1353 11.1943H22.1976V11.1955C22.7675 11.1955 23.2831 11.4284 23.6557 11.804C24.0289 12.1807 24.2596 12.7013 24.2596 13.2761V14.6079C24.2596 14.7764 24.1243 14.9125 23.9579 14.9125V14.9112H22.8956V14.9125C22.3263 14.9125 21.8107 14.6795 21.4375 14.3028C21.0643 13.926 20.8336 13.4055 20.8336 12.8307V11.4989C20.833 11.331 20.9683 11.1943 21.1353 11.1943Z" fill="#8BC34A"/>
<path d="M23.691 11.8447C24.0433 12.2181 24.2596 12.7211 24.2596 13.2746V14.6074C24.2596 14.7761 24.1228 14.9122 23.9548 14.9122V14.911H23.3085C23.2651 14.8188 23.241 14.7158 23.241 14.6074V13.2746C23.2404 12.7578 23.3994 12.2609 23.691 11.8447Z" fill="#7DB548"/>
<path d="M25.6736 11.1943H26.7357C26.9026 11.1943 27.0373 11.331 27.0373 11.4989V12.8307C27.0373 13.4055 26.8066 13.926 26.4335 14.3028C26.0604 14.6795 25.5448 14.9125 24.9756 14.9125V14.9112H23.9397C23.9308 14.9118 23.9219 14.9125 23.9129 14.9125C23.746 14.9125 23.6113 14.7758 23.6113 14.6079V13.2761C23.6113 12.7013 23.842 12.1807 24.2151 11.804C24.5888 11.4272 25.1044 11.1943 25.6736 11.1943Z" fill="#8BC34A"/>
</svg>
