<svg width="40" height="40" viewBox="0 0 40 40" fill="none" xmlns="http://www.w3.org/2000/svg">
<path d="M8.11679 28.1633C8.11679 28.002 7.98615 27.8716 7.82453 27.8716H1.89226C1.73064 27.8716 1.60001 28.002 1.60001 28.1633C1.60001 28.1717 1.60001 28.1809 1.60084 28.1893V33.5488H1.60001C1.60001 33.9868 1.68793 34.4065 1.84704 34.7902C2.0095 35.1815 2.24565 35.5334 2.53791 35.8302C2.54293 35.836 2.54796 35.8419 2.55382 35.8477C2.85278 36.1462 3.21204 36.3878 3.61232 36.5533C3.99669 36.7122 4.41708 36.7999 4.85672 36.7999C5.75611 36.7999 6.57007 36.4363 7.15878 35.8477C7.74832 35.2592 8.1126 34.4466 8.1126 33.5496C8.1126 26.85 8.11679 34.8646 8.11679 28.1633Z" fill="#BED4FF"/>
<path d="M4.85577 36.7981H32.8146C32.9762 36.7981 33.1069 36.6677 33.1069 36.5063V5.14088C33.1069 4.97954 32.9762 4.84912 32.8146 4.84912H7.81939C7.65777 4.84912 7.52713 4.97954 7.52713 5.14088V34.0385C7.52713 35.2465 5.9486 36.7981 4.85577 36.7981Z" fill="#E2ECFF"/>
<path d="M23.6091 14.5334H11.9933C11.8107 14.5334 11.6625 14.3854 11.6625 14.204V8.93813C11.6625 8.75588 11.8107 8.60791 11.9933 8.60791H23.6099C23.7925 8.60791 23.9398 8.75588 23.9398 8.93813V14.204C23.9398 14.3854 23.7916 14.5334 23.6091 14.5334Z" fill="#5C9CEE"/>
<path d="M28.625 18.2343C28.8076 18.2343 28.9558 18.0863 28.9558 17.9041C28.9558 17.7218 28.8076 17.5747 28.625 17.5747H18.5919C18.4094 17.5747 18.2612 17.7227 18.2612 17.9041C18.2612 18.0855 18.4094 18.2343 18.5919 18.2343H28.625Z" fill="#414658"/>
<path d="M16.3879 18.2343C16.5704 18.2343 16.7187 18.0863 16.7187 17.9041C16.7187 17.7218 16.5704 17.5747 16.3879 17.5747H11.9915C11.8089 17.5747 11.6615 17.7227 11.6615 17.9041C11.6615 18.0855 11.8097 18.2343 11.9915 18.2343H16.3879Z" fill="#414658"/>
<path d="M28.6251 21.9353C28.8077 21.9353 28.9559 21.7874 28.9559 21.6051C28.9559 21.4229 28.8077 21.2749 28.6251 21.2749H25.8131C25.6305 21.2749 25.4823 21.4229 25.4823 21.6051C25.4823 21.7874 25.6305 21.9353 25.8131 21.9353H28.6251Z" fill="#414658"/>
<path d="M23.6082 21.9353C23.7907 21.9353 23.9389 21.7874 23.9389 21.6051C23.9389 21.4229 23.7907 21.2749 23.6082 21.2749H11.9924C11.8098 21.2749 11.6624 21.4229 11.6624 21.6051C11.6624 21.7874 11.8107 21.9353 11.9924 21.9353H23.6082Z" fill="#414658"/>
<path d="M11.9932 24.978C11.8107 24.978 11.6624 25.126 11.6624 25.3082C11.6624 25.4905 11.8107 25.6385 11.9932 25.6385H28.626C28.8085 25.6385 28.9567 25.4905 28.9567 25.3082C28.9567 25.126 28.8085 24.978 28.626 24.978H11.9932Z" fill="#414658"/>
<path d="M28.6251 29.3387C28.8077 29.3387 28.9559 29.1907 28.9559 29.0084C28.9559 28.8262 28.8077 28.6782 28.6251 28.6782H25.8131C25.6305 28.6782 25.4823 28.8262 25.4823 29.0084C25.4823 29.1907 25.6305 29.3387 25.8131 29.3387H28.6251Z" fill="#414658"/>
<path d="M23.6082 29.3387C23.7907 29.3387 23.9389 29.1907 23.9389 29.0084C23.9389 28.8262 23.7907 28.6782 23.6082 28.6782H11.9924C11.8098 28.6782 11.6624 28.8262 11.6624 29.0084C11.6624 29.1907 11.8107 29.3387 11.9924 29.3387H23.6082Z" fill="#414658"/>
<path d="M28.625 33.0403C28.8076 33.0403 28.9558 32.8923 28.9558 32.7101C28.9558 32.5279 28.8076 32.3799 28.625 32.3799H18.5919C18.4094 32.3799 18.2612 32.5279 18.2612 32.7101C18.2612 32.8923 18.4094 33.0403 18.5919 33.0403H28.625Z" fill="#414658"/>
<path d="M16.3879 33.0403C16.5705 33.0403 16.7187 32.8923 16.7187 32.7101C16.7187 32.5279 16.5705 32.3799 16.3879 32.3799H11.9915C11.8089 32.3799 11.6615 32.5279 11.6615 32.7101C11.6615 32.8923 11.8097 33.0403 11.9915 33.0403H16.3879Z" fill="#414658"/>
<path d="M30.6461 14.9073C31.7346 15.4911 32.971 15.7026 34.1669 15.5428C35.3864 15.3792 36.5644 14.8312 37.4995 13.8977H37.5004L37.5023 13.8958C38.6341 12.764 39.2001 11.2816 39.2001 9.79913C39.2001 8.31668 38.6332 6.83235 37.4995 5.70054V5.69866L37.4948 5.69396C36.361 4.56497 34.877 4 33.3929 4C31.9089 4 30.422 4.56591 29.2873 5.69866H29.2854L29.2816 5.70242C28.3484 6.63588 27.7995 7.81 27.6365 9.02642C27.4765 10.2203 27.6883 11.4546 28.274 12.5422L27.5782 15.1348C27.5565 15.2006 27.5537 15.273 27.5725 15.3454C27.6253 15.5428 27.8296 15.6603 28.0273 15.6077L30.6461 14.9073Z" fill="#F05959"/>
<path d="M36.1721 10.4903L33.6617 12.9949L33.6602 12.9965C33.5052 13.1511 33.2545 13.1511 33.1004 12.9965H33.1012L30.609 10.5108C30.6011 10.5045 30.594 10.4974 30.5869 10.4903C30.1876 10.0919 29.9883 9.57044 29.9883 9.049C29.9883 8.52756 30.1868 8.00848 30.5829 7.61089L30.5869 7.60694H30.5885C30.9885 7.20856 31.5104 7.00977 32.0322 7.00977C32.2963 7.00977 32.5627 7.06183 32.8142 7.16517C33.0181 7.24958 33.2103 7.36634 33.3811 7.51622C33.7661 7.17858 34.2476 7.00977 34.7276 7.00977C34.9916 7.00977 35.2573 7.06183 35.5095 7.16596C35.753 7.26615 35.9792 7.41367 36.1729 7.60694C36.5722 8.00532 36.7714 8.52677 36.7714 9.04821C36.7706 9.57044 36.5714 10.0927 36.1721 10.4903Z" fill="white"/>
</svg>
