<svg width="40" height="43" viewBox="0 0 40 43" fill="none" xmlns="http://www.w3.org/2000/svg">
<path d="M25.5063 39.9999C25.8405 39.9999 26.1103 39.7343 26.1103 39.4075C26.1103 39.2367 26.0372 39.0839 25.9201 38.9753C27.2271 37.7199 29.5573 35.3028 29.7959 35.3028C30.1302 35.3028 30.4 35.0372 30.4 34.7104V5.52744C30.4 4.66729 30.041 3.88514 29.4638 3.31803C28.8866 2.75197 28.0891 2.3999 27.211 2.3999H9.58903C8.71196 2.3999 7.91444 2.75197 7.33618 3.31803C6.75899 3.88408 6.39999 4.66623 6.39999 5.52744V36.8724C6.39999 37.7325 6.75899 38.5147 7.33618 39.0818C7.91336 39.6478 8.71089 39.9999 9.58903 39.9999H25.5063Z" fill="#414658"/>
<path fill-rule="evenodd" clip-rule="evenodd" d="M24.1927 37.6L24.8045 37.0096C25.3018 36.5307 25.7884 36.0403 26.2771 35.5541C26.7937 35.0394 27.3102 34.5206 27.8407 34.0186C28.1337 33.7418 28.4449 33.4282 28.8 33.2061V5.60707C28.8 5.17873 28.6267 4.77564 28.3198 4.47254C28.0129 4.17049 27.6022 4 27.1669 4H9.63307C9.1978 4 8.78819 4.17049 8.48019 4.47254C8.17325 4.77459 8 5.17873 8 5.60707V35.9929C8 36.4213 8.17325 36.8244 8.48019 37.1275C8.78713 37.4295 9.1978 37.6 9.63307 37.6H24.1927Z" fill="white"/>
<path d="M14.3495 20.0235H11.4808V19.2236H15.3363V21.196H12.4676V21.6003H15.3851V22.4001H11.4765V20.3933H14.3452L14.3495 20.0235Z" fill="#6F6F6E"/>
<path d="M23.6267 14.437V18.6943H22.6313V14.437H23.6267Z" fill="#6F6F6E"/>
<path d="M21.6532 14.4417L19.5892 17.7386H21.6532V18.6975H18.0673L20.1313 15.3791H18.0673V14.4316H21.6532V14.4402V14.4417Z" fill="#BD0738"/>
<path d="M13.2163 15.8592C13.1177 15.6482 12.9855 15.4545 12.8247 15.2859C12.6517 15.1201 12.4481 14.9897 12.2252 14.9017C11.9856 14.8065 11.73 14.7578 11.4722 14.7584C11.217 14.7563 10.9639 14.805 10.7277 14.9017C10.5061 14.988 10.3045 15.1187 10.1354 15.2859C9.96965 15.4505 9.83676 15.645 9.74378 15.8592C9.6472 16.0858 9.59837 16.3297 9.60035 16.576C9.59518 16.8225 9.64414 17.0671 9.74378 17.2927C9.83379 17.5121 9.9674 17.7109 10.1365 17.8772C10.3056 18.0436 10.5068 18.1738 10.7277 18.2602C10.9639 18.3569 11.217 18.4056 11.4722 18.4036C11.73 18.4041 11.9856 18.3555 12.2252 18.2602C12.4495 18.175 12.6536 18.0442 12.8247 17.8761C12.989 17.7103 13.1217 17.516 13.2163 17.3027C13.4 16.8391 13.4 16.3229 13.2163 15.8592ZM12.1865 17.3099C12.0988 17.4125 11.9882 17.4931 11.8637 17.5452C11.7391 17.5972 11.604 17.6193 11.4693 17.6095C11.3387 17.6168 11.2081 17.5936 11.0881 17.5416C10.968 17.4896 10.8618 17.4102 10.7779 17.3099C10.6186 17.0986 10.5325 16.8412 10.5325 16.5767C10.5325 16.3121 10.6186 16.0548 10.7779 15.8435C10.8641 15.7467 10.9711 15.6707 11.0908 15.6211C11.2105 15.5714 11.3399 15.5495 11.4693 15.5568C11.6032 15.5471 11.7375 15.5683 11.8618 15.6187C11.9862 15.6692 12.0973 15.7475 12.1865 15.8478C12.3466 16.0596 12.4305 16.3192 12.4246 16.5846C12.4304 16.8464 12.3464 17.1024 12.1865 17.3099Z" fill="#6F6F6E"/>
<path d="M14.3493 18.6986H15.3319V15.7802C15.3325 15.6803 15.3721 15.5846 15.4423 15.5135C15.5126 15.4431 15.6081 15.4034 15.7077 15.4032H17.0846V14.46H15.2673C15.0208 14.4645 14.786 14.5661 14.6141 14.7428C14.4422 14.9194 14.347 15.1568 14.3493 15.4032V18.6986Z" fill="#BD0738"/>
<path d="M25.0237 14.6035C25.2558 14.4625 25.524 14.3923 25.7954 14.4013C26.1523 14.3865 26.5044 14.487 26.7995 14.688C26.9317 14.7855 27.0374 14.9144 27.1071 15.0631C27.1767 15.2118 27.208 15.3756 27.1982 15.5395C27.205 15.7474 27.1446 15.9519 27.0261 16.1229C26.9135 16.262 26.7827 16.3854 26.6374 16.4899L26.4495 16.6332C26.3539 16.703 26.2822 16.8006 26.2444 16.9127C26.2208 17.1231 26.2093 17.3346 26.2099 17.5463H25.4928C25.5043 17.2467 25.4928 16.7794 25.5415 16.6647C25.6366 16.486 25.7704 16.3308 25.9331 16.2103L26.1282 16.0584C26.1874 16.0144 26.2393 15.9611 26.2817 15.9007C26.3506 15.8078 26.3878 15.6953 26.3878 15.5796C26.3884 15.4473 26.3467 15.3182 26.2688 15.2112C26.2163 15.1501 26.1496 15.1029 26.0746 15.0736C25.9995 15.0444 25.9184 15.034 25.8385 15.0435C25.7539 15.0356 25.6687 15.0504 25.5918 15.0864C25.5148 15.1225 25.449 15.1784 25.401 15.2485C25.3174 15.3764 25.2726 15.5258 25.2719 15.6785H24.493C24.5122 15.174 24.6891 14.8156 25.0237 14.6035ZM25.4655 17.9161H26.2616V18.6844H25.4655V17.9161Z" fill="#6F6F6E"/>
<path d="M12.597 2.3999H23.4041C23.7339 2.3999 24 2.64813 24 2.95348V5.26138C24 5.79526 23.7657 6.27989 23.3871 6.63056C23.0096 6.98123 22.4869 7.1999 21.9132 7.1999H14.0868C13.5121 7.1999 12.9904 6.98221 12.6129 6.63056C12.2354 6.27989 12 5.79428 12 5.26138V2.95348C12 2.64714 12.2672 2.3999 12.5959 2.3999H12.597Z" fill="#414658"/>
<path d="M17.4178 4C17.0759 4 16.8 4.35872 16.8 4.8C16.8 5.24128 17.077 5.6 17.4178 5.6H19.3822C19.7241 5.6 20 5.24128 20 4.8C20 4.35872 19.723 4 19.3822 4H17.4178Z" fill="#DBE0E3"/>
<path d="M25.5063 40.0001C25.8405 40.0001 26.1103 39.7406 26.1103 39.4214C26.1103 39.2545 26.0372 39.1052 25.9201 38.9992C27.2271 37.7727 29.5573 35.4115 29.7959 35.4115C30.1302 35.4115 30.4 35.152 30.4 34.8327V33.6001H6.39999V36.9448C6.39999 37.7851 6.75899 38.5492 7.33618 39.1032C7.91336 39.6562 8.71089 40.0001 9.58903 40.0001H25.5063Z" fill="#414658"/>
<path d="M16.5853 36C16.2614 36 16 36.3587 16 36.8C16 37.2413 16.2624 37.6 16.5853 37.6H20.2147C20.5376 37.6 20.8 37.2413 20.8 36.8C20.8 36.3587 20.5376 36 20.2147 36H16.5853Z" fill="#DBE0E3"/>
<path d="M33.2516 33.7437C33.3947 33.8491 33.5922 33.8658 33.7561 33.7713C34.4383 33.3782 34.8973 32.7429 35.0869 32.0366C35.2764 31.3314 35.1965 30.5532 34.8026 29.8715L32.4114 25.7403L31.0628 23.4097C30.8427 23.0295 30.4892 22.7744 30.0953 22.669C29.7103 22.5665 29.2867 22.6069 28.9116 22.8138C28.9037 22.8167 28.8948 22.8207 28.8869 22.8256L28.8849 22.8266L28.878 22.8305L28.8751 22.8325C28.8691 22.8364 28.8632 22.8404 28.8573 22.8443L28.8484 22.8512H28.8474L28.8435 22.8542C28.6569 22.9704 28.5019 23.1191 28.3824 23.2886L28.2926 23.1339C28.2807 23.1083 28.2659 23.0837 28.2481 23.061C28.027 22.7064 27.6854 22.4671 27.3083 22.3656C26.9311 22.2651 26.5165 22.3016 26.1473 22.4986C26.1157 22.5124 26.0851 22.5301 26.0564 22.5508C25.8698 22.667 25.7148 22.8158 25.5954 22.9862L25.4779 22.7832C25.4661 22.7576 25.4522 22.734 25.4374 22.7113C25.2173 22.3508 24.8717 22.1075 24.4897 22.0051C24.1125 21.9046 23.6969 21.941 23.3277 22.1381C23.3059 22.1479 23.2842 22.1587 23.2645 22.1715L23.2576 22.1765L23.2536 22.1784L23.2516 22.1804C23.2516 22.1804 23.2418 22.1873 23.2368 22.1903C23.0502 22.3065 22.8952 22.4552 22.7748 22.6256L22.3049 21.813C22.0847 21.4328 21.7313 21.1776 21.3373 21.0722C20.9602 20.9718 20.5446 21.0082 20.1763 21.2052C20.1447 21.219 20.1141 21.2367 20.0855 21.2574C19.7301 21.4781 19.4902 21.8189 19.3885 22.1952C19.2829 22.5872 19.3273 23.0197 19.5475 23.3989L21.8833 27.4356C21.1211 27.4326 20.437 27.8512 20.28 27.9547L20.277 27.9566L20.2642 27.9655C19.275 28.5427 19.4823 29.2982 19.5761 29.5297C19.586 29.5583 19.5988 29.5869 19.6146 29.6144H19.6166L20.0233 30.3158L23.5044 36.3314C23.5103 36.3442 23.5172 36.357 23.5241 36.3698H23.5251C23.919 37.0504 24.5558 37.5085 25.2637 37.6976C25.9705 37.8867 26.7505 37.8069 27.4337 37.4139C27.5975 37.3203 31.3689 35.0173 33.2535 33.7447L33.2516 33.7437Z" fill="#F9C5B8"/>
<path d="M23.5113 22.0542C23.4491 22.0778 23.3879 22.1054 23.3276 22.1379C23.3059 22.1478 23.2842 22.1586 23.2644 22.1714L23.2575 22.1764L23.2536 22.1783L23.2516 22.1803C23.2516 22.1803 23.2417 22.1872 23.2368 22.1901C23.0502 22.3064 22.8952 22.4551 22.7758 22.6245L26.4898 29.043C26.6172 29.2627 26.8995 29.3385 27.1207 29.2105C27.3408 29.0834 27.4169 28.8017 27.2885 28.581L23.5113 22.0532V22.0542Z" fill="#FAB1A6"/>
<path d="M21.1853 26.2285L21.8833 27.4352C21.5348 27.4342 21.2031 27.5209 20.9296 27.6253L23.0315 31.2581C23.1579 31.4777 23.4402 31.5536 23.6604 31.4275C23.8805 31.3014 23.9566 31.0197 23.8302 30.8L21.1853 26.2295V26.2285Z" fill="#FAB1A6"/>
<path d="M29.1192 22.7168C29.0491 22.7434 28.981 22.7749 28.9138 22.8124C28.9059 22.8153 28.897 22.8192 28.8891 22.8242L28.8872 22.8252L28.8803 22.8291L28.8773 22.8311C28.8714 22.835 28.8654 22.839 28.8595 22.8429L28.8506 22.8498H28.8496L28.8457 22.8527C28.6591 22.969 28.5041 23.1177 28.3846 23.2871L30.4184 26.8017C30.5458 27.0214 30.8281 27.0972 31.0493 26.9692C31.2694 26.8421 31.3454 26.5604 31.2171 26.3398L29.1202 22.7158L29.1192 22.7168ZM28.2938 23.1325C28.2839 23.1128 28.2731 23.0931 28.2603 23.0754L28.2938 23.1325Z" fill="#FAB1A6"/>
<path d="M26.3311 22.4146C26.2689 22.4382 26.2087 22.4658 26.1485 22.4983C26.1169 22.5121 26.0863 22.5298 26.0576 22.5505C25.871 22.6667 25.716 22.8155 25.5966 22.9859L25.4791 22.783C25.4673 22.7573 25.4534 22.7337 25.4386 22.711L25.4307 22.6982L28.202 27.4865C28.3293 27.7061 28.6117 27.782 28.8328 27.6539C29.053 27.5269 29.129 27.2451 29.0006 27.0245L26.3331 22.4146H26.3311Z" fill="#FAB1A6"/>
<path d="M35.1019 32.4642L37.5216 36.6466C37.5275 36.6555 37.5335 36.6643 37.5384 36.6732C37.6658 36.8939 37.5897 37.1766 37.3686 37.3036H37.3666L28.66 42.3145C28.6482 42.3224 28.6363 42.3303 28.6235 42.3381C28.4023 42.4652 28.119 42.3903 27.9916 42.1687L25.5728 37.9892C25.5669 37.9803 25.561 37.9715 25.5561 37.9626C25.4287 37.742 25.5037 37.4593 25.7249 37.3322L34.4404 32.3125C34.4493 32.3066 34.4582 32.3007 34.4671 32.2957C34.6882 32.1687 34.9715 32.2435 35.0989 32.4642H35.1019Z" fill="#F05959"/>
</svg>
