<svg width="40" height="40" viewBox="0 0 40 40" fill="none" xmlns="http://www.w3.org/2000/svg">
<path d="M3.62868 33.4664C3.84349 33.4902 4.03443 33.3354 4.0583 33.1211L25.5029 5.65292C25.7177 5.62911 25.8729 5.43861 25.849 5.22429C25.7893 4.65278 25.5029 4.14081 25.0972 3.78361C24.6914 3.42642 24.1544 3.2002 23.5816 3.2002H3.8793C3.24682 3.2002 2.67401 3.45023 2.26827 3.86696C1.85059 4.28368 1.59998 4.85519 1.59998 5.47433V31.2042C1.59998 31.7876 1.82672 32.3115 2.18472 32.7163C2.54273 33.1211 3.05587 33.395 3.62868 33.4664Z" fill="#E2ECFF"/>
<path d="M3.6287 33.4664C3.8435 33.4902 4.03445 33.3354 4.05832 33.1211L25.5029 5.65293C25.7177 5.62912 25.8729 5.43862 25.849 5.2243C25.8132 4.89092 25.6939 4.56945 25.5268 4.2956C25.4313 4.28369 25.3478 4.28369 25.2523 4.28369H5.55001C3.97478 4.28369 2.67401 5.56959 2.67401 7.15315V32.883C2.67401 32.9782 2.67402 33.0616 2.68596 33.1568C2.97236 33.3116 3.29456 33.4307 3.6287 33.4664Z" fill="#BED4FF"/>
<path d="M5.2994 35.1334L27.1736 7.31992C27.3884 7.2961 27.5436 7.1056 27.5197 6.89128C27.46 6.31977 27.1736 5.8078 26.7679 5.4506C26.3621 5.09341 25.8251 4.86719 25.2523 4.86719H5.55001C4.29699 4.86719 3.27069 5.89114 3.27069 7.14132V32.8712C3.27069 33.4546 3.49743 33.9785 3.85544 34.3833C4.21345 34.7881 4.72659 35.062 5.2994 35.1334Z" fill="#E2ECFF"/>
<path d="M5.29941 35.1334L27.1736 7.31993C27.3884 7.29611 27.5436 7.10561 27.5197 6.89129C27.4839 6.55791 27.3646 6.23644 27.1975 5.96259C27.102 5.95068 27.0185 5.95068 26.923 5.95068H7.22073C6.45698 5.95068 5.72903 6.24835 5.19202 6.79604C4.65501 7.33183 4.34473 8.05813 4.34473 8.82014V34.55C4.34473 34.6452 4.34474 34.7286 4.35667 34.8238C4.64308 34.9786 4.95334 35.0858 5.29941 35.1334Z" fill="#BED4FF"/>
<path d="M29.2024 21.9051V8.7961C29.2024 8.16506 28.9398 7.60546 28.5341 7.18873C28.1164 6.77201 27.5555 6.52197 26.923 6.52197H7.22073C6.58825 6.52197 6.01544 6.77201 5.6097 7.18873C5.20396 7.60546 4.94141 8.17697 4.94141 8.7961V34.526C4.94141 35.157 5.19202 35.7285 5.6097 36.1333C6.02737 36.5501 6.60018 36.8001 7.22073 36.8001H26.923C28.1761 36.8001 29.2024 35.7761 29.2024 34.526V21.9051Z" fill="#E2ECFF"/>
<path d="M20.4328 15.2295H8.53885C8.35192 15.2295 8.20013 15.0781 8.20013 14.8924V9.50346C8.20013 9.31695 8.35192 9.16553 8.53885 9.16553H20.4337C20.6206 9.16553 20.7715 9.31695 20.7715 9.50346V14.8924C20.7715 15.0781 20.6198 15.2295 20.4328 15.2295Z" fill="#5C9CEE"/>
<path d="M25.5689 19.0171C25.7559 19.0171 25.9076 18.8656 25.9076 18.679C25.9076 18.4924 25.7559 18.3418 25.5689 18.3418H15.2955C15.1086 18.3418 14.9568 18.4933 14.9568 18.679C14.9568 18.8648 15.1086 19.0171 15.2955 19.0171H25.5689Z" fill="#414658"/>
<path d="M13.0388 19.0171C13.2257 19.0171 13.3775 18.8656 13.3775 18.679C13.3775 18.4924 13.2257 18.3418 13.0388 18.3418H8.53708C8.35015 18.3418 8.19922 18.4933 8.19922 18.679C8.19922 18.8648 8.35101 19.0171 8.53708 19.0171H13.0388Z" fill="#414658"/>
<path d="M25.569 22.8046C25.756 22.8046 25.9077 22.6531 25.9077 22.4665C25.9077 22.2799 25.756 22.1284 25.569 22.1284H22.6896C22.5027 22.1284 22.351 22.2799 22.351 22.4665C22.351 22.6531 22.5027 22.8046 22.6896 22.8046H25.569Z" fill="#414658"/>
<path d="M20.4319 22.8046C20.6188 22.8046 20.7706 22.6531 20.7706 22.4665C20.7706 22.2799 20.6188 22.1284 20.4319 22.1284H8.53787C8.35094 22.1284 8.20001 22.2799 8.20001 22.4665C8.20001 22.6531 8.3518 22.8046 8.53787 22.8046H20.4319Z" fill="#414658"/>
<path d="M8.53873 25.9185C8.3518 25.9185 8.20001 26.07 8.20001 26.2565C8.20001 26.4431 8.3518 26.5946 8.53873 26.5946H25.5698C25.7568 26.5946 25.9085 26.4431 25.9085 26.2565C25.9085 26.07 25.7568 25.9185 25.5698 25.9185H8.53873Z" fill="#414658"/>
<path d="M25.569 30.3813C25.756 30.3813 25.9077 30.2298 25.9077 30.0432C25.9077 29.8566 25.756 29.7051 25.569 29.7051H22.6896C22.5027 29.7051 22.351 29.8566 22.351 30.0432C22.351 30.2298 22.5027 30.3813 22.6896 30.3813H25.569Z" fill="#414658"/>
<path d="M20.4319 30.3813C20.6188 30.3813 20.7706 30.2298 20.7706 30.0432C20.7706 29.8566 20.6188 29.7051 20.4319 29.7051H8.53787C8.35094 29.7051 8.20001 29.8566 8.20001 30.0432C8.20001 30.2298 8.3518 30.3813 8.53787 30.3813H20.4319Z" fill="#414658"/>
<path d="M25.5689 34.1693C25.7559 34.1693 25.9076 34.0179 25.9076 33.8313C25.9076 33.6447 25.7559 33.4932 25.5689 33.4932H15.2955C15.1086 33.4932 14.9568 33.6447 14.9568 33.8313C14.9568 34.0179 15.1086 34.1693 15.2955 34.1693H25.5689Z" fill="#414658"/>
<path d="M13.0388 34.1693C13.2257 34.1693 13.3775 34.0179 13.3775 33.8313C13.3775 33.6447 13.2257 33.4932 13.0388 33.4932H8.53708C8.35015 33.4932 8.19922 33.6447 8.19922 33.8313C8.19922 34.0179 8.35101 34.1693 8.53708 34.1693H13.0388Z" fill="#414658"/>
<path d="M29.224 27.1872C29.4602 27.423 29.8445 27.423 30.082 27.1872C30.3183 26.9515 30.3183 26.5681 30.082 26.3311L28.2418 24.4952C28.0055 24.2594 27.6213 24.2594 27.3838 24.4952C27.1475 24.7309 27.1475 25.1143 27.3838 25.3512L29.224 27.1872Z" fill="#FFB931"/>
<path d="M28.6677 18.3287C29.6236 19.2824 30.2143 20.5993 30.2143 22.0531C30.2143 23.5068 29.6236 24.8249 28.6677 25.7774C27.7118 26.7311 26.392 27.3205 24.9349 27.3205C23.4778 27.3205 22.1567 26.7311 21.202 25.7774C20.2462 24.8237 19.6555 23.5068 19.6555 22.0531C19.6555 20.5993 20.2462 19.2812 21.202 18.3287C22.1579 17.375 23.4778 16.7856 24.9349 16.7856C26.392 16.7856 27.713 17.375 28.6677 18.3287Z" fill="#FFA72C"/>
<path opacity="0.9" d="M27.8469 19.1481C28.5927 19.8922 29.0533 20.9186 29.0533 22.0533C29.0533 23.1879 28.5927 24.2155 27.8469 24.9584C27.101 25.7026 26.0723 26.1622 24.935 26.1622C23.7978 26.1622 22.7679 25.7026 22.0233 24.9584C21.2774 24.2143 20.8168 23.1879 20.8168 22.0533C20.8168 20.9186 21.2774 19.891 22.0233 19.1481C22.7691 18.4039 23.7978 17.9443 24.935 17.9443C26.0723 17.9443 27.1022 18.4039 27.8469 19.1481Z" fill="white"/>
<path d="M37.069 34.1595C36.7134 34.5143 36.248 34.6917 35.7826 34.6917C35.3172 34.6917 34.8542 34.5143 34.4985 34.1595H34.4962L34.4926 34.1559L28.3659 28.0432C28.1296 27.8074 28.1296 27.424 28.3659 27.1871L28.3707 27.1823L30.0807 25.4761C30.317 25.2404 30.7013 25.2404 30.9388 25.4761L30.9435 25.4809L37.0678 31.5913C37.0809 31.6044 37.0941 31.6187 37.1048 31.633C37.4354 31.9818 37.6001 32.4295 37.6001 32.876C37.6013 33.3403 37.4246 33.8047 37.069 34.1595Z" fill="#F05959"/>
</svg>
