<svg width="40" height="40" viewBox="0 0 40 40" fill="none" xmlns="http://www.w3.org/2000/svg">
<g clip-path="url(#clip0_1822_4894)">
<path d="M22.5503 32.3606C22.2882 32.3606 22.0762 32.1488 22.0762 31.887V10.9268C22.0762 10.3828 22.3003 9.8731 22.6596 9.50121C23.0179 9.13024 23.5134 8.89434 24.0607 8.89064C24.3329 8.88879 24.5922 8.94152 24.8293 9.03865C24.9302 9.08028 25.0265 9.12931 25.1182 9.18575V8.23381C25.1182 7.68337 25.3414 7.18473 25.7026 6.82394C26.0637 6.46315 26.5629 6.2402 27.1139 6.2402C27.5047 6.2402 27.8695 6.35306 28.1788 6.54826C28.2344 6.09588 28.4418 5.68976 28.7483 5.38355C29.1095 5.02276 29.6086 4.7998 30.1596 4.7998H30.1633C30.7134 4.80073 31.2107 5.02368 31.5709 5.38355C31.883 5.69531 32.0923 6.11068 32.1432 6.57324C32.2247 6.52236 32.3099 6.47703 32.3998 6.43817C32.4127 6.4317 32.4257 6.42522 32.4396 6.41967C32.6766 6.32253 32.9341 6.26888 33.2026 6.26888C33.7536 6.26888 34.2528 6.49275 34.6139 6.85355C34.9751 7.21434 35.1992 7.71297 35.1992 8.26341H35.1973V17.6616L36.4012 15.3377C36.4058 15.3266 36.4114 15.3155 36.4169 15.3044H36.4179C36.5855 14.989 36.83 14.7382 37.1161 14.5653C37.4124 14.3867 37.7523 14.2914 38.0996 14.2914C38.2255 14.2914 38.357 14.3053 38.4894 14.3331C38.6191 14.3599 38.745 14.4006 38.8654 14.4533C39.2701 14.6319 39.5868 14.939 39.7822 15.3118C39.972 15.6745 40.0461 16.0972 39.9711 16.52C39.9693 16.5367 39.9665 16.5533 39.9618 16.57L38.9423 20.9032C38.8673 21.6692 38.695 22.4167 38.432 23.1271C38.1635 23.8552 37.7995 24.5481 37.3495 25.1874L36.6633 26.1587C36.1762 26.8479 35.8039 27.4317 35.5603 28.0376C35.3214 28.6297 35.1983 29.2643 35.1983 30.0766V31.887C35.1983 32.1488 34.9862 32.3606 34.7241 32.3606H22.5512H22.5503Z" fill="#F9C5B8"/>
<path d="M32.1441 6.56377V6.57209C32.2265 6.52121 32.3117 6.47588 32.4015 6.43703C32.4145 6.43055 32.4275 6.42408 32.4414 6.41853C32.6451 6.33527 32.8646 6.28346 33.0933 6.27051V17.4366C33.0933 17.6984 32.8812 17.9102 32.6192 17.9102C32.3571 17.9102 32.145 17.6984 32.145 17.4366V6.56377H32.1441Z" fill="#FAB1A6"/>
<path d="M27.2307 6.24316C27.5779 6.26352 27.902 6.37175 28.1798 6.54752V17.5665C28.1798 17.8283 27.9678 18.0402 27.7057 18.0402C27.4436 18.0402 27.2316 17.8283 27.2316 17.5665V6.24316H27.2307Z" fill="#FAB1A6"/>
<path d="M24.1699 8.89258C24.4024 8.90368 24.6246 8.95456 24.8302 9.03875C24.9311 9.08038 25.0274 9.12941 25.1191 9.18584V17.4276C25.1191 17.6894 24.9071 17.9013 24.645 17.9013C24.3829 17.9013 24.1708 17.6894 24.1708 17.4276V8.89258H24.1699Z" fill="#FAB1A6"/>
<path d="M22.3429 35.1999H34.9343C35.2325 35.1999 35.502 35.0797 35.6974 34.8845C35.8928 34.6893 36.0132 34.4201 36.0132 34.1222V32.4894C36.0132 32.1915 35.8928 31.9223 35.6974 31.7271C35.502 31.5319 35.2325 31.4116 34.9343 31.4116H22.3429C22.0447 31.4116 21.7752 31.5319 21.5798 31.7271C21.3844 31.9223 21.264 32.1915 21.264 32.4894V34.1222C21.264 34.4182 21.3844 34.6874 21.5798 34.8826V34.8845L21.5817 34.8863C21.7771 35.0806 22.0465 35.1999 22.3429 35.1999Z" fill="#5C9CEE"/>
<path d="M17.4497 32.3606C17.7117 32.3606 17.9238 32.1488 17.9238 31.887V10.9268C17.9238 10.3828 17.6997 9.8731 17.3404 9.50121C16.982 9.13024 16.4866 8.89434 15.9393 8.89064C15.667 8.88879 15.4077 8.94152 15.1707 9.03865C15.0697 9.08028 14.9734 9.12931 14.8817 9.18575V8.23381C14.8817 7.68337 14.6586 7.18473 14.2974 6.82394C13.9362 6.46315 13.4371 6.2402 12.8861 6.2402C12.4953 6.2402 12.1305 6.35306 11.8212 6.54826C11.7656 6.09588 11.5581 5.68976 11.2516 5.38355C10.8905 5.02276 10.3913 4.7998 9.84033 4.7998H9.83662C9.28655 4.80073 8.78926 5.02368 8.42903 5.38355C8.11695 5.69531 7.90767 6.11068 7.85674 6.57324C7.77525 6.52236 7.69005 6.47703 7.60022 6.43817C7.58726 6.4317 7.5743 6.42522 7.56041 6.41967C7.32334 6.32253 7.0659 6.26888 6.79735 6.26888C6.24635 6.26888 5.74721 6.49275 5.38605 6.85355C5.02489 7.21434 4.80078 7.71297 4.80078 8.26341H4.80264V17.6616L3.59878 15.3377C3.59415 15.3266 3.58857 15.3155 3.58302 15.3044H3.58209C3.41448 14.989 3.17002 14.7382 2.88387 14.5653C2.58753 14.3867 2.24766 14.2914 1.9004 14.2914C1.77445 14.2914 1.64296 14.3053 1.51053 14.3331C1.38089 14.3599 1.25494 14.4006 1.13455 14.4533C0.72987 14.6319 0.413171 14.939 0.217775 15.3118C0.0279348 15.6745 -0.0461527 16.0972 0.0288572 16.52C0.0307093 16.5367 0.0334965 16.5533 0.0381267 16.57H0.0390311L1.05861 20.9032C1.13362 21.6692 1.30587 22.4167 1.56886 23.1271C1.83742 23.8552 2.20137 24.5481 2.65143 25.1874L3.33762 26.1587C3.82473 26.8479 4.19699 27.4317 4.44054 28.0376C4.67946 28.6297 4.80264 29.2643 4.80264 30.0766V31.887C4.80264 32.1488 5.01469 32.3606 5.27676 32.3606H17.4497Z" fill="#F9C5B8"/>
<path d="M7.85581 6.56377V6.57209C7.7734 6.52121 7.6882 6.47588 7.59837 6.43703C7.58541 6.43055 7.57245 6.42408 7.55856 6.41853C7.35483 6.33527 7.13535 6.28346 6.90662 6.27051V17.4366C6.90662 17.6984 7.11867 17.9102 7.38074 17.9102C7.64281 17.9102 7.85489 17.6984 7.85489 17.4366V6.56377H7.85581Z" fill="#FAB1A6"/>
<path d="M12.7693 6.24316C12.4221 6.26352 12.0979 6.37175 11.8201 6.54752V17.5665C11.8201 17.8283 12.0322 18.0402 12.2943 18.0402C12.5563 18.0402 12.7684 17.8283 12.7684 17.5665V6.24316H12.7693Z" fill="#FAB1A6"/>
<path d="M15.8301 8.89258C15.5976 8.90368 15.3754 8.95456 15.1698 9.03875C15.0689 9.08038 14.9725 9.12941 14.8809 9.18584V17.4276C14.8809 17.6894 15.0929 17.9013 15.355 17.9013C15.6171 17.9013 15.8291 17.6894 15.8291 17.4276V8.89258H15.8301Z" fill="#FAB1A6"/>
<path d="M17.6572 35.1999H5.0648C4.76661 35.1999 4.49713 35.0797 4.30174 34.8845C4.10634 34.6893 3.98596 34.4201 3.98596 34.1222V32.4894C3.98596 32.1915 4.10634 31.9223 4.30174 31.7271C4.49713 31.5319 4.76661 31.4116 5.0648 31.4116H17.6563C17.9545 31.4116 18.224 31.5319 18.4194 31.7271C18.6147 31.9223 18.7351 32.1915 18.7351 32.4894V34.1222C18.7351 34.4182 18.6147 34.6874 18.4194 34.8826V34.8845L18.4175 34.8863C18.223 35.0806 17.9535 35.1999 17.6572 35.1999Z" fill="#5C9CEE"/>
<path d="M19.5361 6.81638C19.5361 7.07263 19.7436 7.27986 20.0001 7.27986C20.2566 7.27986 20.464 7.07263 20.464 6.81638V5.56748C20.464 5.31123 20.2566 5.104 20.0001 5.104C19.7436 5.104 19.5361 5.31123 19.5361 5.56748V6.81638Z" fill="#FFB931"/>
<path d="M22.0421 7.12827C21.9218 7.35307 22.007 7.63245 22.232 7.75272C22.457 7.87298 22.7367 7.78787 22.8571 7.56307L23.4729 6.40854C23.5933 6.18373 23.5081 5.90435 23.283 5.78409C23.058 5.66382 22.7783 5.74893 22.658 5.97373L22.0421 7.12827Z" fill="#FFB931"/>
<path d="M17.1431 7.56307C17.2635 7.78787 17.5432 7.87298 17.7682 7.75272C17.9933 7.63245 18.0784 7.35307 17.958 7.12827L17.3422 5.97373C17.2218 5.74893 16.9422 5.66382 16.7172 5.78409C16.4921 5.90435 16.4069 6.18373 16.5273 6.40854L17.1431 7.56307Z" fill="#FFB931"/>
<path d="M24.733 15.3574C25.9442 16.5674 26.6934 18.2391 26.6934 20.0856C26.6934 21.9321 25.9442 23.6038 24.733 24.8138C23.5217 26.0239 21.8483 26.7723 19.9999 26.7723C18.1515 26.7723 16.4782 26.0239 15.2669 24.8138C14.0556 23.6038 13.3065 21.9321 13.3065 20.0856C13.3065 18.2391 14.0556 16.5674 15.2669 15.3574C16.4782 14.1473 18.1515 13.3989 19.9999 13.3989C21.8483 13.3989 23.5217 14.1473 24.733 15.3574Z" fill="#F05959"/>
<path d="M23.2698 20.9253L20.3296 23.8626L20.3277 23.8644C20.1462 24.0457 19.8527 24.0457 19.6721 23.8644H19.673L16.7541 20.9494C16.7448 20.942 16.7365 20.9337 16.7282 20.9253C16.2605 20.4582 16.0272 19.8467 16.0272 19.2352C16.0272 18.6237 16.2596 18.0149 16.7236 17.5487L16.7282 17.5441H16.73C17.1986 17.0769 17.8098 16.8438 18.421 16.8438C18.7303 16.8438 19.0424 16.9048 19.3369 17.026C19.5758 17.125 19.8008 17.2619 20.0008 17.4377C20.4518 17.0417 21.0158 16.8438 21.5779 16.8438C21.8872 16.8438 22.1983 16.9048 22.4938 17.0269C22.779 17.1444 23.0438 17.3174 23.2707 17.5441C23.7384 18.0112 23.9717 18.6227 23.9717 19.2342C23.9708 19.8467 23.7374 20.4591 23.2698 20.9253Z" fill="white"/>
</g>
<defs>
<clipPath id="clip0_1822_4894">
<rect width="40" height="40" fill="white"/>
</clipPath>
</defs>
</svg>
