<svg width="40" height="40" viewBox="0 0 40 40" fill="none" xmlns="http://www.w3.org/2000/svg">
<path d="M15.8795 4.00081C15.9198 4.00081 15.9618 4 16.0054 4C16.1691 4 16.3279 4.00242 16.4817 4.00725C20.3523 4.12805 23.8379 5.74272 26.3553 8.28109C28.8735 10.8195 30.4242 14.2832 30.4266 18.1012C30.4266 18.2615 30.4242 18.4177 30.4192 18.5707C30.2942 22.4016 28.6028 25.8387 25.9637 28.3054C23.3238 30.7729 19.7353 32.27 15.8194 32.2185C14.4324 32.2008 13.0923 31.9906 11.8254 31.6145C10.5166 31.2255 9.28669 30.6602 8.16622 29.9467C8.16129 29.9435 8.15635 29.9419 8.15141 29.9419C8.14483 29.9419 8.13825 29.9435 8.13249 29.9467C7.08771 30.5781 6.07419 30.9405 5.17173 31.1378C3.83079 31.4309 2.73089 31.3584 2.13117 31.2553C2.12624 31.2545 2.12048 31.2537 2.11554 31.2529C1.7766 31.1933 1.54955 30.872 1.60961 30.5426C1.63593 30.3969 1.71573 30.2592 1.85394 30.1593C1.87039 30.1456 1.88849 30.1327 1.90823 30.1214H1.90905C2.60832 29.7156 3.18583 29.2726 3.6605 28.8289C4.24953 28.2781 4.68225 27.7256 4.99568 27.2384C4.99897 27.2327 5.00062 27.2263 4.9998 27.2183C4.99897 27.2126 4.99733 27.2062 4.99321 27.2021C3.92951 25.9668 3.07724 24.551 2.49315 23.0088C1.93127 21.5238 1.61701 19.9188 1.60138 18.2421C1.60138 18.2027 1.60138 18.1616 1.60138 18.1189C1.59891 14.259 3.19734 10.747 5.78215 8.1909C8.36613 5.63642 11.9373 4.03624 15.8803 4.00081H15.8795Z" fill="#7BAFF2"/>
<path d="M28.0247 13.8468C27.9931 13.8468 27.9603 13.8462 27.9262 13.8462C27.798 13.8462 27.6738 13.8481 27.5534 13.8519C24.5242 13.9467 21.7963 15.2143 19.8262 17.2071C17.8555 19.1998 16.6419 21.919 16.64 24.9163C16.64 25.0421 16.6419 25.1648 16.6457 25.2849C16.7436 28.2923 18.0673 30.9906 20.1327 32.9271C22.1987 34.8642 25.0071 36.0395 28.0717 35.999C29.1572 35.9851 30.2059 35.8201 31.1974 35.5249C32.2217 35.2195 33.1843 34.7757 34.0612 34.2156C34.065 34.213 34.0689 34.2118 34.0727 34.2118C34.0779 34.2118 34.083 34.213 34.0875 34.2156C34.9052 34.7112 35.6984 34.9957 36.4047 35.1506C37.4541 35.3807 38.3149 35.3238 38.7842 35.2429C38.7881 35.2423 38.7926 35.2416 38.7965 35.241C39.0617 35.1942 39.2394 34.942 39.1924 34.6834C39.1718 34.569 39.1094 34.4609 39.0012 34.3825C38.9883 34.3717 38.9742 34.3616 38.9587 34.3527H38.9581C38.4108 34.0341 37.9588 33.6864 37.5874 33.338C37.1264 32.9056 36.7877 32.4719 36.5424 32.0894C36.5399 32.085 36.5386 32.0799 36.5392 32.0736C36.5399 32.0692 36.5412 32.0641 36.5444 32.061C37.3768 31.0911 38.0438 29.9797 38.5009 28.769C38.9407 27.6032 39.1866 26.3432 39.1989 25.0269C39.1989 24.996 39.1989 24.9637 39.1989 24.9302C39.2008 21.9 37.9498 19.1429 35.9269 17.1362C33.9047 15.1309 31.1099 13.8746 28.024 13.8468H28.0247Z" fill="#F05959"/>
<path d="M32.2606 26.3316L28.3179 30.1922L28.3155 30.1946C28.0721 30.433 27.6784 30.433 27.4363 30.1946H27.4375L23.5234 26.3632C23.511 26.3535 23.4998 26.3425 23.4886 26.3316C22.8615 25.7175 22.5486 24.9138 22.5486 24.11C22.5486 23.3063 22.8603 22.5062 23.4824 21.8934L23.4886 21.8873H23.4911C24.1195 21.2732 24.939 20.9668 25.7586 20.9668C26.1734 20.9668 26.5919 21.047 26.9867 21.2063C27.3071 21.3364 27.6089 21.5164 27.8771 21.7474C28.4819 21.227 29.2381 20.9668 29.9919 20.9668C30.4066 20.9668 30.8239 21.047 31.22 21.2076C31.6025 21.362 31.9576 21.5894 32.2619 21.8873C32.889 22.5013 33.2019 23.3051 33.2019 24.1088C33.2007 24.9138 32.8877 25.7187 32.2606 26.3316Z" fill="white"/>
</svg>
