<svg width="56" height="56" viewBox="0 0 56 56" fill="none" xmlns="http://www.w3.org/2000/svg">
<g clip-path="url(#clip0_1822_5682)">
<rect width="56" height="56" rx="28" fill="white"/>
<path d="M36.6616 13.527L35.8371 10.5818C35.663 9.96276 34.8844 9.76686 34.441 10.2311L33.1828 11.5481L28.7021 4.38845C28.3769 3.86987 27.623 3.86987 27.2978 4.38845L22.8171 11.5481L21.5589 10.2311C21.1155 9.76686 20.3369 9.96276 20.1628 10.5818L19.3383 13.527C17.7533 19.1918 21.9072 24.8946 27.7758 24.9999H28.2225C34.0928 24.8946 38.2417 19.1918 36.66 13.527H36.6616Z" fill="#F05986"/>
<path d="M32.4796 17.7952L32.1281 16.5292C32.0066 16.093 31.458 15.9547 31.1459 16.2823L30.6844 16.7663L28.4933 13.2729C28.265 12.909 27.7345 12.909 27.5062 13.2729L25.3168 16.7663L24.8519 16.279C24.5399 15.953 23.9929 16.0897 23.8697 16.5243L23.515 17.7903C22.6937 20.7223 24.8454 23.6741 27.884 23.7284H28.1139C31.1525 23.6774 33.2992 20.7256 32.478 17.7936L32.4796 17.7952Z" fill="#FFF170"/>
<path d="M58.2884 56.6552C58.1159 73.2409 44.578 83.0674 28.0061 82.895C11.4342 82.7227 -1.89637 72.6168 -1.72388 56.0311C-1.55139 39.4454 12.0226 26.1397 28.5946 26.3121C45.1665 26.4844 58.4609 40.0695 58.2884 56.6552Z" fill="#FDD554"/>
<path d="M32.5002 41C33.3273 41 34.0002 40.3013 34.0002 39.4425V37.5575C34.0002 36.6987 33.3273 36 32.5002 36C31.6731 36 31.0002 36.6987 31.0002 37.5575V39.4425C31.0002 40.3013 31.6731 41 32.5002 41Z" fill="#744D2B"/>
<path d="M23.5002 41C24.3273 41 25.0002 40.3013 25.0002 39.4425V37.5575C25.0002 36.6987 24.3273 36 23.5002 36C22.6731 36 22.0002 36.6987 22.0002 37.5575V39.4425C22.0002 40.3013 22.6731 41 23.5002 41Z" fill="#744D2B"/>
<path fill-rule="evenodd" clip-rule="evenodd" d="M24.4368 43.301C24.9609 42.8517 25.7501 42.9124 26.1993 43.4365L28.2503 45.8293L30.3012 43.4365C30.7505 42.9124 31.5396 42.8517 32.0638 43.301C32.5879 43.7502 32.6486 44.5394 32.1993 45.0635L29.1993 48.5635C28.9619 48.8406 28.6152 49 28.2503 49C27.8854 49 27.5387 48.8406 27.3012 48.5635L24.3012 45.0635C23.8519 44.5394 23.9126 43.7502 24.4368 43.301Z" fill="#744D2B"/>
</g>
<rect x="0.75" y="0.75" width="54.5" height="54.5" rx="27.25" stroke="#E56492" stroke-width="1.5"/>
<defs>
<clipPath id="clip0_1822_5682">
<rect width="56" height="56" rx="28" fill="white"/>
</clipPath>
</defs>
</svg>
