<svg width="56" height="56" viewBox="0 0 56 56" fill="none" xmlns="http://www.w3.org/2000/svg">
<g clip-path="url(#clip0_1822_6507)">
<rect width="56" height="56" rx="28" fill="white"/>
<path d="M58.2884 56.6552C58.1159 73.2409 44.578 83.0674 28.0061 82.895C11.4342 82.7227 -1.89637 72.6168 -1.72388 56.0311C-1.55139 39.4454 12.0226 26.1397 28.5946 26.3121C45.1665 26.4844 58.4609 40.0695 58.2884 56.6552Z" fill="#FDD554"/>
<path d="M32.5002 41C33.3273 41 34.0002 40.3013 34.0002 39.4425V37.5575C34.0002 36.6987 33.3273 36 32.5002 36C31.6731 36 31.0002 36.6987 31.0002 37.5575V39.4425C31.0002 40.3013 31.6731 41 32.5002 41Z" fill="#744D2B"/>
<path d="M23.5002 41C24.3273 41 25.0002 40.3013 25.0002 39.4425V37.5575C25.0002 36.6987 24.3273 36 23.5002 36C22.6731 36 22.0002 36.6987 22.0002 37.5575V39.4425C22.0002 40.3013 22.6731 41 23.5002 41Z" fill="#744D2B"/>
<path d="M24.5002 45H31.5002V45.1C31.5002 46.7016 30.2019 48 28.6002 48H27.4002C25.7986 48 24.5002 46.7016 24.5002 45.1V45Z" fill="white"/>
<path fill-rule="evenodd" clip-rule="evenodd" d="M22.5002 45C22.5002 43.8954 23.3957 43 24.5002 43H31.5002C32.6048 43 33.5002 43.8954 33.5002 45V45.1C33.5002 47.8062 31.3064 50 28.6002 50H27.4002C24.694 50 22.5002 47.8062 22.5002 45.1V45ZM25.2093 47C24.7676 46.4911 24.5002 45.8268 24.5002 45.1V45H31.5002V45.1C31.5002 45.8268 31.2329 46.4911 30.7912 47C30.2595 47.6126 29.4751 48 28.6002 48H27.4002C26.5254 48 25.741 47.6126 25.2093 47Z" fill="#744D2B"/>
<mask id="mask0_1822_6507" style="mask-type:luminance" maskUnits="userSpaceOnUse" x="16" y="3" width="24" height="22">
<path d="M38.451 10.4965L32.3333 9.86644C31.9604 9.82706 31.6361 9.59311 31.4832 9.24796L28.993 3.6237C28.6247 2.7921 27.4457 2.7921 27.0773 3.6237L24.5872 9.24796C24.4343 9.59079 24.11 9.82706 23.7371 9.86644L17.6194 10.4965C16.716 10.5892 16.3523 11.7103 17.0287 12.3172L21.6083 16.4242C21.8886 16.6744 22.0113 17.0566 21.9326 17.4226L20.6423 23.436C20.4524 24.3255 21.4044 25.0181 22.192 24.5618L27.5128 21.4763C27.8371 21.2887 28.2379 21.2887 28.5645 21.4763L33.8853 24.5618C34.6706 25.0181 35.6249 24.3255 35.435 23.436L34.1447 17.4226C34.066 17.0543 34.1888 16.6744 34.469 16.4242L39.0486 12.3172C39.725 11.7103 39.3613 10.5892 38.4579 10.4965H38.451Z" fill="white"/>
</mask>
<g mask="url(#mask0_1822_6507)">
<path d="M38.451 10.4965L32.3334 9.86644C31.9604 9.82706 31.6361 9.59311 31.4832 9.24796L28.9931 3.6237C28.6248 2.7921 27.4457 2.7921 27.0774 3.6237L24.5873 9.24796C24.4344 9.59079 24.1101 9.82706 23.7371 9.86644L17.6195 10.4965C16.7161 10.5892 16.3524 11.7103 17.0288 12.3172L21.6083 16.4242C21.8886 16.6744 22.0114 17.0566 21.9326 17.4226L20.6424 23.436C20.4524 24.3255 21.4045 25.0181 22.1921 24.5618L27.5129 21.4763C27.8372 21.2887 28.2379 21.2887 28.5645 21.4763L33.8854 24.5618C34.6706 25.0181 35.625 24.3255 35.435 23.436L34.1448 17.4226C34.066 17.0543 34.1888 16.6744 34.4691 16.4242L39.0487 12.3172C39.7251 11.7103 39.3614 10.5892 38.458 10.4965H38.451Z" fill="#FFE52E"/>
<path d="M28.0341 1.4624V15.1061L31.7288 9.80383L28.0341 1.4624Z" fill="#FFB10C"/>
<path d="M40.8045 10.7397L28.0341 15.1062L34.0128 16.8296L40.8045 10.7397Z" fill="#FFB10C"/>
<path d="M35.9262 25.7501L28.0341 15.1062V21.1729L35.9262 25.7501Z" fill="#FFB10C"/>
<path d="M20.1443 25.7501L28.0341 15.1062L22.0577 16.8296L20.1443 25.7501Z" fill="#FFB10C"/>
<path d="M15.266 10.7398L28.0341 15.1062L24.3417 9.80396L15.266 10.7398Z" fill="#FFB10C"/>
<path d="M40.8045 10.7398L31.7288 9.80396L28.0341 15.1062L40.8045 10.7398Z" fill="#FFD526"/>
<path d="M15.266 10.7397L22.0577 16.8296L28.0341 15.1062L15.266 10.7397Z" fill="#FFD526"/>
</g>
<mask id="mask1_1822_6507" style="mask-type:luminance" maskUnits="userSpaceOnUse" x="16" y="3" width="24" height="22">
<path d="M38.451 10.4965L32.3333 9.86644C31.9604 9.82706 31.6361 9.59311 31.4832 9.24796L28.993 3.6237C28.6247 2.7921 27.4457 2.7921 27.0773 3.6237L24.5872 9.24796C24.4343 9.59079 24.11 9.82706 23.7371 9.86644L17.6194 10.4965C16.716 10.5892 16.3523 11.7103 17.0287 12.3172L21.6083 16.4242C21.8886 16.6744 22.0113 17.0566 21.9326 17.4226L20.6423 23.436C20.4524 24.3255 21.4044 25.0181 22.192 24.5618L27.5128 21.4763C27.8371 21.2887 28.2379 21.2887 28.5645 21.4763L33.8853 24.5618C34.6706 25.0181 35.6249 24.3255 35.435 23.436L34.1447 17.4226C34.066 17.0543 34.1888 16.6744 34.469 16.4242L39.0486 12.3172C39.725 11.7103 39.3613 10.5892 38.4579 10.4965H38.451Z" fill="white"/>
</mask>
<g mask="url(#mask1_1822_6507)">
<path d="M38.451 10.4965L32.3334 9.86644C31.9604 9.82706 31.6361 9.59311 31.4832 9.24796L28.9931 3.6237C28.6248 2.7921 27.4457 2.7921 27.0774 3.6237L24.5873 9.24796C24.4344 9.59079 24.1101 9.82706 23.7371 9.86644L17.6195 10.4965C16.7161 10.5892 16.3524 11.7103 17.0288 12.3172L21.6083 16.4242C21.8886 16.6744 22.0114 17.0566 21.9326 17.4226L20.6424 23.436C20.4524 24.3255 21.4045 25.0181 22.1921 24.5618L27.5129 21.4763C27.8372 21.2887 28.2379 21.2887 28.5645 21.4763L33.8854 24.5618C34.6706 25.0181 35.625 24.3255 35.435 23.436L34.1448 17.4226C34.066 17.0543 34.1888 16.6744 34.4691 16.4242L39.0487 12.3172C39.7251 11.7103 39.3614 10.5892 38.458 10.4965H38.451Z" fill="#99AEF4"/>
<path d="M28.0341 1.4624V15.1061L31.7288 9.80383L28.0341 1.4624Z" fill="#3E4E85"/>
<path d="M40.8045 10.7397L28.0341 15.1062L34.0128 16.8296L40.8045 10.7397Z" fill="#3E4E85"/>
<path d="M35.9262 25.7501L28.0341 15.1062V21.1729L35.9262 25.7501Z" fill="#3E4E85"/>
<path d="M20.1443 25.7501L28.0341 15.1062L22.0577 16.8296L20.1443 25.7501Z" fill="#3E4E85"/>
<path d="M15.266 10.7398L28.0341 15.1062L24.3417 9.80396L15.266 10.7398Z" fill="#3E4E85"/>
<path d="M40.8045 10.7398L31.7288 9.80396L28.0341 15.1062L40.8045 10.7398Z" fill="#4E67B9"/>
<path d="M15.266 10.7397L22.0577 16.8296L28.0341 15.1062L15.266 10.7397Z" fill="#4E67B9"/>
</g>
</g>
<rect x="0.75" y="0.75" width="54.5" height="54.5" rx="27.25" stroke="url(#paint0_linear_1822_6507)" stroke-width="1.5"/>
<rect x="0.75" y="0.75" width="54.5" height="54.5" rx="27.25" stroke="#475CA2" stroke-width="1.5"/>
<defs>
<linearGradient id="paint0_linear_1822_6507" x1="53.8775" y1="30.2701" x2="0.306434" y2="49.3377" gradientUnits="userSpaceOnUse">
<stop stop-color="#7A96AC"/>
<stop offset="0.18" stop-color="#EAEFF3"/>
<stop offset="0.315" stop-color="#C2D4E1"/>
<stop offset="0.491919" stop-color="white"/>
<stop offset="0.615" stop-color="#D4DEE5"/>
<stop offset="0.785" stop-color="#ABBDC8"/>
<stop offset="0.955" stop-color="#BCCAD7"/>
</linearGradient>
<clipPath id="clip0_1822_6507">
<rect width="56" height="56" rx="28" fill="white"/>
</clipPath>
</defs>
</svg>
