<svg width="56" height="56" viewBox="0 0 56 56" fill="none" xmlns="http://www.w3.org/2000/svg">
<g clip-path="url(#clip0_1822_6420)">
<rect width="56" height="56" rx="28" fill="white"/>
<ellipse cx="33.6694" cy="13.9787" rx="6.32835" ry="7.96435" transform="rotate(49.6699 33.6694 13.9787)" fill="#62A76A"/>
<ellipse cx="6.32835" cy="7.96435" rx="6.32835" ry="7.96435" transform="matrix(-0.64719 0.762329 0.762329 0.64719 20.0491 4.29395)" fill="#62A76A"/>
<path fill-rule="evenodd" clip-rule="evenodd" d="M19.7383 12.3342C19.9349 12.154 20.2403 12.1673 20.4204 12.3638C21.2819 13.3036 23.6821 15.528 26.315 16.8445C26.5535 16.9637 26.6501 17.2537 26.5309 17.4922C26.4116 17.7307 26.1217 17.8273 25.8832 17.7081C23.1091 16.3211 20.6174 14.0076 19.7087 13.0163C19.5285 12.8197 19.5418 12.5143 19.7383 12.3342Z" fill="#4A8D52"/>
<path fill-rule="evenodd" clip-rule="evenodd" d="M36.5632 11.851C36.3666 11.6709 36.0613 11.6841 35.8811 11.8807C35.0197 12.8204 32.6194 15.0449 29.9865 16.3613C29.7481 16.4806 29.6514 16.7706 29.7706 17.009C29.8899 17.2475 30.1799 17.3442 30.4183 17.2249C33.1924 15.8379 35.6841 13.5244 36.5928 12.5331C36.773 12.3366 36.7597 12.0312 36.5632 11.851Z" fill="#4A8D52"/>
<path fill-rule="evenodd" clip-rule="evenodd" d="M27.7899 16.5681C28.3142 16.471 28.818 16.8173 28.9151 17.3416C29.3323 19.5948 29.9069 25.4585 28.9172 31.1989C28.8266 31.7243 28.3271 32.0769 27.8016 31.9863C27.2762 31.8957 26.9236 31.3962 27.0142 30.8708C27.9555 25.411 27.4037 19.785 27.0163 17.6933C26.9192 17.1689 27.2656 16.6652 27.7899 16.5681Z" fill="#63A668"/>
<path d="M58.2884 56.6552C58.1159 73.2409 44.578 83.0674 28.0061 82.895C11.4342 82.7227 -1.89637 72.6168 -1.72388 56.0311C-1.55139 39.4454 12.0226 26.1397 28.5946 26.3121C45.1665 26.4844 58.4609 40.0695 58.2884 56.6552Z" fill="#FDD554"/>
<path d="M32.5002 41C33.3273 41 34.0002 40.3013 34.0002 39.4425V37.5575C34.0002 36.6987 33.3273 36 32.5002 36C31.6731 36 31.0002 36.6987 31.0002 37.5575V39.4425C31.0002 40.3013 31.6731 41 32.5002 41Z" fill="#744D2B"/>
<path d="M23.5002 41C24.3273 41 25.0002 40.3013 25.0002 39.4425V37.5575C25.0002 36.6987 24.3273 36 23.5002 36C22.6731 36 22.0002 36.6987 22.0002 37.5575V39.4425C22.0002 40.3013 22.6731 41 23.5002 41Z" fill="#744D2B"/>
<path fill-rule="evenodd" clip-rule="evenodd" d="M24.7502 45C24.7502 44.3096 25.3099 43.75 26.0002 43.75H30.0002C30.6906 43.75 31.2502 44.3096 31.2502 45C31.2502 45.6904 30.6906 46.25 30.0002 46.25H26.0002C25.3099 46.25 24.7502 45.6904 24.7502 45Z" fill="#744D2B"/>
</g>
<rect x="0.75" y="0.75" width="54.5" height="54.5" rx="27.25" stroke="url(#paint0_linear_1822_6420)" stroke-width="1.5"/>
<rect x="0.75" y="0.75" width="54.5" height="54.5" rx="27.25" stroke="#C4D1FF" stroke-opacity="0.5" stroke-width="1.5"/>
<rect x="0.75" y="0.75" width="54.5" height="54.5" rx="27.25" stroke="#8CAA8F" stroke-width="1.5"/>
<defs>
<linearGradient id="paint0_linear_1822_6420" x1="53.8775" y1="30.2701" x2="0.306434" y2="49.3377" gradientUnits="userSpaceOnUse">
<stop stop-color="#7A96AC"/>
<stop offset="0.18" stop-color="#EAEFF3"/>
<stop offset="0.315" stop-color="#C2D4E1"/>
<stop offset="0.491919" stop-color="white"/>
<stop offset="0.615" stop-color="#D4DEE5"/>
<stop offset="0.785" stop-color="#ABBDC8"/>
<stop offset="0.955" stop-color="#BCCAD7"/>
</linearGradient>
<clipPath id="clip0_1822_6420">
<rect width="56" height="56" rx="28" fill="white"/>
</clipPath>
</defs>
</svg>
