<svg width="56" height="56" viewBox="0 0 56 56" fill="none" xmlns="http://www.w3.org/2000/svg">
<g clip-path="url(#clip0_1822_6485)">
<rect width="56" height="56" rx="28" fill="white"/>
<path d="M58.2884 56.6552C58.1159 73.2409 44.578 83.0674 28.0061 82.895C11.4342 82.7227 -1.89637 72.6168 -1.72388 56.0311C-1.55139 39.4454 12.0226 26.1397 28.5946 26.3121C45.1665 26.4844 58.4609 40.0695 58.2884 56.6552Z" fill="#FDD554"/>
<path d="M32.5002 41C33.3273 41 34.0002 40.3013 34.0002 39.4425V37.5575C34.0002 36.6987 33.3273 36 32.5002 36C31.6731 36 31.0002 36.6987 31.0002 37.5575V39.4425C31.0002 40.3013 31.6731 41 32.5002 41Z" fill="#744D2B"/>
<path d="M23.5002 41C24.3273 41 25.0002 40.3013 25.0002 39.4425V37.5575C25.0002 36.6987 24.3273 36 23.5002 36C22.6731 36 22.0002 36.6987 22.0002 37.5575V39.4425C22.0002 40.3013 22.6731 41 23.5002 41Z" fill="#744D2B"/>
<path fill-rule="evenodd" clip-rule="evenodd" d="M34.5367 44.4826C34.9606 45.0276 34.8624 45.8129 34.3175 46.2367C31.7776 48.2122 29.1029 48.6522 26.8309 48.3652C24.6047 48.084 22.7411 47.1037 21.7139 46.1792C21.2007 45.7174 21.1591 44.927 21.6209 44.4139C22.0828 43.9007 22.8731 43.8591 23.3863 44.3209C24.0257 44.8965 25.4121 45.6661 27.1442 45.8849C28.8305 46.0979 30.8225 45.7879 32.7826 44.2634C33.3276 43.8395 34.1129 43.9377 34.5367 44.4826Z" fill="#744D2B"/>
<path d="M35.7038 14.5726L24.112 24.8013C23.5491 25.2868 22.532 24.8037 22.8452 24.1992L27.2557 15.95H21.1984C20.1719 15.95 19.6224 15.0218 20.2965 14.427L31.8883 4.19872C32.4512 3.71319 33.4686 4.19632 33.1554 4.80033L28.7444 13.0495H34.8017C35.8278 13.0495 36.3776 13.9777 35.7036 14.5726H35.7038Z" fill="#FF881B"/>
</g>
<rect x="0.75" y="0.75" width="54.5" height="54.5" rx="27.25" stroke="url(#paint0_linear_1822_6485)" stroke-width="1.5"/>
<rect x="0.75" y="0.75" width="54.5" height="54.5" rx="27.25" stroke="#C4D1FF" stroke-opacity="0.5" stroke-width="1.5"/>
<rect x="0.75" y="0.75" width="54.5" height="54.5" rx="27.25" stroke="#F3953F" stroke-width="1.5"/>
<defs>
<linearGradient id="paint0_linear_1822_6485" x1="53.8775" y1="30.2701" x2="0.306434" y2="49.3377" gradientUnits="userSpaceOnUse">
<stop stop-color="#7A96AC"/>
<stop offset="0.18" stop-color="#EAEFF3"/>
<stop offset="0.315" stop-color="#C2D4E1"/>
<stop offset="0.491919" stop-color="white"/>
<stop offset="0.615" stop-color="#D4DEE5"/>
<stop offset="0.785" stop-color="#ABBDC8"/>
<stop offset="0.955" stop-color="#BCCAD7"/>
</linearGradient>
<clipPath id="clip0_1822_6485">
<rect width="56" height="56" rx="28" fill="white"/>
</clipPath>
</defs>
</svg>
