<svg width="56" height="56" viewBox="0 0 56 56" fill="none" xmlns="http://www.w3.org/2000/svg">
<g clip-path="url(#clip0_1822_3271)">
<rect width="56" height="56" rx="28" fill="white"/>
<path d="M58.2884 56.6552C58.1159 73.2409 44.578 83.0674 28.0061 82.895C11.4342 82.7227 -1.89637 72.6168 -1.72388 56.0311C-1.55139 39.4454 12.0226 26.1397 28.5946 26.3121C45.1665 26.4844 58.4609 40.0695 58.2884 56.6552Z" fill="#FDD554"/>
<path fill-rule="evenodd" clip-rule="evenodd" d="M34.8001 36.4001C35.1314 36.8419 35.0419 37.4687 34.6001 37.8001L33.6667 38.5001L34.6001 39.2001C35.0419 39.5314 35.1314 40.1582 34.8001 40.6001C34.4687 41.0419 33.8419 41.1314 33.4001 40.8001L31.4001 39.3001C31.1483 39.1112 31.0001 38.8148 31.0001 38.5001C31.0001 38.1853 31.1483 37.8889 31.4001 37.7001L33.4001 36.2001C33.8419 35.8687 34.4687 35.9582 34.8001 36.4001Z" fill="#744D2B"/>
<path d="M23.5005 41C24.3277 41 25.0005 40.3013 25.0005 39.4425V37.5575C25.0005 36.6987 24.3277 36 23.5005 36C22.6734 36 22.0005 36.6987 22.0005 37.5575V39.4425C22.0005 40.3013 22.6734 41 23.5005 41Z" fill="#744D2B"/>
<path d="M28 49L25.835 45.25L30.1651 45.25L28 49Z" fill="white"/>
<path fill-rule="evenodd" clip-rule="evenodd" d="M28 51C27.2855 51 26.6253 50.6188 26.268 50L24.1029 46.25C23.7457 45.6312 23.7457 44.8688 24.1029 44.25C24.4602 43.6312 25.1204 43.25 25.835 43.25L30.1651 43.25C30.8796 43.25 31.5399 43.6312 31.8972 44.25C32.2544 44.8688 32.2544 45.6312 31.8972 46.25L29.7321 50C29.3748 50.6188 28.7146 51 28 51ZM28 49L30.1651 45.25L25.835 45.25L28 49Z" fill="#744D2B"/>
<path d="M42.6984 19.2936L40.2109 12.932L34.9703 15.9002L28.0596 8.08862L21.1489 15.9002L15.9083 12.932L13.4208 19.2936L8.97223 17.7702L11.6318 24.9998H28.0596H44.4874L47.147 17.7702L42.6984 19.2936Z" fill="#DD3636"/>
<path d="M21.1489 15.9002L17.047 20.5335L13.4208 19.2936L8.97223 17.7702L11.6318 24.9998H28.0596V8.08862L21.1489 15.9002Z" fill="#FF8D8D"/>
<path d="M42.6989 19.2936L39.0727 20.5335L34.9708 15.9002L28.0601 8.08862V24.9998H44.4879L47.1474 17.7702L42.6989 19.2936Z" fill="#F35959"/>
<path d="M7.65407 17.5905C8.57086 17.5905 9.31406 16.8473 9.31406 15.9305C9.31406 15.0137 8.57086 14.2705 7.65407 14.2705C6.73728 14.2705 5.99408 15.0137 5.99408 15.9305C5.99408 16.8473 6.73728 17.5905 7.65407 17.5905Z" fill="#FF8D8D"/>
<path d="M15.1997 12.0741C16.1165 12.0741 16.8597 11.3309 16.8597 10.4141C16.8597 9.49735 16.1165 8.75415 15.1997 8.75415C14.2829 8.75415 13.5397 9.49735 13.5397 10.4141C13.5397 11.3309 14.2829 12.0741 15.1997 12.0741Z" fill="#DD3636"/>
<path d="M48.4657 17.5905C49.3824 17.5905 50.1256 16.8473 50.1256 15.9305C50.1256 15.0137 49.3824 14.2705 48.4657 14.2705C47.5489 14.2705 46.8057 15.0137 46.8057 15.9305C46.8057 16.8473 47.5489 17.5905 48.4657 17.5905Z" fill="#F35959"/>
<path d="M40.9195 12.0741C41.8363 12.0741 42.5795 11.3309 42.5795 10.4141C42.5795 9.49735 41.8363 8.75415 40.9195 8.75415C40.0027 8.75415 39.2595 9.49735 39.2595 10.4141C39.2595 11.3309 40.0027 12.0741 40.9195 12.0741Z" fill="#DD3636"/>
<path d="M25.8758 5.1838C25.8758 6.39084 26.8526 7.3676 28.0596 7.3676V3C26.8526 3 25.8758 3.97676 25.8758 5.1838Z" fill="#FF8D8D"/>
<path d="M28.0601 3V7.3676C29.2671 7.3676 30.2439 6.39084 30.2439 5.1838C30.2439 3.97676 29.2671 3 28.0601 3Z" fill="#F35959"/>
<path d="M32.6391 15.4262L28.1111 18.5513L30.1264 14.2089C30.9244 14.1755 31.7335 14.4687 32.3459 15.0811C32.4573 15.1924 32.5538 15.3075 32.6391 15.4262Z" fill="#FFEC44"/>
<path d="M32.7168 18.8631L28.1146 18.5514L32.6389 15.4263C33.3849 16.4358 33.4146 17.8165 32.7131 18.8631H32.7168Z" fill="#FFD600"/>
<path d="M32.7168 18.8628C32.6129 19.0187 32.4867 19.1746 32.3457 19.3119L30.2672 21.3866L28.1146 18.551L32.7168 18.8628Z" fill="#FFB800"/>
<path d="M30.2672 21.3866L28.315 23.3389C28.2036 23.4539 28.0218 23.4539 27.9067 23.3389L27.0234 22.4555L28.1146 18.551L30.2672 21.3866Z" fill="#FFA800"/>
<path d="M30.1266 14.2087L28.1112 18.5512L27.0089 14.3795C27.4135 14.5168 27.7883 14.7543 28.1112 15.0772C28.6717 14.5131 29.3991 14.2236 30.1266 14.2087Z" fill="#FFF97D"/>
<path d="M28.1111 18.5512L24.1732 14.8212C24.9934 14.1828 26.066 14.038 27.005 14.3795H27.0125L28.1148 18.5512H28.1111Z" fill="#FFEC44"/>
<path d="M28.1109 18.5511L23.0113 17.4599C22.9371 16.6063 23.2266 15.7341 23.8761 15.0809C23.9689 14.9881 24.0654 14.9027 24.1693 14.821L28.1072 18.5511H28.1109Z" fill="#FFD600"/>
<path d="M28.1111 18.5511L27.0199 22.4557L23.88 19.312C23.3641 18.7998 23.0709 18.1355 23.0115 17.46L28.1111 18.5511Z" fill="#FFB800"/>
</g>
<rect x="0.75" y="0.75" width="54.5" height="54.5" rx="27.25" stroke="#E34646" stroke-width="1.5"/>
<defs>
<clipPath id="clip0_1822_3271">
<rect width="56" height="56" rx="28" fill="white"/>
</clipPath>
</defs>
</svg>
