<svg width="90" height="90" viewBox="0 0 90 90" fill="none" xmlns="http://www.w3.org/2000/svg">
<rect width="90" height="90" rx="10" fill="#F3F3F3"/>
<path d="M34.5 50.8334L40.0626 44.3436C40.557 43.7668 40.8043 43.4785 41.0977 43.3745C41.3552 43.2832 41.6363 43.2852 41.8925 43.38C42.1844 43.4881 42.4276 43.7798 42.9139 44.3634L46.0247 48.0964C46.4786 48.641 46.7056 48.9134 46.9816 49.0228C47.2241 49.119 47.4916 49.1311 47.7418 49.0573C48.0266 48.9733 48.2773 48.7226 48.7786 48.2213L49.3585 47.6414C49.8689 47.131 50.1241 46.8758 50.413 46.7924C50.6667 46.7192 50.9379 46.7342 51.182 46.835C51.4599 46.9498 51.6852 47.2317 52.1361 47.7953L55.5 52.0001M55.5 38.2333V51.7666C55.5 53.0734 55.5002 53.7269 55.2459 54.226C55.0222 54.6651 54.6648 55.0219 54.2258 55.2456C53.7266 55.5 53.0737 55.5 51.7669 55.5H38.2336C36.9268 55.5 36.2729 55.5 35.7738 55.2456C35.3347 55.0219 34.978 54.6651 34.7543 54.226C34.5 53.7269 34.5 53.0734 34.5 51.7666V38.2333C34.5 36.9265 34.5 36.2732 34.7543 35.774C34.978 35.335 35.3347 34.978 35.7738 34.7543C36.2729 34.5 36.9268 34.5 38.2336 34.5H51.7669C53.0737 34.5 53.7266 34.5 54.2258 34.7543C54.6648 34.978 55.0222 35.335 55.2459 35.774C55.5002 36.2732 55.5 36.9265 55.5 38.2333ZM48.5 41.5C47.8557 41.5 47.3333 40.9777 47.3333 40.3333C47.3333 39.689 47.8557 39.1667 48.5 39.1667C49.1443 39.1667 49.6667 39.689 49.6667 40.3333C49.6667 40.9777 49.1443 41.5 48.5 41.5Z" stroke="#666666" stroke-width="1.5" stroke-linecap="round" stroke-linejoin="round"/>
<ellipse cx="48.5002" cy="40.3334" rx="1.16667" ry="1.16667" fill="#666666"/>
</svg>
