<svg width="100" height="24" viewBox="0 0 100 24" fill="none" xmlns="http://www.w3.org/2000/svg">
<path d="M77.6892 23.1901C76.9441 23.7173 75.9403 23.0528 76.1345 22.161L78.0762 13.2448C78.2258 12.5578 79.019 12.2356 79.6053 12.6237L85.1125 16.2691C85.6988 16.6572 85.7122 17.5132 85.1382 17.9193L77.6892 23.1901Z" fill="#414658"/>
<rect width="100" height="18" rx="9" fill="#414658"/>
<path d="M13.8488 5.07873V13.8287H12.9579V9.27072H11.8805V13.3971H11V5.24793H11.8805V8.50414H12.9579V5.07873H13.8488ZM6.61809 11.5221V6.06284H10.0159V11.5221H6.61809ZM7.49171 10.7866H9.14572V6.79834H7.49171V10.7866ZM22.9437 10.0097V10.7659H19.3905V13.8253H18.4789V10.7659H14.9672V10.0097H22.9437ZM15.4126 8.61464C17.0459 8.39365 18.3995 7.41644 18.4306 6.33909H15.7061V5.60014H22.1944V6.33909H19.4803C19.501 7.41644 20.8511 8.39365 22.5017 8.61464L22.1598 9.34668C20.7268 9.12224 19.4872 8.41436 18.952 7.41644C18.4167 8.41436 17.1771 9.12224 15.7614 9.34668L15.4126 8.61464ZM33.3302 5.08564V10.2169H32.3978V9.79558H30.692V9.21202H32.3978V5.08564H33.3302ZM26.027 8.31423C27.7224 8.31768 29.8633 8.30041 31.7487 8.10359L31.8039 8.69751C30.9752 8.81146 30.1188 8.88052 29.2797 8.92541V10.2376H28.3647V8.95994C27.5774 8.98412 26.8177 8.98412 26.134 8.98066L26.027 8.31423ZM26.6796 6.55318C26.6796 5.75207 27.5463 5.23757 28.8723 5.23757C30.1741 5.23757 31.0477 5.75207 31.0546 6.55318C31.0477 7.37155 30.1741 7.86188 28.8723 7.86188C27.5463 7.86188 26.6796 7.37155 26.6796 6.55318ZM27.3391 11.1595V10.5104H33.3302V12.3992H28.2853V13.0725H33.5926V13.7459H27.3737V11.7776H32.4082V11.1595H27.3391ZM27.5567 6.55318C27.5498 6.97099 28.0643 7.24033 28.8723 7.24033C29.6665 7.24033 30.181 6.97099 30.181 6.55318C30.181 6.13536 29.6665 5.86257 28.8723 5.86257C28.0643 5.86257 27.5498 6.13536 27.5567 6.55318ZM42.7013 11.971V12.7376H34.6937V11.971H36.6102V9.68163C35.8885 9.28798 35.4499 8.65953 35.4499 7.87569C35.4499 6.49793 36.8001 5.59323 38.6751 5.58633C40.557 5.59323 41.9106 6.49793 41.9106 7.87569C41.9106 8.64917 41.4859 9.26727 40.7814 9.66436V11.971H42.7013ZM36.3512 7.87569C36.3512 8.81146 37.3042 9.42265 38.6751 9.42265C40.039 9.42265 41.0059 8.81146 41.0059 7.87569C41.0059 6.92956 40.039 6.32873 38.6751 6.33564C37.3042 6.32873 36.3512 6.92956 36.3512 7.87569ZM37.5218 11.971H39.8457V10.02C39.4865 10.1029 39.0929 10.1478 38.6751 10.1478C38.2607 10.1478 37.874 10.1029 37.5218 10.0235V11.971ZM45.8156 5.37914C47.1312 5.3826 48.1015 6.19061 48.1084 7.34047C48.1015 8.48688 47.1312 9.28798 45.8156 9.28798C44.4827 9.28798 43.5124 8.48688 43.5124 7.34047C43.5124 6.19061 44.4827 5.3826 45.8156 5.37914ZM44.4171 7.34047C44.4102 8.0587 45.0076 8.53522 45.8156 8.53522C46.6167 8.53522 47.2106 8.0587 47.2106 7.34047C47.2106 6.62569 46.6167 6.14572 45.8156 6.14917C45.0076 6.14572 44.4102 6.62569 44.4171 7.34047ZM44.8384 10.6727V9.93715H50.5946V12.1367H45.7672V12.9758H50.8812V13.7182H44.866V11.4461H49.6726V10.6727H44.8384ZM49.6657 9.53315V5.07873H50.5946V9.53315H49.6657ZM61.5266 5.92127V6.85359C61.5197 7.95856 61.5197 9.10843 61.209 10.7831L60.2974 10.6865C60.6012 9.10152 60.6012 7.93094 60.6012 6.85359V6.67403H55.2387V5.92127H61.5266ZM54.4203 12.6478V11.8812H56.3022V9.04282H57.2276V11.8812H58.488V9.04282H59.3996V11.8812H62.3968V12.6478H54.4203ZM69.9448 5.07873V8.07597H71.1913V8.8529H69.9448V11.9192H69.0194V5.07873H69.9448ZM63.0007 10.2203C63.6741 10.2203 64.4648 10.2134 65.2901 10.1858V9.57804C64.2921 9.46409 63.6568 8.98412 63.6637 8.26243C63.6568 7.41298 64.489 6.90539 65.7424 6.91229C66.9993 6.90539 67.8212 7.41298 67.8281 8.26243C67.8212 8.98066 67.2031 9.45718 66.2155 9.57804V10.1443C66.9993 10.0994 67.7901 10.0269 68.5221 9.91298L68.5946 10.5691C66.7334 10.9178 64.6271 10.9454 63.1043 10.9593L63.0007 10.2203ZM63.2252 6.57735V5.89019H65.2901V5.0511H66.2155V5.89019H68.2735V6.57735H63.2252ZM64.2852 13.6492V11.4599H65.2176V12.8895H70.259V13.6492H64.2852ZM64.5477 8.26243C64.5442 8.69061 65 8.95649 65.7424 8.95649C66.4848 8.95649 66.9406 8.69061 66.9406 8.26243C66.9406 7.81008 66.4848 7.54765 65.7424 7.54765C65 7.54765 64.5442 7.81008 64.5477 8.26243ZM80.9632 5.07873V8.5663H82.3202V9.34323H80.9632V13.8184H80.0343V5.07873H80.9632ZM74.1503 11.4876C76.3464 10.393 77.5343 8.81146 77.7311 6.77072H74.5888V6.00414H78.6738C78.6669 8.52831 77.5515 10.7866 74.6683 12.2058L74.1503 11.4876ZM89.8613 7.44061V8.19337H83.853V5.24102H84.7715V7.44061H89.8613ZM82.7894 9.88536V9.12569H90.7763V9.88536H82.7894ZM83.7321 12.192C83.7321 11.1699 84.8716 10.5932 86.7673 10.5932C88.6527 10.5932 89.7853 11.1699 89.7922 12.192C89.7853 13.2175 88.6527 13.7907 86.7673 13.7907C84.8716 13.7907 83.7321 13.2175 83.7321 12.192ZM84.6748 12.192C84.6679 12.7514 85.431 13.076 86.7673 13.0725C88.0898 13.076 88.8599 12.7514 88.8668 12.192C88.8599 11.6257 88.0898 11.3253 86.7673 11.3218C85.431 11.3253 84.6679 11.6257 84.6748 12.192ZM93.0446 5.92818L92.9548 10.9627H91.9914L91.9016 5.92818H93.0446ZM91.7842 12.375C91.7773 11.9952 92.095 11.6844 92.4783 11.6844C92.8512 11.6844 93.1689 11.9952 93.1689 12.375C93.1689 12.7548 92.8512 13.0656 92.4783 13.0656C92.095 13.0656 91.7773 12.7548 91.7842 12.375Z" fill="white"/>
</svg>
