<svg width="18" height="18" viewBox="0 0 18 18" fill="none" xmlns="http://www.w3.org/2000/svg">
<path d="M15.3638 2.63625C16.9925 4.265 18 6.515 18 9C18 11.485 16.9925 13.7354 15.3638 15.3638C13.735 16.9925 11.485 18 9 18C6.515 18 4.26458 16.9925 2.63625 15.3638C1.0075 13.735 0 11.485 0 9C0 6.515 1.0075 4.26458 2.63625 2.63625C4.265 1.0075 6.515 0 9 0C11.485 0 13.7354 1.0075 15.3638 2.63625Z" fill="#FFCD36"/>
<path d="M8.81958 0.00208333C8.87958 0.000833333 8.93958 0 8.99999 0C9.06041 0 9.12041 0.000833333 9.18041 0.00208333V0.854583C9.18041 0.954167 9.09958 1.035 8.99999 1.035C8.90041 1.035 8.81958 0.954167 8.81958 0.854583V0.00208333Z" fill="#FFB931"/>
<path d="M9.18041 17.9978C9.12041 17.999 9.06041 17.9998 8.99999 17.9998C8.93958 17.9998 8.87958 17.999 8.81958 17.9978V17.1453C8.81958 17.0457 8.90041 16.9648 8.99999 16.9648C9.09958 16.9648 9.18041 17.0457 9.18041 17.1453V17.9978Z" fill="#FFB931"/>
<path d="M15.3638 2.63602C15.4063 2.67852 15.4483 2.72143 15.49 2.76477L14.8846 3.37018C14.8142 3.4406 14.7 3.4406 14.6296 3.37018C14.5592 3.29977 14.5592 3.1856 14.6296 3.11518L15.235 2.50977C15.2783 2.55143 15.3217 2.59352 15.3638 2.63602Z" fill="#FFB931"/>
<path d="M2.765 15.4899C2.72166 15.4482 2.67875 15.4061 2.63625 15.3636C2.59375 15.3211 2.55166 15.2782 2.51 15.2349L3.11542 14.6295C3.18583 14.5591 3.3 14.5591 3.37041 14.6295C3.44083 14.6999 3.44083 14.8141 3.37041 14.8845L2.765 15.4899Z" fill="#FFB931"/>
<path d="M17.9979 8.81982C17.9992 8.87982 18 8.93982 18 9.00024C18 9.06066 17.9992 9.12066 17.9979 9.18066H17.1454C17.0458 9.18066 16.965 9.09982 16.965 9.00024C16.965 8.90066 17.0458 8.81982 17.1454 8.81982H17.9979Z" fill="#FFB931"/>
<path d="M0.0020841 9.18066C0.000834096 9.12066 0 9.06066 0 9.00024C0 8.93982 0.000834096 8.87982 0.0020841 8.81982H0.854584C0.954167 8.81982 1.035 8.90066 1.035 9.00024C1.035 9.09982 0.954167 9.18066 0.854584 9.18066H0.0020841Z" fill="#FFB931"/>
<path d="M15.49 15.2349C15.4483 15.2782 15.4063 15.3211 15.3638 15.3636C15.3213 15.4061 15.2783 15.4482 15.235 15.4899L14.6296 14.8845C14.5592 14.8141 14.5592 14.6999 14.6296 14.6295C14.7 14.5591 14.8142 14.5591 14.8846 14.6295L15.49 15.2349Z" fill="#FFB931"/>
<path d="M2.51 2.76477C2.55166 2.72143 2.59375 2.67852 2.63625 2.63602C2.67875 2.59352 2.72166 2.55143 2.765 2.50977L3.37041 3.11518C3.44083 3.1856 3.44083 3.29977 3.37041 3.37018C3.3 3.4406 3.18583 3.4406 3.11542 3.37018L2.51 2.76477Z" fill="#FFB931"/>
<path d="M14.1158 3.8843C15.425 5.19347 16.235 7.00222 16.235 9.00014C16.235 10.9981 15.425 12.8068 14.1158 14.116C12.8067 15.4251 10.9979 16.2351 9 16.2351C7.00209 16.2351 5.19334 15.4251 3.88417 14.116C2.575 12.8068 1.765 10.9981 1.765 9.00014C1.765 7.00222 2.575 5.19347 3.88417 3.8843C5.19334 2.57514 7.00209 1.76514 9 1.76514C10.9979 1.76514 12.8067 2.57472 14.1158 3.8843Z" fill="#FFB931"/>
<path fill-rule="evenodd" clip-rule="evenodd" d="M5.18209 5.00514C6.49167 3.69597 8.30042 2.88597 10.2983 2.88597C11.7967 2.88597 13.1883 3.34139 14.3429 4.12139C14.2692 4.04055 14.1933 3.96139 14.1163 3.8843C12.8067 2.57472 10.9979 1.76514 9 1.76514C7.00209 1.76514 5.19334 2.57514 3.88417 3.8843C2.575 5.19347 1.765 7.00222 1.765 9.00014C1.765 10.9981 2.575 12.8068 3.88417 14.116C4.21167 14.4435 4.57042 14.7397 4.95542 14.9997C3.78 13.7131 3.06292 12.001 3.06292 10.121C3.06292 8.12347 3.87292 6.31472 5.18209 5.00514Z" fill="#FFA72C"/>
<path d="M13.5 6.31251L10.9098 10.4859H13.5V11.6998H9L11.5902 7.4992H9V6.2998H13.5V6.31069V6.31251Z" fill="white" stroke="white" stroke-width="0.2"/>
<path d="M4.50005 11.6998H5.79317V7.98171C5.79395 7.85448 5.84611 7.73258 5.93852 7.64204C6.03107 7.55226 6.15668 7.50168 6.28776 7.50143H8.1V6.2998H5.70822C5.38376 6.30557 5.07478 6.43506 4.84851 6.6601C4.62225 6.88513 4.49701 7.18751 4.50005 7.50143V11.6998Z" fill="white" stroke="white" stroke-width="0.2"/>
</svg>
