<svg width="32" height="16" viewBox="0 0 32 16" fill="none" xmlns="http://www.w3.org/2000/svg">
<rect y="0.5" width="32" height="15" rx="7.5" fill="#FFE9E9"/>
<path d="M7.108 10.5V4.9H7.748L8.028 5.956V10.5H7.108ZM10.988 10.5L7.636 6.124L7.748 4.9L11.1 9.276L10.988 10.5ZM10.988 10.5L10.708 9.516V4.9H11.628V10.5H10.988ZM12.8424 10.5V4.9H13.7624V10.5H12.8424ZM13.4744 10.5V9.66H16.6104V10.5H13.4744ZM13.4744 8.044V7.236H16.3384V8.044H13.4744ZM13.4744 5.74V4.9H16.5704V5.74H13.4744ZM19.0011 10.5L17.1611 4.9H18.0651L19.4491 9.212H19.2091L20.5611 4.9H21.2011L22.5531 9.212H22.3131L23.6971 4.9H24.6011L22.7611 10.5H22.1211L20.7611 6.196H21.0011L19.6411 10.5H19.0011Z" fill="#C42F2F"/>
</svg>
