<svg width="18" height="18" viewBox="0 0 18 18" fill="none" xmlns="http://www.w3.org/2000/svg">
<path d="M5.15513 10.4268C5.15513 10.0088 4.86938 9.66934 4.51739 9.66934C3.41828 9.66934 2.87297 9.45068 1.96873 9.45068C1.61674 9.45068 1.33099 9.78918 1.33099 10.2082L1.3387 15.7322C1.34024 16.3607 1.55436 16.9288 1.90095 17.3396C2.24678 17.7494 2.72432 18.0019 3.25269 18.0001C3.78183 17.9983 4.26013 17.7439 4.60596 17.3323C4.95102 16.9215 5.1636 16.3543 5.16206 15.7267L5.15513 10.4268Z" fill="#646A7F"/>
<path d="M5.64491 4.4122L12.4036 1.54043C12.7363 1.39863 13.1029 1.60447 13.2215 1.9997C13.2539 2.10673 13.2647 2.21652 13.2562 2.32264L13.2724 13.2745H13.2747C13.2747 13.6944 12.9897 14.0348 12.6362 14.0357C12.5468 14.0357 12.4613 14.0146 12.3843 13.9753L5.63412 11.1392C5.35299 11.0221 5.18432 10.6937 5.20973 10.3561L5.20203 5.13677H5.19972C5.19895 4.79827 5.38611 4.51009 5.64568 4.4122H5.64491Z" fill="#FFD75D"/>
<path d="M14.4301 10.5081C14.4301 10.9262 14.715 11.2656 15.0678 11.2656C15.8773 11.2647 16.6106 10.8749 17.1412 10.2446C17.6719 9.61426 18 8.74422 18 7.78453C18 6.82483 17.6719 5.95114 17.1405 5.32079C16.6098 4.69045 15.8758 4.2998 15.0663 4.2998H15.0647C14.7112 4.2998 14.4247 4.64013 14.4247 5.06006C14.4239 6.21279 14.4301 9.34072 14.4301 10.5081Z" fill="#FFD75D"/>
<path d="M12.6161 0.00823346L15.0038 0.00274449C15.0223 0.000914754 15.0416 0 15.0608 0C15.4143 0 15.7009 0.339415 15.7009 0.759338H15.6985L15.7063 14.6964C15.7078 14.7184 15.7086 14.7403 15.7086 14.7623C15.7093 15.1822 15.4236 15.5225 15.0701 15.5234L15.0685 15.5207L12.6932 15.5262C12.6747 15.528 12.6554 15.5289 12.6369 15.5289C12.2834 15.5299 11.9969 15.1895 11.9961 14.7705H11.9984L11.9784 0.834357C11.9769 0.812401 11.9761 0.790444 11.9761 0.767573C11.9761 0.347649 12.2611 0.0073189 12.6146 0.00640403L12.6161 0.00823346Z" fill="#F05959"/>
<path d="M2.85983 4.38564C3.84879 4.36826 4.85931 4.328 5.8475 4.32617V11.2298L2.86753 11.1877C2.07728 11.1895 1.36098 10.8107 0.842624 10.1969C0.323497 9.58208 0.00154599 8.73217 5.55616e-06 7.79077C-0.00153488 6.85212 0.317335 6.00129 0.834152 5.38559C1.35174 4.76988 2.06804 4.38747 2.85983 4.38564Z" fill="#F05959"/>
</svg>
