<svg width="24" height="24" viewBox="0 0 24 24" fill="none" xmlns="http://www.w3.org/2000/svg">
<path d="M1 7.17578V9.76255C1 11.399 4.13671 12.7292 8 12.7292C11.8633 12.7292 15 11.399 15 9.76255V7.17578" stroke="#DD3636" stroke-width="1.5" stroke-miterlimit="10"/>
<path d="M1 5.93799V10.0248" stroke="#DD3636" stroke-width="1.5" stroke-miterlimit="10"/>
<path d="M10.5519 8.73877V12.5106" stroke="#DD3636" stroke-width="1.5" stroke-miterlimit="10"/>
<path d="M14.9913 5.93848V9.76278" stroke="#DD3636" stroke-width="1.5" stroke-miterlimit="10"/>
<path d="M1 11.0225V13.6092C1 15.2457 4.13671 16.5759 8 16.5759C11.8633 16.5759 15 15.2457 15 13.6092V11.0225" stroke="#DD3636" stroke-width="1.5" stroke-miterlimit="10"/>
<path d="M1 8.85156V13.8717" stroke="#DD3636" stroke-width="1.5" stroke-miterlimit="10"/>
<path d="M10.5519 12.5854V16.3572" stroke="#DD3636" stroke-width="1.5" stroke-miterlimit="10"/>
<path d="M14.9913 9.78516V13.6095" stroke="#DD3636" stroke-width="1.5" stroke-miterlimit="10"/>
<path d="M8 8.90504C11.866 8.90504 15 7.57681 15 5.93836C15 4.29991 11.866 2.97168 8 2.97168C4.13401 2.97168 1 4.29991 1 5.93836C1 7.57681 4.13401 8.90504 8 8.90504Z" stroke="#DD3636" stroke-width="1.5" stroke-miterlimit="10"/>
<circle cx="15" cy="13" r="8" fill="white" stroke="#DD3636" stroke-width="1.5"/>
<path d="M19.5716 10.1565L16.9402 14.5728H19.5716V15.8574H15.0001L17.6314 11.4123H15.0001V10.1431H19.5716V10.1546V10.1565Z" fill="#DD3636" stroke="#DD3636" stroke-width="0.2"/>
<path d="M10.4286 15.8574H11.6602V11.9229C11.6609 11.7882 11.7106 11.6592 11.7986 11.5634C11.8868 11.4684 12.0064 11.4149 12.1312 11.4146H13.8572V10.1431H11.5793C11.2703 10.1492 10.976 10.2862 10.7605 10.5243C10.545 10.7625 10.4257 11.0824 10.4286 11.4146V15.8574Z" fill="#DD3636" stroke="#DD3636" stroke-width="0.2"/>
</svg>
