<svg width="12" height="12" viewBox="0 0 12 12" fill="none" xmlns="http://www.w3.org/2000/svg">
<g clip-path="url(#clip0_1620_1890)">
<path d="M6 7.875L7.875 6M7.875 6L6 4.125M7.875 6L1 6M1 9.125C1 9.70743 1 9.99864 1.09515 10.2284C1.22202 10.5346 1.4655 10.778 1.77179 10.9049C2.0015 11 2.29257 11 2.875 11H9C9.70007 11 10.05 11 10.3174 10.8637C10.5526 10.7439 10.744 10.5527 10.8639 10.3175C11.0001 10.0501 11 9.70004 11 8.99997V2.99997C11 2.2999 11.0001 1.94992 10.8639 1.68253C10.744 1.44732 10.5526 1.25608 10.3174 1.13624C10.05 1 9.70007 1 9 1H2.875C2.29257 1 2.0015 1 1.77179 1.09515C1.4655 1.22202 1.22202 1.46535 1.09515 1.77164C1 2.00135 1 2.29256 1 2.87499" stroke="#C42F2F" stroke-linecap="round" stroke-linejoin="round"/>
</g>
<defs>
<clipPath id="clip0_1620_1890">
<rect width="12" height="12" fill="white"/>
</clipPath>
</defs>
</svg>
