<svg width="24" height="24" viewBox="0 0 24 24" fill="none" xmlns="http://www.w3.org/2000/svg">
<path d="M20.3532 9.39951L19.9869 9.19422C19.93 9.16234 19.9015 9.14634 19.874 9.12976C19.6008 8.96492 19.3707 8.73675 19.2027 8.46427C19.1858 8.43685 19.1692 8.40852 19.1366 8.35169C19.104 8.29479 19.0876 8.26621 19.0724 8.23771C18.9217 7.95423 18.8406 7.63856 18.8357 7.31702C18.8353 7.28805 18.8358 7.25841 18.8367 7.2053L18.837 7.18588L18.844 6.76567C18.8556 6.07437 18.8613 5.72878 18.7652 5.41886C18.6802 5.14469 18.5382 4.89192 18.3483 4.67761C18.1341 4.43578 17.8371 4.26337 17.2444 3.91936L17.2413 3.91756L16.7473 3.63082C16.1542 3.28656 15.8576 3.11451 15.5427 3.04887C15.2642 2.99079 14.9765 2.99312 14.699 3.05588C14.3861 3.12664 14.0934 3.30314 13.5091 3.65555L13.5047 3.65825L13.1507 3.87174C13.0947 3.90549 13.0664 3.92233 13.0383 3.93804C12.76 4.09395 12.4487 4.1807 12.1303 4.19099C12.0983 4.19203 12.0656 4.19203 12.0003 4.19203H11.9995C11.9347 4.19203 11.9024 4.19203 11.8704 4.19099C11.5514 4.18066 11.2391 4.09351 10.9603 3.93696C10.9332 3.92176 10.9063 3.90549 10.8542 3.874L10.8482 3.87034L10.4919 3.65493L10.4893 3.65331C9.90147 3.29785 9.60729 3.11995 9.29275 3.04887C9.01407 2.98588 8.72501 2.98377 8.44543 3.04259C8.1294 3.10908 7.83189 3.28299 7.23713 3.63069L6.74928 3.9159C6.15761 4.2618 5.8622 4.43468 5.64875 4.67667C5.45992 4.89077 5.31848 5.14295 5.234 5.4164C5.1385 5.72549 5.14389 6.07004 5.1554 6.75903L5.16254 7.18695C5.16363 7.25175 5.16435 7.28418 5.16388 7.31605C5.15914 7.63825 5.07769 7.95458 4.92652 8.23857C4.91157 8.26665 4.89546 8.29474 4.86329 8.35083L4.86329 8.35084C4.8311 8.40698 4.81502 8.43498 4.79832 8.46208C4.62953 8.73601 4.39797 8.96525 4.12305 9.13038C4.09586 9.14671 4.06794 9.16242 4.01163 9.19385L3.64993 9.39576L3.64979 9.39583C3.04808 9.73171 2.74728 9.89962 2.5284 10.1388C2.33475 10.3505 2.18812 10.6015 2.09882 10.8749C1.99801 11.1835 1.99879 11.5296 2.00035 12.2208L2.00036 12.2235L2.00164 12.79L2.00165 12.7961C2.00319 13.4804 2.00397 13.8235 2.10483 14.1296C2.19433 14.4011 2.34023 14.6503 2.53279 14.8607C2.75022 15.0982 3.04862 15.2654 3.64457 15.5994L3.64651 15.6005L4.00499 15.8013L4.00996 15.8041C4.06768 15.8365 4.09745 15.8532 4.12606 15.8705C4.39848 16.0357 4.62755 16.2641 4.79491 16.5364C4.81298 16.5659 4.83034 16.5964 4.86505 16.6575C4.89933 16.7178 4.91666 16.748 4.93252 16.7782C5.07925 17.058 5.15854 17.3687 5.16389 17.6851C5.16447 17.7193 5.16393 17.7541 5.16277 17.8236L5.15589 18.2342L5.15586 18.2358C5.14429 18.9261 5.1385 19.2715 5.23449 19.5812C5.31946 19.8554 5.46183 20.108 5.65168 20.3224C5.86629 20.5646 6.16332 20.7373 6.75807 21.0826L7.25197 21.3692C7.84505 21.7135 8.14203 21.8856 8.45689 21.9512C8.73545 22.0093 9.02302 22.0069 9.30057 21.9441C9.61362 21.8733 9.90635 21.6968 10.4911 21.3441L10.4949 21.3418L10.8488 21.1283C10.9048 21.0945 10.933 21.0777 10.9611 21.062C11.2395 20.9061 11.5506 20.8193 11.8689 20.809C11.901 20.808 11.9337 20.808 11.9989 20.808C12.0643 20.808 12.0975 20.808 12.1296 20.809C12.4487 20.8194 12.7605 20.9065 13.0393 21.063C13.0674 21.0788 13.0956 21.0958 13.1517 21.1297L13.5079 21.3451L13.5086 21.3455C14.0977 21.7018 14.3923 21.8799 14.7072 21.9511C14.9859 22.014 15.2744 22.0163 15.554 21.9575C15.87 21.891 16.1677 21.7171 16.7625 21.3694L17.2503 21.0842C17.842 20.7383 18.1375 20.5654 18.3509 20.3234C18.5397 20.1093 18.6812 19.8571 18.7657 19.5837C18.8612 19.2746 18.8557 18.93 18.8441 18.2411L18.837 17.8131L18.8366 17.7912C18.8358 17.7406 18.8353 17.7122 18.8357 17.6841C18.8404 17.3619 18.9218 17.0455 19.0729 16.7615C19.0879 16.7334 19.104 16.7053 19.1361 16.6493L19.1362 16.6492C19.1683 16.5931 19.1847 16.565 19.2014 16.5379C19.3702 16.264 19.6015 16.0349 19.8765 15.8697C19.9028 15.8539 19.9301 15.8387 19.9828 15.8092L19.9883 15.8062L20.35 15.6043C20.9518 15.2684 21.2525 15.1004 21.4714 14.8612C21.665 14.6496 21.8114 14.3986 21.9007 14.1252C22.0016 13.8161 22.0012 13.4696 21.9997 12.7766L21.9984 12.2101C21.9968 11.5217 21.996 11.1774 21.8948 10.8704C21.8053 10.5989 21.6593 10.3497 21.4667 10.1393C21.2491 9.90153 20.9505 9.73418 20.3532 9.39951Z" stroke="#222222" stroke-width="1.5" stroke-linecap="round" stroke-linejoin="round"/>
<path d="M7.99829 12.5C7.99829 14.7261 9.78985 16.5307 11.9998 16.5307C14.2098 16.5307 16.0014 14.7261 16.0014 12.5C16.0014 10.2739 14.2098 8.46924 11.9998 8.46924C9.78985 8.46924 7.99829 10.2739 7.99829 12.5Z" stroke="#222222" stroke-width="1.5" stroke-linecap="round" stroke-linejoin="round"/>
</svg>
