<svg width="47" height="22" viewBox="0 0 47 22" fill="none" xmlns="http://www.w3.org/2000/svg">
<path d="M12.6834 15.4643H5.02266V13.2647H15.3186V18.6888H7.65794V19.8004H15.4489V22H5.01117V16.4813H12.6719L12.6834 15.4643Z" fill="#6F6F6E"/>
<path d="M37.4577 0.10257V11.8101H34.7994V0.10257H37.4577Z" fill="#6F6F6E"/>
<path d="M32.1876 0.114327L26.6757 9.18078H32.1876V11.8179H22.6117L28.1236 2.69236H22.6117V0.086731H32.1876V0.110382V0.114327Z" fill="#BD0738"/>
<path d="M9.65729 4.01287C9.39402 3.43246 9.04086 2.89992 8.61161 2.43609C8.1496 1.98033 7.60579 1.62151 7.01052 1.37965C6.37071 1.11771 5.68817 0.983919 4.99959 0.985461C4.31809 0.979833 3.64232 1.11383 3.01164 1.37965C2.41975 1.61691 1.88137 1.97645 1.42971 2.43609C0.987189 2.88873 0.632328 3.42382 0.384024 4.01287C0.126112 4.63579 -0.00427877 5.30674 0.000989045 5.98383C-0.0128103 6.66174 0.117936 7.33451 0.384024 7.9548C0.624384 8.55814 0.981178 9.10504 1.43282 9.56239C1.88447 10.0197 2.42157 10.378 3.01164 10.6156C3.64232 10.8814 4.31809 11.0154 4.99959 11.0098C5.68817 11.0113 6.37071 10.8776 7.01052 10.6156C7.60944 10.3812 8.15461 10.0214 8.61161 9.55917C9.0502 9.10319 9.40453 8.5689 9.65729 7.9824C10.1477 6.70735 10.1477 5.28791 9.65729 4.01287ZM6.9071 8.00212C6.67306 8.28444 6.37775 8.50612 6.04505 8.64924C5.71234 8.79236 5.35158 8.85291 4.99193 8.82598C4.64309 8.8463 4.29446 8.78237 3.9739 8.63933C3.65333 8.49628 3.36972 8.27807 3.1457 8.00212C2.72031 7.42107 2.49023 6.71332 2.49023 5.98581C2.49023 5.2583 2.72031 4.55055 3.1457 3.96951C3.37589 3.70351 3.66148 3.49445 3.98117 3.35794C4.30085 3.22142 4.64637 3.16098 4.99193 3.18112C5.34941 3.1544 5.70808 3.21267 6.04018 3.35143C6.37227 3.49019 6.6689 3.70571 6.9071 3.98134C7.33477 4.56373 7.55882 5.27768 7.54294 6.0075C7.55855 6.72759 7.33417 7.43148 6.9071 8.00212Z" fill="#6F6F6E"/>
<path d="M12.6829 11.8218H15.3067V3.79602C15.3083 3.52138 15.4141 3.25826 15.6016 3.06282C15.7894 2.86901 16.0443 2.75983 16.3102 2.75929H19.9874V0.165497H15.1343C14.476 0.177939 13.8491 0.457451 13.39 0.943214C12.9309 1.42898 12.6767 2.08167 12.6829 2.75929V11.8218Z" fill="#BD0738"/>
<path d="M41.1885 0.55979C41.8082 0.172123 42.5244 -0.0210421 43.2492 0.00397558C44.2021 -0.0369883 45.1424 0.2395 45.9304 0.792363C46.2835 1.06036 46.5659 1.41496 46.7519 1.82391C46.9379 2.23286 47.0215 2.68317 46.9953 3.13387C47.0133 3.70557 46.8522 4.26809 46.5356 4.73825C46.2349 5.12074 45.8858 5.46013 45.4976 5.74738L44.9958 6.14157C44.7406 6.33351 44.5492 6.602 44.4481 6.91025C44.3851 7.48874 44.3544 8.07048 44.3562 8.65259H42.441C42.4716 7.82872 42.441 6.54365 42.5712 6.2283C42.8251 5.7369 43.1824 5.30999 43.6169 4.9787L44.1378 4.56085C44.2961 4.43977 44.4344 4.29337 44.5477 4.12724C44.7318 3.87182 44.8311 3.56225 44.8311 3.24425C44.8328 2.88031 44.7214 2.52534 44.5132 2.23117C44.3732 2.06311 44.1951 1.93311 43.9947 1.85267C43.7943 1.77224 43.5777 1.74384 43.3641 1.76997C43.1382 1.74813 42.9108 1.78889 42.7053 1.888C42.4999 1.98712 42.324 2.141 42.1958 2.33366C41.9726 2.68543 41.8529 3.0961 41.8511 3.51624H39.7712C39.8223 2.12868 40.2947 1.1432 41.1885 0.55979ZM42.3682 9.6696H44.4941V11.7825H42.3682V9.6696Z" fill="#6F6F6E"/>
</svg>
