<svg width="18" height="18" viewBox="0 0 18 18" fill="none" xmlns="http://www.w3.org/2000/svg">
<path d="M9 1C4.58152 1 1 4.58151 1 9C1 13.4185 4.58152 17 9 17C13.4185 17 17 13.4185 17 9C17 4.58151 13.4185 1 9 1ZM15.0919 9C15.0919 10.1317 14.7833 11.1905 14.2453 12.0987C14.0947 12.3527 13.7437 12.395 13.5348 12.1861L10.3487 9L9.95378 8.60509V3.53985C9.95378 3.24461 10.2324 3.02599 10.5186 3.0994C13.1479 3.77401 15.0919 6.15954 15.0919 9ZM7.47984 14.9001C6.91828 14.7559 6.38835 14.5336 5.90181 14.2453C5.64782 14.0947 5.60496 13.7437 5.81393 13.5348L8.04568 11.303V14.4596C8.04568 14.7559 7.76651 14.9735 7.47931 14.8995L7.47984 14.9001ZM9.95432 11.303L12.1861 13.5348C12.395 13.7437 12.3527 14.0947 12.0982 14.2453C11.6117 14.5336 11.0817 14.7554 10.5202 14.9001C10.2335 14.974 9.95378 14.7559 9.95378 14.4601V11.3035L9.95432 11.303ZM8.04622 3.53932V8.60456L7.65131 8.99946L4.46524 12.1855C4.25627 12.3945 3.90529 12.3522 3.75472 12.0982C3.21728 11.1905 2.90864 10.1311 2.90864 8.99946C2.90864 6.15901 4.85211 3.77348 7.48145 3.09886C7.76758 3.02545 8.04622 3.24354 8.04622 3.53932Z" fill="#95D1E4"/>
</svg>
