<svg width="16" height="17" viewBox="0 0 16 17" fill="none" xmlns="http://www.w3.org/2000/svg">
<path fill-rule="evenodd" clip-rule="evenodd" d="M6.79223 7.75012H10.3246V15.9863H6.79223V7.75012ZM11.9595 4.74805H15.4919V15.9863H11.9595V4.74837V4.74805ZM5.15762 15.9863H1.62524V10.7525H5.15762V15.9863Z" fill="#E89494"/>
<path d="M5.5 1.71191L6 2.21191L5.5 3.71191L4 5.21191L2 6.71191H3.5L6 5.71191L7.5 3.71191H8.5L8 1.21191L5.5 1.71191Z" fill="#E89494"/>
<path fill-rule="evenodd" clip-rule="evenodd" d="M6.26572 2.66767C6.34699 2.49933 6.29715 2.2963 6.14731 2.18612L5.94159 2.03513L7.89302 1.40227L8.04191 3.57744L7.91937 3.48749C7.83747 3.42742 7.73556 3.40269 7.63588 3.41875C7.5362 3.43481 7.44667 3.49039 7.38731 3.57295C5.77048 5.82747 4.17651 6.55157 2.33112 6.56442C4.8181 5.42109 6.01429 3.18777 6.26572 2.66767ZM4.45048 6.97497C5.66255 6.54064 6.75334 5.6752 7.77556 4.33463L8.25461 4.6864C8.37429 4.77442 8.53366 4.78406 8.66286 4.71145C8.79239 4.63885 8.86858 4.49718 8.85842 4.3478L8.61969 0.858716C8.61175 0.740496 8.55016 0.632878 8.45334 0.566379C8.35651 0.499881 8.23461 0.482212 8.12318 0.518513L4.99271 1.53366C4.85588 1.57799 4.75556 1.69653 4.73271 1.83981C4.70985 1.98341 4.7689 2.12733 4.88509 2.21278L5.43239 2.61466C4.91651 3.5466 3.34223 5.88337 0.319691 6.38002C0.136517 6.4099 0.00127883 6.56956 8.99367e-06 6.75781C-0.00126085 6.94574 0.132072 7.10733 0.314929 7.13977C1.03683 7.26827 1.68191 7.33284 2.27461 7.33284C3.07683 7.33284 3.78255 7.2143 4.45048 6.97497ZM4.90382 15.7287H1.87937V11.0089H4.90382V15.7287ZM5.28477 10.2379H1.49842C1.28794 10.2379 1.11747 10.4104 1.11747 10.6234V16.1145C1.11747 16.3275 1.28794 16.5 1.49842 16.5H5.28509C5.49556 16.5 5.66604 16.3275 5.66604 16.1145V10.6234C5.66604 10.4104 5.49524 10.2379 5.28477 10.2379ZM10.0708 15.7287H7.04635V8.00682H10.0708V15.7287ZM10.4517 7.23583C10.6622 7.23583 10.8327 7.40834 10.8327 7.62132V16.1145C10.8327 16.3275 10.6622 16.5 10.4517 16.5H6.6654C6.45493 16.5 6.28445 16.3275 6.28445 16.1145V7.62165C6.28445 7.40866 6.45493 7.23615 6.6654 7.23615L10.4517 7.23583ZM15.2381 15.7287H12.2137V5.00507H15.2381V15.7287ZM15.619 4.23376H11.8327C11.6222 4.23376 11.4517 4.40627 11.4517 4.61925V16.1145C11.4517 16.3275 11.6222 16.5 11.8327 16.5H15.619C15.8295 16.5 16 16.3275 16 16.1145V4.61958C16 4.40659 15.8295 4.23376 15.619 4.23376Z" fill="#E89494"/>
</svg>
