<svg width="34" height="34" viewBox="0 0 34 34" fill="none" xmlns="http://www.w3.org/2000/svg">
<rect x="1.25" y="1.25" width="31.5" height="31.5" rx="15.75" fill="#F6F7FE"/>
<rect x="1.25" y="1.25" width="31.5" height="31.5" rx="15.75" stroke="#C4D1FF" stroke-width="1.5"/>
<path d="M23.4166 22.3349V12.1769V12.1734C23.4166 10.9762 23.4166 10.3772 23.1837 9.9195C22.9786 9.51649 22.651 9.1888 22.2485 8.98345C21.791 8.75 21.1925 8.75 19.9946 8.75H14.0057C12.8078 8.75 12.2084 8.75 11.7509 8.98345C11.3484 9.1888 11.0214 9.51649 10.8164 9.9195C10.5833 10.3777 10.5833 10.9774 10.5833 12.1769V22.3349C10.5833 23.7925 10.5833 24.5214 10.8015 24.9674C11.2061 25.794 12.0929 26.2693 13.0041 26.1479C13.4958 26.0824 14.1013 25.6781 15.3124 24.8696L15.3148 24.868C15.7952 24.5473 16.0356 24.3868 16.2868 24.2979C16.748 24.1347 17.251 24.1347 17.7122 24.2979C17.9638 24.3869 18.2048 24.5478 18.6868 24.8696C19.8979 25.6781 20.5043 26.0824 20.996 26.1479C21.9072 26.2693 22.7937 25.794 23.1983 24.9674C23.4166 24.5214 23.4166 23.7926 23.4166 22.3353V22.3349Z" fill="white" stroke="#444444" stroke-width="1.5" stroke-linecap="round" stroke-linejoin="round"/>
</svg>
