<svg width="18" height="18" viewBox="0 0 18 18" fill="none" xmlns="http://www.w3.org/2000/svg">
<path fill-rule="evenodd" clip-rule="evenodd" d="M13.5551 8.18272C13.5551 5.21694 11.1504 2.8125 8.18387 2.8125C5.21733 2.8125 2.81268 5.21694 2.81268 8.18272C2.81268 11.1485 5.21733 13.5529 8.18387 13.5529C11.1504 13.5529 13.5551 11.1485 13.5551 8.18272ZM8.18387 1.3125C11.9786 1.3125 15.0551 4.38829 15.0551 8.18272C15.0551 9.80943 14.4896 11.3041 13.5446 12.4809L13.6121 12.5484L16.4678 15.4045C16.7607 15.6974 16.7607 16.1723 16.4678 16.4652C16.175 16.7581 15.7001 16.7581 15.4072 16.4652L12.5515 13.6091L12.484 13.5416C11.3067 14.4872 9.81137 15.0529 8.18387 15.0529C4.38913 15.0529 1.31268 11.9771 1.31268 8.18272C1.31268 4.38829 4.38913 1.3125 8.18387 1.3125Z" fill="white"/>
</svg>
