<svg width="18" height="18" viewBox="0 0 18 18" fill="none" xmlns="http://www.w3.org/2000/svg">
<path d="M13.0322 2.08656C11.8219 1.37781 10.44 1 9 1C5.28468 1 2.25125 3.5075 1.31156 6.77625C1.10625 7.49 1 8.23688 1 9C1 13.4216 4.57812 17 9 17C9.42125 17 9.8372 16.9678 10.2456 16.9041C13.3609 16.4203 15.8453 14.1406 16.6859 11.2328C16.8928 10.5163 17 9.76625 17 9C17 6.06188 15.4225 3.48625 13.0322 2.08656Z" fill="#67A7C6"/>
<path d="M11.9639 4.73675C11.8141 4.36218 11.8556 3.93645 12.075 3.59806L13.0509 2.09321C11.8422 1.38586 10.4621 1.00879 9.02399 1.00879C5.31357 1.00879 2.28412 3.51135 1.34567 6.77367L5.4771 12.5279C5.91684 13.1402 6.77915 13.2684 7.37804 12.798C7.73788 12.5155 7.92514 12.0754 7.87926 11.6204L7.60806 8.93223C7.55844 8.4407 7.94043 8.01217 8.43665 8.00686L9.96776 7.99065C11.5522 7.97412 12.6162 6.36635 12.0325 4.90829L11.9639 4.73675Z" fill="#8DE080"/>
<path d="M16.0909 11.031C15.262 10.7715 14.3735 10.901 13.6529 11.3856L12.9591 11.8522C12.5805 12.1067 12.2516 12.1463 11.8446 12.1463C10.3054 12.1463 9.20841 13.653 9.68965 15.1189L10.268 16.8817C13.3792 16.3989 15.8603 14.1237 16.6998 11.2216L16.0909 11.031Z" fill="#8DE080"/>
<path d="M9.37537 10.2591C9.37537 9.82997 9.63034 9.44324 10.0251 9.27388L11.9501 8.44863C12.3777 8.26525 12.8714 8.3769 13.1785 8.7259L13.4918 9.08207C14.0295 9.69337 13.7165 10.6577 12.9207 10.8358L10.6824 11.3367C10.0435 11.4795 9.37537 11.022 9.37537 10.2588V10.2591Z" fill="#8DE080"/>
<path d="M16.0909 11.031C15.262 10.7715 14.3735 10.901 13.6528 11.3856L12.9591 11.8522C12.5805 12.1067 12.2516 12.1463 11.8446 12.1463C10.3054 12.1463 9.20838 13.653 9.68962 15.1189L10.2679 16.8817C13.3791 16.3989 15.8602 14.1237 16.6998 11.2216L16.0909 11.031Z" fill="#8DE080"/>
<path d="M9.37543 10.2591C9.37543 9.82997 9.6304 9.44324 10.0252 9.27388L11.9502 8.44863C12.3777 8.26525 12.8714 8.3769 13.1785 8.7259L13.4919 9.08207C14.0296 9.69337 13.7166 10.6577 12.9208 10.8358L10.6825 11.3367C10.0436 11.4795 9.37543 11.022 9.37543 10.2588V10.2591Z" fill="#8DE080"/>
</svg>
