<svg width="18" height="18" viewBox="0 0 18 18" fill="none" xmlns="http://www.w3.org/2000/svg">
<path d="M2.54367 5.1243H2.53575C2.51154 5.12223 2.48324 5.11072 2.45541 5.08042C2.42369 5.04588 2.39801 4.99096 2.39801 4.92152C2.39801 2.4364 4.15771 0.5 6.4193 0.5C8.67519 0.5 10.5667 2.58439 10.4345 5.17304L10.4345 5.17314C10.4271 5.31749 10.3288 5.36266 10.2894 5.36266L10.282 5.36243C10.2557 5.36043 10.2237 5.34733 10.1936 5.31078C10.1625 5.27293 10.1396 5.21538 10.1431 5.14588C10.2599 2.86255 8.52011 0.905898 6.4193 0.905898C4.32344 0.905898 2.68967 2.7476 2.68967 4.92117C2.68967 4.99071 2.66396 5.04558 2.63225 5.08007C2.60118 5.11389 2.56949 5.1243 2.54367 5.1243ZM12.7854 8.68287L13.044 9.12265L13.4785 8.85522C13.677 8.73305 13.9009 8.66282 14.1372 8.6573H14.1676C14.9209 8.6573 15.6053 9.33877 15.6053 10.2663V13.0785C15.6053 15.5568 13.7617 17.5 11.5837 17.5H6.41639C4.23976 17.5 2.39726 15.56 2.39478 13.0842V13.0764C2.39719 11.5919 3.36676 10.3945 4.58757 10.1222L4.97874 10.035V9.63422V4.92293C4.97874 3.99537 5.66311 3.31391 6.41639 3.31391C7.16968 3.31391 7.85405 3.99537 7.85405 4.92293V6.87164V7.60059L8.5341 7.3381C8.68098 7.2814 8.83743 7.2507 9.00004 7.2507C9.48652 7.2507 9.93558 7.52706 10.2018 7.97974L10.4604 8.41952L10.8949 8.15209C11.1018 8.02474 11.3363 7.95383 11.5837 7.95383C12.0702 7.95383 12.5192 8.23019 12.7854 8.68287ZM2.68676 13.0799L2.68676 13.0805C2.68785 15.2532 4.32092 17.0938 6.41639 17.0938H11.5837C13.5167 17.0938 15.0566 15.5272 15.2843 13.5785H15.3146V13.0785V10.2663C15.3146 9.64315 14.8401 9.0632 14.1686 9.0632C13.4975 9.0632 13.0226 9.64211 13.0226 10.2663C13.0226 10.336 12.9969 10.3909 12.9653 10.4253C12.9343 10.459 12.9027 10.4695 12.8766 10.4695C12.8507 10.4695 12.8191 10.459 12.7881 10.4252C12.7563 10.3907 12.7306 10.3358 12.7306 10.2663V9.5632C12.7306 8.94002 12.2561 8.36008 11.5847 8.36008C10.9132 8.36008 10.4387 8.94002 10.4387 9.5632V10.2663C10.4387 10.336 10.4129 10.3909 10.3813 10.4253C10.3504 10.459 10.3187 10.4695 10.2927 10.4695C10.2668 10.4695 10.2351 10.459 10.2041 10.4252C10.1724 10.3907 10.1467 10.3358 10.1467 10.2663V8.86008C10.1467 8.2369 9.67214 7.65695 9.00068 7.65695C8.32923 7.65695 7.85469 8.2369 7.85469 8.86008V10.2663C7.85469 10.336 7.82896 10.3909 7.79734 10.4253C7.76639 10.459 7.73476 10.4695 7.7087 10.4695C7.68282 10.4695 7.65117 10.459 7.62012 10.4252C7.58839 10.3907 7.56271 10.3358 7.56271 10.2663V4.92328C7.56271 4.3001 7.08817 3.72016 6.41672 3.72016C5.74526 3.72016 5.27073 4.3001 5.27073 4.92328V13.0785C5.27073 13.1482 5.24499 13.203 5.21338 13.2374C5.18242 13.2711 5.1508 13.2816 5.12473 13.2816C5.09885 13.2816 5.0672 13.2712 5.03615 13.2374C5.00443 13.2028 4.97874 13.1479 4.97874 13.0785V11.0911V10.3609L4.29798 10.6249C3.34171 10.9957 2.68754 11.9707 2.68676 13.0799Z" fill="#FFF5F5" stroke="#FFF5F5"/>
</svg>
