<svg width="18" height="18" viewBox="0 0 18 18" fill="none" xmlns="http://www.w3.org/2000/svg">
<path fill-rule="evenodd" clip-rule="evenodd" d="M9.70726 1.29191C9.31672 0.901396 8.68353 0.901396 8.29299 1.29191L6.53622 3.04854H4.04944C3.49716 3.04854 3.04944 3.49626 3.04944 4.04854V6.53505L1.29181 8.29255C0.901266 8.68306 0.901267 9.3162 1.29181 9.70671L3.04944 11.4642V13.9489C3.04944 14.5012 3.49716 14.9489 4.04945 14.9489H6.53438L8.29299 16.7073C8.68353 17.0979 9.31672 17.0979 9.70726 16.7073L11.4659 14.9489H13.9507C14.503 14.9489 14.9507 14.5012 14.9507 13.9489V11.4643L16.7085 9.70671C17.099 9.3162 17.099 8.68306 16.7084 8.29255L14.9507 6.53493V4.04854C14.9507 3.49626 14.503 3.04854 13.9507 3.04854H11.464L9.70726 1.29191Z" fill="#A6AABA"/>
<path d="M12.6457 6.08508C12.3936 5.83124 11.9833 5.83052 11.7303 6.08347L7.93285 9.88064L6.06993 8.02306C5.81821 7.77206 5.41076 7.77234 5.15939 8.02369C4.90775 8.27532 4.90775 8.68331 5.15939 8.93494L7.22577 11.0012C7.61629 11.3916 8.24941 11.3916 8.63993 11.0012L12.6441 6.9973C12.8958 6.74559 12.8965 6.33768 12.6457 6.08508Z" fill="white"/>
</svg>
