<svg width="18" height="18" viewBox="0 0 18 18" fill="none" xmlns="http://www.w3.org/2000/svg">
<ellipse cx="8.70744" cy="4.98385" rx="2.76188" ry="2.70968" fill="#F0BA6A"/>
<path d="M15.0205 15.8224H2.78931L3.18386 14.274L4.36753 12.3386L6.3403 10.7902L9.10218 10.4031L12.2586 11.1773L15.0205 14.274V15.8224Z" fill="#F0BA6A"/>
<path d="M9 8.55C10.9969 8.55 12.6174 6.96151 12.6174 5C12.6174 3.03849 10.9969 1.45 9 1.45C7.00305 1.45 5.38257 3.03849 5.38257 5C5.38257 6.96151 7.00305 8.55 9 8.55ZM11.4982 5C11.4982 6.3522 10.3806 7.45 9 7.45C7.6194 7.45 6.50183 6.3522 6.50183 5C6.50183 3.6478 7.6194 2.55 9 2.55C10.3806 2.55 11.4982 3.6478 11.4982 5ZM14.606 16.55C15.4729 16.55 16.2089 15.8498 16.0205 15.0006C15.7298 13.6902 15.0615 12.4774 14.0801 11.5146C12.7326 10.1925 10.9052 9.45 9 9.45C7.09476 9.45 5.26737 10.1925 3.91987 11.5146C2.93849 12.4774 2.2702 13.6902 1.97949 15.0006C1.79109 15.8498 2.52705 16.55 3.39403 16.55L14.606 16.55ZM13.2894 12.2931C14.1177 13.1057 14.6816 14.1292 14.9269 15.2349C14.9334 15.2642 14.9301 15.2788 14.9277 15.2867C14.9245 15.2973 14.9158 15.3169 14.8922 15.3416C14.8412 15.3952 14.7399 15.45 14.606 15.45L3.39404 15.45C3.26007 15.45 3.1588 15.3952 3.10776 15.3416C3.08419 15.3169 3.07546 15.2973 3.07226 15.2867C3.06987 15.2788 3.06656 15.2642 3.07307 15.2349C3.31836 14.1292 3.88229 13.1057 4.71064 12.293C5.84809 11.1771 7.391 10.55 9 10.55C10.609 10.55 12.1519 11.1771 13.2894 12.2931Z" fill="#F0BA6A" stroke="#F0BA6A" stroke-width="0.1"/>
</svg>
