<svg width="18" height="18" viewBox="0 0 18 18" fill="none" xmlns="http://www.w3.org/2000/svg">
<path fill-rule="evenodd" clip-rule="evenodd" d="M8.99276 2.1998C7.38073 2.1998 6.04417 3.54475 6.04417 5.241C6.04417 6.93725 7.38073 8.2822 8.99276 8.2822C10.6048 8.2822 11.9413 6.93725 11.9413 5.241C11.9413 3.54475 10.6048 2.1998 8.99276 2.1998ZM4.64417 5.241C4.64417 2.80484 6.57466 0.799805 8.99276 0.799805C11.4109 0.799805 13.3413 2.80484 13.3413 5.241C13.3413 7.67717 11.4109 9.6822 8.99276 9.6822C6.57466 9.6822 4.64417 7.67717 4.64417 5.241Z" fill="#98A0E9"/>
<path fill-rule="evenodd" clip-rule="evenodd" d="M5.14858 5.0792C3.53655 5.0792 2.19999 6.42415 2.19999 8.1204C2.19999 9.81665 3.53655 11.1616 5.14858 11.1616C6.7606 11.1616 8.09717 9.81665 8.09717 8.1204C8.09717 6.42415 6.7606 5.0792 5.14858 5.0792ZM0.799988 8.1204C0.799988 5.68424 2.73048 3.6792 5.14858 3.6792C7.56668 3.6792 9.49717 5.68424 9.49717 8.1204C9.49717 10.5566 7.56667 12.5616 5.14858 12.5616C2.73048 12.5616 0.799988 10.5566 0.799988 8.1204Z" fill="#98A0E9"/>
<path fill-rule="evenodd" clip-rule="evenodd" d="M6.63198 9.71738C5.01995 9.71738 3.68339 11.0623 3.68339 12.7586C3.68339 14.4548 5.01995 15.7998 6.63198 15.7998C8.244 15.7998 9.58057 14.4548 9.58057 12.7586C9.58057 11.0623 8.244 9.71738 6.63198 9.71738ZM2.28339 12.7586C2.28339 10.3224 4.21388 8.31738 6.63198 8.31738C9.05007 8.31738 10.9806 10.3224 10.9806 12.7586C10.9806 15.1947 9.05007 17.1998 6.63198 17.1998C4.21388 17.1998 2.28339 15.1947 2.28339 12.7586Z" fill="#98A0E9"/>
<path fill-rule="evenodd" clip-rule="evenodd" d="M11.392 9.70469C9.77996 9.70469 8.4434 11.0496 8.4434 12.7459C8.4434 14.4421 9.77996 15.7871 11.392 15.7871C13.004 15.7871 14.3406 14.4421 14.3406 12.7459C14.3406 11.0496 13.004 9.70469 11.392 9.70469ZM7.0434 12.7459C7.0434 10.3097 8.97389 8.30469 11.392 8.30469C13.8101 8.30469 15.7406 10.3097 15.7406 12.7459C15.7406 15.182 13.8101 17.1871 11.392 17.1871C8.97389 17.1871 7.0434 15.182 7.0434 12.7459Z" fill="#98A0E9"/>
<path fill-rule="evenodd" clip-rule="evenodd" d="M12.8515 5.05918C11.2394 5.05918 9.90287 6.40413 9.90287 8.10038C9.90287 9.79663 11.2394 11.1416 12.8515 11.1416C14.4635 11.1416 15.8 9.79663 15.8 8.10038C15.8 6.40413 14.4635 5.05918 12.8515 5.05918ZM8.50287 8.10038C8.50287 5.66422 10.4334 3.65918 12.8515 3.65918C15.2696 3.65918 17.2001 5.66422 17.2001 8.10038C17.2001 10.5365 15.2696 12.5416 12.8515 12.5416C10.4334 12.5416 8.50287 10.5365 8.50287 8.10038Z" fill="#98A0E9"/>
</svg>
