<?xml version="1.0" encoding="utf-8"?>
<!-- Generator: Adobe Illustrator 28.2.0, SVG Export Plug-In . SVG Version: 6.00 Build 0)  -->
<svg version="1.1" id="Layer_1" xmlns="http://www.w3.org/2000/svg" xmlns:xlink="http://www.w3.org/1999/xlink" x="0px" y="0px"
	 viewBox="0 0 18 18" style="enable-background:new 0 0 18 18;" xml:space="preserve">
<style type="text/css">
	.st0{fill-rule:evenodd;clip-rule:evenodd;fill:#444444;}
</style>
<path class="st0" d="M13.6,8.2c0-3-2.4-5.4-5.4-5.4c-3,0-5.4,2.4-5.4,5.4s2.4,5.4,5.4,5.4C11.2,13.6,13.6,11.1,13.6,8.2z M8.2,1.3
	c3.8,0,6.9,3.1,6.9,6.9c0,1.6-0.6,3.1-1.5,4.3l0.1,0.1l2.9,2.9c0.3,0.3,0.3,0.8,0,1.1c-0.3,0.3-0.8,0.3-1.1,0l-2.9-2.9l-0.1-0.1
	c-1.2,0.9-2.7,1.5-4.3,1.5c-3.8,0-6.9-3.1-6.9-6.9C1.3,4.4,4.4,1.3,8.2,1.3z"/>
</svg>
