<svg width="34" height="34" viewBox="0 0 34 34" fill="none" xmlns="http://www.w3.org/2000/svg">
<g clip-path="url(#clip0_1797_41918)">
<rect width="34" height="34" rx="17" fill="white"/>
<ellipse cx="20.4421" cy="8.48722" rx="3.84221" ry="4.8355" transform="rotate(49.6699 20.4421 8.48722)" fill="#62A76A"/>
<ellipse cx="3.84221" cy="4.8355" rx="3.84221" ry="4.8355" transform="matrix(-0.64719 0.762329 0.762329 0.64719 12.1727 2.60693)" fill="#62A76A"/>
<path fill-rule="evenodd" clip-rule="evenodd" d="M11.984 7.48866C12.1033 7.37928 12.2887 7.38734 12.3981 7.50667C12.9211 8.07723 14.3784 9.4278 15.9769 10.2271C16.1217 10.2995 16.1804 10.4755 16.108 10.6203C16.0356 10.7651 15.8596 10.8238 15.7148 10.7514C14.0305 9.90928 12.5177 8.50465 11.966 7.90279C11.8566 7.78346 11.8646 7.59805 11.984 7.48866Z" fill="#4A8D52"/>
<path fill-rule="evenodd" clip-rule="evenodd" d="M22.1991 7.19521C22.0798 7.08582 21.8944 7.09388 21.785 7.21321C21.262 7.78377 19.8047 9.13434 18.2062 9.93361C18.0614 10.006 18.0027 10.1821 18.0751 10.3269C18.1475 10.4716 18.3236 10.5303 18.4683 10.4579C20.1526 9.61582 21.6654 8.21119 22.2171 7.60933C22.3265 7.49 22.3185 7.30459 22.1991 7.19521Z" fill="#4A8D52"/>
<path fill-rule="evenodd" clip-rule="evenodd" d="M16.8725 10.0592C17.1909 10.0003 17.4967 10.2105 17.5557 10.5289C17.809 11.8969 18.1578 15.457 17.5569 18.9422C17.5019 19.2612 17.1987 19.4753 16.8797 19.4203C16.5606 19.3653 16.3466 19.062 16.4016 18.743C16.9731 15.4281 16.638 12.0123 16.4028 10.7424C16.3439 10.424 16.5542 10.1182 16.8725 10.0592Z" fill="#63A668"/>
<path d="M35.3895 34.3977C35.2847 44.4676 27.0653 50.4337 17.0038 50.3291C6.94227 50.2244 -1.15128 44.0887 -1.04656 34.0188C-0.94183 23.9489 7.29955 15.8705 17.3611 15.9751C27.4226 16.0797 35.4942 24.3278 35.3895 34.3977Z" fill="#FDD554"/>
<path d="M19.7322 24.8926C20.2344 24.8926 20.643 24.4684 20.643 23.947V22.8026C20.643 22.2811 20.2344 21.8569 19.7322 21.8569C19.2301 21.8569 18.8215 22.2811 18.8215 22.8026V23.947C18.8215 24.4684 19.2301 24.8926 19.7322 24.8926Z" fill="#744D2B"/>
<path d="M14.268 24.8926C14.7702 24.8926 15.1787 24.4684 15.1787 23.947V22.8026C15.1787 22.2811 14.7702 21.8569 14.268 21.8569C13.7658 21.8569 13.3573 22.2811 13.3573 22.8026V23.947C13.3573 24.4684 13.7658 24.8926 14.268 24.8926Z" fill="#744D2B"/>
<path fill-rule="evenodd" clip-rule="evenodd" d="M15.027 27.3214C15.027 26.9023 15.3668 26.5625 15.7859 26.5625H18.2145C18.6336 26.5625 18.9734 26.9023 18.9734 27.3214C18.9734 27.7406 18.6336 28.0804 18.2145 28.0804H15.7859C15.3668 28.0804 15.027 27.7406 15.027 27.3214Z" fill="#744D2B"/>
</g>
<rect x="0.75" y="0.75" width="32.5" height="32.5" rx="16.25" stroke="url(#paint0_linear_1797_41918)" stroke-width="1.5"/>
<rect x="0.75" y="0.75" width="32.5" height="32.5" rx="16.25" stroke="#C4D1FF" stroke-opacity="0.5" stroke-width="1.5"/>
<rect x="0.75" y="0.75" width="32.5" height="32.5" rx="16.25" stroke="#8CAA8F" stroke-width="1.5"/>
<defs>
<linearGradient id="paint0_linear_1797_41918" x1="32.7114" y1="18.3782" x2="0.186049" y2="29.955" gradientUnits="userSpaceOnUse">
<stop stop-color="#7A96AC"/>
<stop offset="0.18" stop-color="#EAEFF3"/>
<stop offset="0.315" stop-color="#C2D4E1"/>
<stop offset="0.491919" stop-color="white"/>
<stop offset="0.615" stop-color="#D4DEE5"/>
<stop offset="0.785" stop-color="#ABBDC8"/>
<stop offset="0.955" stop-color="#BCCAD7"/>
</linearGradient>
<clipPath id="clip0_1797_41918">
<rect width="34" height="34" rx="17" fill="white"/>
</clipPath>
</defs>
</svg>
