<svg width="34" height="34" viewBox="0 0 34 34" fill="none" xmlns="http://www.w3.org/2000/svg">
<g clip-path="url(#clip0_1797_42178)">
<rect width="34" height="34" rx="17" fill="#EB5151"/>
<path d="M31.5334 23.4193C31.5619 30.9057 25.4053 35.6908 16.9809 35.8214C7.68909 35.1854 2.52872 30.2677 2.42847 23.4193C2.43585 15.2752 9.47675 5.98877 16.9809 5.98877C24.4851 5.98877 31.5481 15.5809 31.5334 23.4183V23.4193Z" fill="#F7F3DD"/>
<path d="M26.7809 20.6675C26.7809 25.1067 22.4787 28.7051 17.172 28.7051C14.6229 28.7051 12.1797 27.8579 10.3773 26.3507C8.57491 24.8435 7.56299 22.7994 7.56299 20.6675C7.56299 18.5356 8.57491 16.4914 10.3773 14.9843C12.1797 13.4771 14.624 12.6299 17.172 12.6299C22.4787 12.6299 26.7809 16.2283 26.7809 20.6675Z" fill="#FDD554"/>
<path d="M18.8801 20.5097C18.8801 21.2434 18.1512 22.0797 17.2522 22.0797C16.3531 22.0797 15.6243 21.2434 15.6243 20.5097C15.6243 19.776 16.3531 19.9208 17.2522 19.9208C18.1512 19.9208 18.8801 19.776 18.8801 20.5097Z" fill="#744D2B"/>
<path d="M14.581 18.7448C14.5617 18.9812 14.3553 19.1566 14.1189 19.1374C13.8825 19.1181 13.707 18.9117 13.7263 18.6753C13.7456 18.4389 13.952 18.2634 14.1884 18.2827C14.4248 18.3019 14.6002 18.5084 14.581 18.7448Z" fill="#744D2A" stroke="#744D2A" stroke-width="0.5"/>
<path d="M20.5505 18.798C20.5312 19.0344 20.3248 19.2099 20.0884 19.1906C19.852 19.1713 19.6765 18.9649 19.6958 18.7285C19.715 18.4921 19.9215 18.3167 20.1579 18.3359C20.3943 18.3552 20.5697 18.5616 20.5505 18.798Z" fill="#744D2A" stroke="#744D2A" stroke-width="0.5"/>
<path d="M13.1796 20.7849C13.1283 21.4203 12.571 21.8931 11.9366 21.8417C11.3023 21.7904 10.8284 21.2341 10.8798 20.5988C10.9311 19.9634 11.4884 19.4906 12.1228 19.5419C12.7582 19.5932 13.231 20.1495 13.1796 20.7849Z" fill="#F3943E"/>
<path d="M23.4762 20.8469C23.4249 21.4823 22.8676 21.9551 22.2333 21.9037C21.5979 21.8524 21.1251 21.2962 21.1764 20.6608C21.2278 20.0254 21.7851 19.5526 22.4194 19.6039C23.0548 19.6553 23.5276 20.2115 23.4762 20.8469Z" fill="#F3943E"/>
<path opacity="0.6" d="M9.54443 11.5779C9.08526 11.8793 8.67246 12.2345 8.30604 12.6436C8.01101 12.9733 8.52383 13.4301 8.82001 13.0994C9.14772 12.7346 9.50891 12.4238 9.91851 12.1541C10.2885 11.9115 9.91446 11.3354 9.54443 11.5779Z" fill="white"/>
<path opacity="0.6" d="M11.7431 10.332C11.4046 10.3978 11.1013 10.537 10.829 10.7494C10.4826 11.0195 10.8543 11.5987 11.2031 11.3256C11.4321 11.1465 11.6652 11.0416 11.9504 10.9869C12.3858 10.9026 12.1719 10.2494 11.7431 10.332Z" fill="white"/>
<path d="M23.851 6.63407C23.8491 6.52791 23.7866 6.42739 23.6931 6.37632C23.607 6.33035 23.5083 6.33351 23.4211 6.38744C22.1124 7.18588 21.2555 8.54441 20.8741 10.4241C20.8538 10.5267 20.8851 10.6232 20.9602 10.6902C20.9983 10.7239 21.0439 10.7471 21.0922 10.7582C21.1464 10.7712 21.203 10.7695 21.2546 10.7517C21.3429 10.7216 21.4052 10.6488 21.4251 10.5513C21.7807 8.79841 22.5293 7.59481 23.7151 6.87086C23.802 6.8181 23.8507 6.73163 23.8483 6.63445L23.851 6.63407Z" fill="#744D2A"/>
<path d="M26.2548 4.86244C25.597 4.49205 24.9804 4.04962 24.4124 3.55194C24.1591 3.32975 23.8396 3.74423 24.0909 3.96446C24.5095 4.32969 24.9532 4.6591 25.4189 4.95816C25.0503 5.00835 24.6802 5.0398 24.3082 5.05368C24.287 5.00091 24.263 4.94853 24.2429 4.89617C24.2328 4.86803 24.2216 4.8395 24.2119 4.8102C24.2096 4.80551 24.2089 4.80004 24.2069 4.79418C24.2015 4.77933 24.1965 4.76331 24.1911 4.74846C24.1714 4.68712 24.1517 4.62578 24.1352 4.56289C24.1036 4.45194 23.9942 4.35905 23.872 4.38944C23.7622 4.41754 23.6646 4.53309 23.6985 4.65263C23.7378 4.79093 23.7834 4.92612 23.8333 5.06016C23.3907 5.05935 22.9479 5.03238 22.5059 4.97967C22.2668 4.9511 22.1511 5.21294 22.2659 5.39755C22.8433 6.32299 23.7969 6.92859 24.7879 7.33452C25.0992 7.4617 25.2996 6.97967 24.9875 6.85093C24.2572 6.55248 23.5636 6.14138 23.0416 5.55372C23.381 5.57836 23.7209 5.58622 24.0601 5.5808C24.1469 5.75595 24.2399 5.928 24.3459 6.09268C24.4091 6.19087 24.5307 6.25531 24.6441 6.19327C24.7399 6.14093 24.8122 5.99992 24.7446 5.89509C24.6756 5.78713 24.6096 5.67762 24.5488 5.56461C25.0995 5.5342 25.6481 5.46789 26.1898 5.36017C26.4592 5.30651 26.4764 4.98539 26.2544 4.8597L26.2548 4.86244Z" fill="#744D2A"/>
<path d="M18.1246 27.9198L18.4101 28.1223L18.5514 27.9229L18.413 27.7215L18.1246 27.9198ZM18.1246 27.9198C18.4101 28.1223 18.41 28.1223 18.4099 28.1224L18.4097 28.1227L18.409 28.1237L18.4067 28.1269L18.3983 28.1387L18.3664 28.1824C18.3388 28.2202 18.2983 28.2748 18.2463 28.3431C18.1423 28.4798 17.9918 28.6722 17.8044 28.8967C17.4309 29.3445 16.906 29.926 16.3075 30.4499C15.7139 30.9694 15.023 31.4544 14.3165 31.6791C13.5935 31.909 12.8271 31.8709 12.1682 31.2974C11.4965 30.713 11.4443 29.9715 11.5777 29.3697C11.7049 28.7959 12.0065 28.3074 12.1296 28.108C12.1324 28.1036 12.135 28.0993 12.1376 28.0951L12.4355 28.2788L12.1376 28.0951C12.1704 28.0419 12.1766 27.9525 12.1239 27.8147C12.1002 27.7527 12.0702 27.697 12.0453 27.6561C12.0332 27.6361 12.0229 27.6208 12.0163 27.6112L12.0153 27.6099C11.3598 26.8796 11.1484 25.9408 11.4153 25.1564C11.6911 24.3459 12.4512 23.7765 13.5616 23.7765C14.1557 23.7765 14.7569 24.0603 15.2975 24.4304C15.8455 24.8055 16.3741 25.2992 16.831 25.7827C17.2894 26.2677 17.684 26.7514 17.9636 27.113C18.1036 27.2941 18.2153 27.4452 18.2922 27.5515C18.3307 27.6047 18.3606 27.6467 18.381 27.6756L18.4044 27.709L18.4106 27.718L18.4123 27.7204L18.4128 27.7212L18.4129 27.7214C18.413 27.7215 18.413 27.7215 18.1246 27.9198Z" fill="#E04B4B" stroke="#FFAEAE" stroke-width="0.7"/>
<path d="M12.6276 30.2243L12.6276 30.2244C12.9994 30.548 13.4137 30.622 13.8693 30.5287C14.3414 30.432 14.8524 30.1544 15.3594 29.7743C16.3711 29.0157 17.2628 27.929 17.6479 27.4286L17.9312 27.0605L18.2069 27.4344C18.2722 27.5228 18.3233 27.5941 18.3583 27.6437C18.3759 27.6684 18.3894 27.6878 18.3986 27.7011L18.4093 27.7165L18.4122 27.7207L18.413 27.7219L18.4132 27.7222L18.4133 27.7224L18.4134 27.7224L18.4134 27.7224L18.1848 27.8786C18.1848 27.8786 18.1848 27.8787 18.1848 27.8787L18.4134 27.7224L18.5509 27.9236L18.4099 28.1224L18.1427 27.9329C18.4099 28.1224 18.4098 28.1225 18.4098 28.1226L18.4095 28.1229L18.4089 28.1238L18.4066 28.1271L18.3981 28.1388L18.3663 28.1826C18.3386 28.2204 18.2981 28.2749 18.2461 28.3433C18.1421 28.48 17.9916 28.6723 17.8043 28.8968C17.4307 29.3446 16.9059 29.9262 16.3074 30.45C15.7138 30.9696 15.0229 31.4546 14.3164 31.6792C13.5934 31.9091 12.827 31.871 12.1681 31.2977L12.6276 30.2243ZM12.6276 30.2243L12.621 30.2188M12.6276 30.2243L12.621 30.2188M12.621 30.2188C12.4168 30.0497 12.2798 29.812 12.2352 29.55L11.5439 29.5575M12.621 30.2188L11.5439 29.5575M11.5439 29.5575C11.4604 30.124 11.5682 30.776 12.168 31.2975L11.5439 29.5575Z" fill="#AB2525" stroke="#FFAEAE" stroke-width="0.7"/>
<path d="M16.9993 27.9198L16.7108 27.7215L16.5724 27.9229L16.7138 28.1223L16.9993 27.9198ZM16.9993 27.9198C16.7108 27.7215 16.7109 27.7215 16.7109 27.7214L16.7111 27.7212L16.7116 27.7204L16.7133 27.718L16.7195 27.709L16.7429 27.6756C16.7633 27.6467 16.7931 27.6047 16.8316 27.5515C16.9086 27.4452 17.0203 27.2941 17.1603 27.113C17.4399 26.7514 17.8345 26.2677 18.2929 25.7827C18.7498 25.2992 19.2783 24.8055 19.8263 24.4304C20.3669 24.0603 20.9681 23.7765 21.5622 23.7765C22.6723 23.7765 23.4326 24.3447 23.7085 25.1545C23.9755 25.9383 23.7639 26.8762 23.1085 27.6064M16.9993 27.9198C16.7138 28.1223 16.7138 28.1223 16.7139 28.1224L16.7141 28.1227L16.7148 28.1237L16.7171 28.1269L16.7256 28.1387L16.7574 28.1825C16.7851 28.2202 16.8255 28.2748 16.8776 28.3431C16.9816 28.4798 17.1321 28.6722 17.3194 28.8967C17.693 29.3444 18.2179 29.9259 18.8164 30.4495C19.41 30.9688 20.101 31.4535 20.8076 31.6777C21.5306 31.9071 22.2969 31.8681 22.9556 31.2939L23.1085 27.6064M23.1085 27.6064L23.1076 27.6077C23.101 27.6173 23.0907 27.6326 23.0785 27.6526C23.0537 27.6935 23.0237 27.7492 23 27.8112C22.9472 27.949 22.9535 28.0384 22.9862 28.0916C22.9888 28.0958 22.9915 28.1001 22.9942 28.1045C23.1173 28.3039 23.4189 28.7925 23.5461 29.3662C23.6796 29.968 23.6274 30.7095 22.9557 31.2939L23.1085 27.6064Z" fill="#E04B4B" stroke="#FFAEAE" stroke-width="0.7"/>
<path d="M17.8157 27.5863L17.6117 27.3019L17.501 27.3813L17.4731 27.5147L17.3596 28.0581L17.3005 28.3408L17.5668 28.4525L17.7021 28.1297C17.5668 28.4525 17.5669 28.4525 17.5669 28.4525L17.5671 28.4526L17.5675 28.4527L17.5686 28.4532L17.5724 28.4548L17.5857 28.4603C17.5972 28.4649 17.6137 28.4716 17.6348 28.4799C17.6769 28.4966 17.7374 28.52 17.8129 28.5477C17.9635 28.6031 18.1748 28.6761 18.4181 28.7469C18.8943 28.8856 19.5338 29.0282 20.0863 28.9881C20.4133 28.9644 20.6829 28.8325 20.8734 28.62C21.0597 28.4122 21.1507 28.1496 21.1692 27.8906C21.2056 27.3832 20.9685 26.8088 20.4689 26.5053C20.1718 26.3248 19.8183 26.3329 19.5186 26.3914C19.2103 26.4515 18.8943 26.5773 18.6193 26.7096C18.3416 26.8432 18.0909 26.9906 17.9106 27.1038C17.8201 27.1607 17.7464 27.2094 17.695 27.2443C17.6692 27.2617 17.649 27.2757 17.6349 27.2856L17.6184 27.2971L17.6139 27.3004L17.6125 27.3014L17.612 27.3017L17.6119 27.3018C17.6118 27.3018 17.6117 27.3019 17.8157 27.5863Z" fill="#AB2525" stroke="#FFAEAE" stroke-width="0.7"/>
<path d="M17.6416 27.5101L17.6115 27.3752L17.4974 27.2972L17.3 27.5863C17.4974 27.2972 17.4973 27.2972 17.4972 27.2971L17.4971 27.297L17.4966 27.2967L17.4952 27.2957L17.4904 27.2925L17.4732 27.281C17.4585 27.2712 17.4373 27.2573 17.4103 27.2399C17.3564 27.2051 17.2792 27.1565 17.1843 27.0998C16.9952 26.9868 16.7325 26.8398 16.4418 26.7067C16.1536 26.5748 15.824 26.4502 15.5037 26.3908C15.1923 26.333 14.8307 26.3259 14.5269 26.5013C14.0078 26.8009 13.7533 27.3755 13.7927 27.8921C13.8127 28.1552 13.9101 28.4194 14.1055 28.6266C14.3041 28.8371 14.5819 28.9651 14.9162 28.9882C15.4904 29.0278 16.1581 28.8869 16.6584 28.7487C16.9136 28.6782 17.1351 28.6056 17.2931 28.5505C17.3723 28.5229 17.4358 28.4996 17.4799 28.483C17.502 28.4747 17.5192 28.4681 17.5312 28.4635L17.5451 28.458L17.549 28.4565L17.5502 28.456L17.5506 28.4559L17.5507 28.4558C17.5508 28.4558 17.5508 28.4558 17.4215 28.1306L17.5508 28.4558L17.828 28.3455L17.7631 28.0544L17.6416 27.5101Z" fill="#AB2525" stroke="#FFAEAE" stroke-width="0.7"/>
<path d="M22.5027 30.2188L22.5026 30.2187L22.4961 30.2244C22.1243 30.548 21.71 30.622 21.2544 30.5287C20.7823 30.432 20.2713 30.1544 19.7643 29.7743C18.7526 29.0157 17.8609 27.929 17.4758 27.4286L17.1925 27.0605L16.9168 27.4344C16.8515 27.5228 16.8004 27.5941 16.7653 27.6437C16.7478 27.6684 16.7343 27.6878 16.725 27.7011L16.7144 27.7165L16.7115 27.7207L16.7107 27.7219L16.7104 27.7222L16.7104 27.7223L16.7103 27.7224L16.7103 27.7224L16.9389 27.8786C16.9389 27.8786 16.9389 27.8787 16.9389 27.8787L16.7103 27.7224L16.5728 27.9236L16.7138 28.1224L16.981 27.9329C16.7138 28.1224 16.7139 28.1225 16.7139 28.1226L16.7141 28.1229L16.7148 28.1238L16.7171 28.1271L16.7256 28.1388L16.7574 28.1826C16.7851 28.2204 16.8255 28.2749 16.8776 28.3433C16.9816 28.48 17.1321 28.6723 17.3194 28.8968C17.693 29.3446 18.2178 29.9262 18.8163 30.45C19.4099 30.9696 20.1008 31.4546 20.8073 31.6792C21.5303 31.9091 22.2967 31.871 22.9557 31.2975C23.5554 30.776 23.6633 30.124 23.5797 29.5575L22.8884 29.55C22.8439 29.812 22.7069 30.0497 22.5027 30.2188Z" fill="#AB2525" stroke="#FFAEAE" stroke-width="0.7"/>
<path d="M18.6231 28.695V28.6942V26.7976C18.6231 26.2111 18.1484 25.7364 17.562 25.7364C16.9755 25.7364 16.5008 26.2111 16.5008 26.7976V28.6942C16.5008 29.2809 16.9767 29.7553 17.562 29.7553C18.148 29.7553 18.6218 29.2804 18.6231 28.695Z" fill="#E16969" stroke="#FFAEAE" stroke-width="0.7"/>
<path d="M18.6231 28.6947H18.6231V28.6939V28.0396H18.2731H17.9231C17.9231 28.2394 17.7618 28.4007 17.562 28.4007C17.3621 28.4007 17.2008 28.2394 17.2008 28.0396H16.8508H16.5008V28.6939C16.5008 29.2806 16.9767 29.755 17.562 29.755C18.148 29.755 18.6218 29.2801 18.6231 28.6947Z" fill="#C83131" stroke="#FFAEAE" stroke-width="0.7"/>
<path d="M16.7019 26.5691L16.7005 26.5844V26.5998V28.0229V28.0527L16.7056 28.0821C16.7529 28.3575 17.0128 28.5435 17.2886 28.4985L17.2887 28.4985L17.2913 28.4981C17.5023 28.462 17.6711 28.2971 17.7075 28.0812L17.7124 28.0522V28.0229V26.5998V26.5844L17.7111 26.5691C17.6882 26.3083 17.4675 26.1124 17.2088 26.1175C16.9464 26.1095 16.7247 26.3093 16.7019 26.5691Z" fill="#FFCECE" stroke="#FFAEAE" stroke-width="0.7"/>
<path d="M18.1246 27.9198C18.1246 27.9198 15.5177 24.1265 13.5616 24.1265C11.6056 24.1265 11.1023 26.086 12.2879 27.3895C12.2879 27.3895 12.6731 27.8936 12.4355 28.2788C12.1979 28.6641 11.3094 30.0864 12.3979 31.0334C14.5733 32.9265 18.1246 27.9198 18.1246 27.9198Z" fill="#E04B4B"/>
<path d="M12.3978 30.4884C12.1287 30.2656 11.9487 29.9528 11.8902 29.6086C11.8194 30.0883 11.9094 30.6089 12.3978 31.0335C14.5731 32.9267 18.1244 27.9199 18.1244 27.9199C18.1244 27.9199 18.0528 27.8151 17.9252 27.6421C17.146 28.6546 14.2647 32.1133 12.3978 30.4884Z" fill="#AB2525"/>
<path d="M16.9993 27.9198C16.9993 27.9198 19.6062 24.1265 21.5622 24.1265C23.5183 24.1265 24.0215 26.0825 22.836 27.386C22.836 27.386 22.4507 27.8901 22.6883 28.2753C22.926 28.6606 23.8144 30.0829 22.7259 31.0299C20.5506 32.9265 16.9993 27.9198 16.9993 27.9198Z" fill="#E04B4B"/>
<path d="M17.8157 27.5863C17.8157 27.5863 19.5394 26.3501 20.2872 26.8044C21.035 27.2587 21.0359 28.5683 20.0609 28.639C19.086 28.7098 17.7021 28.1297 17.7021 28.1297L17.8157 27.5863Z" fill="#AB2525"/>
<path d="M17.3 27.5863C17.3 27.5863 15.489 26.3501 14.7019 26.8044C13.9147 27.2587 13.9156 28.5683 14.9404 28.639C15.9651 28.7098 17.4215 28.1306 17.4215 28.1306L17.3 27.5863Z" fill="#AB2525"/>
<path d="M22.7259 30.4884C22.995 30.2656 23.175 29.9528 23.2335 29.6086C23.3042 30.0883 23.2143 30.6089 22.7259 31.0335C20.5506 32.9267 16.9993 27.9199 16.9993 27.9199C16.9993 27.9199 17.0709 27.8151 17.1985 27.6421C17.9777 28.6546 20.859 32.1133 22.7259 30.4884Z" fill="#AB2525"/>
<path d="M17.562 26.0864C17.1688 26.0864 16.8508 26.4044 16.8508 26.7976V28.6942C16.8508 29.0873 17.1697 29.4053 17.562 29.4053C17.9542 29.4053 18.2722 29.0873 18.2731 28.6942V26.7976C18.2731 26.4044 17.9551 26.0864 17.562 26.0864Z" fill="#E57171"/>
<path d="M17.562 28.7507C17.1688 28.7507 16.8508 28.4327 16.8508 28.0396V28.6939C16.8508 29.087 17.1697 29.405 17.562 29.405C17.9542 29.405 18.2722 29.087 18.2731 28.6939V28.0396C18.2731 28.4327 17.9551 28.7507 17.562 28.7507Z" fill="#C45151"/>
<path d="M17.2069 26.4678C17.1274 26.4609 17.0575 26.5203 17.0505 26.5998V28.0229C17.0654 28.1094 17.1466 28.1671 17.2323 28.1531C17.2986 28.1417 17.3511 28.0902 17.3624 28.0229V26.5998C17.3554 26.5203 17.2864 26.4617 17.2069 26.4678Z" fill="#FFCECE"/>
</g>
<rect x="0.75" y="0.75" width="32.5" height="32.5" rx="16.25" stroke="#F98B8B" stroke-width="1.5"/>
<defs>
<clipPath id="clip0_1797_42178">
<rect width="34" height="34" rx="17" fill="white"/>
</clipPath>
</defs>
</svg>
