<svg width="34" height="34" viewBox="0 0 34 34" fill="none" xmlns="http://www.w3.org/2000/svg">
<g clip-path="url(#clip0_1797_41952)">
<rect width="34" height="34" rx="17" fill="white"/>
<path d="M22.2589 8.21275L21.7583 6.42459C21.6526 6.04877 21.1799 5.92982 20.9107 6.21169L20.1468 7.01132L17.4264 2.66436C17.2289 2.34951 16.7712 2.34951 16.5737 2.66436L13.8533 7.01132L13.0894 6.21169C12.8202 5.92982 12.3475 6.04877 12.2418 6.42459L11.7412 8.21275C10.7789 11.6521 13.3009 15.1145 16.8639 15.1785H17.1352C20.6993 15.1145 23.2182 11.6521 22.2579 8.21275H22.2589Z" fill="#F05986"/>
<path d="M19.7199 10.804L19.5065 10.0353C19.4327 9.77045 19.0996 9.68648 18.9102 9.88539L18.63 10.1793L17.2997 8.05825C17.161 7.83735 16.8389 7.83735 16.7003 8.05825L15.371 10.1793L15.0888 9.88339C14.8993 9.68548 14.5673 9.76845 14.4925 10.0323L14.2771 10.801C13.7785 12.5811 15.0848 14.3733 16.9297 14.4063H17.0693C18.9142 14.3753 20.2175 12.5831 19.7189 10.803L19.7199 10.804Z" fill="#FFF170"/>
<path d="M35.3895 34.3977C35.2847 44.4676 27.0653 50.4337 17.0038 50.3291C6.94227 50.2244 -1.15128 44.0887 -1.04656 34.0188C-0.94183 23.9489 7.29955 15.8705 17.3611 15.9751C27.4226 16.0797 35.4942 24.3278 35.3895 34.3977Z" fill="#FDD554"/>
<path d="M19.7322 24.8926C20.2344 24.8926 20.643 24.4684 20.643 23.947V22.8026C20.643 22.2811 20.2344 21.8569 19.7322 21.8569C19.2301 21.8569 18.8215 22.2811 18.8215 22.8026V23.947C18.8215 24.4684 19.2301 24.8926 19.7322 24.8926Z" fill="#744D2B"/>
<path d="M14.268 24.8926C14.7702 24.8926 15.1787 24.4684 15.1787 23.947V22.8026C15.1787 22.2811 14.7702 21.8569 14.268 21.8569C13.7658 21.8569 13.3573 22.2811 13.3573 22.8026V23.947C13.3573 24.4684 13.7658 24.8926 14.268 24.8926Z" fill="#744D2B"/>
<path fill-rule="evenodd" clip-rule="evenodd" d="M14.8366 26.2897C15.1548 26.0169 15.6339 26.0537 15.9067 26.372L17.1519 27.8247L18.3971 26.372C18.6699 26.0537 19.149 26.0169 19.4672 26.2897C19.7855 26.5624 19.8223 27.0415 19.5496 27.3598L17.7281 29.4848C17.5839 29.653 17.3735 29.7498 17.1519 29.7498C16.9304 29.7498 16.7199 29.653 16.5757 29.4848L14.7543 27.3598C14.4815 27.0415 14.5183 26.5624 14.8366 26.2897Z" fill="#744D2B"/>
</g>
<rect x="0.75" y="0.75" width="32.5" height="32.5" rx="16.25" stroke="#E56492" stroke-width="1.5"/>
<defs>
<clipPath id="clip0_1797_41952">
<rect width="34" height="34" rx="17" fill="white"/>
</clipPath>
</defs>
</svg>
