<svg width="50" height="34" viewBox="0 0 50 34" fill="none" xmlns="http://www.w3.org/2000/svg">
<g clip-path="url(#clip0_2076_39074)">
<rect width="34" height="34" rx="17" fill="white"/>
<path d="M22.2588 8.21324L21.7582 6.42508C21.6525 6.04926 21.1798 5.93031 20.9105 6.21218L20.1467 7.0118L17.4262 2.66485C17.2288 2.35 16.7711 2.35 16.5736 2.66485L13.8532 7.0118L13.0893 6.21218C12.8201 5.93031 12.3474 6.04926 12.2417 6.42508L11.7411 8.21324C10.7788 11.6526 13.3007 15.115 16.8638 15.179H17.1351C20.6991 15.115 23.2181 11.6526 22.2578 8.21324H22.2588Z" fill="#F05986"/>
<path d="M19.7197 10.8049L19.5063 10.0363C19.4325 9.77142 19.0995 9.68746 18.91 9.88637L18.6298 10.1802L17.2995 8.05923C17.1609 7.83833 16.8388 7.83833 16.7001 8.05923L15.3708 10.1802L15.0886 9.88437C14.8992 9.68646 14.5671 9.76942 14.4923 10.0333L14.2769 10.8019C13.7783 12.5821 15.0846 14.3743 16.9295 14.4072H17.0691C18.914 14.3763 20.2174 12.5841 19.7187 10.8039L19.7197 10.8049Z" fill="#FFF170"/>
<path d="M35.3894 34.3982C35.2847 44.4681 27.0653 50.4342 17.0037 50.3296C6.94221 50.2249 -1.15134 44.0892 -1.04662 34.0193C-0.941891 23.9494 7.29949 15.871 17.361 15.9756C27.4225 16.0802 35.4941 24.3283 35.3894 34.3982Z" fill="#FDD554"/>
<path d="M19.7323 24.8931C20.2345 24.8931 20.643 24.4689 20.643 23.9475V22.803C20.643 22.2816 20.2345 21.8574 19.7323 21.8574C19.2301 21.8574 18.8216 22.2816 18.8216 22.803V23.9475C18.8216 24.4689 19.2301 24.8931 19.7323 24.8931Z" fill="#744D2B"/>
<path d="M14.268 24.8931C14.7702 24.8931 15.1787 24.4689 15.1787 23.9475V22.803C15.1787 22.2816 14.7702 21.8574 14.268 21.8574C13.7658 21.8574 13.3573 22.2816 13.3573 22.803V23.9475C13.3573 24.4689 13.7658 24.8931 14.268 24.8931Z" fill="#744D2B"/>
<path fill-rule="evenodd" clip-rule="evenodd" d="M14.8366 26.2901C15.1549 26.0174 15.634 26.0542 15.9068 26.3725L17.152 27.8252L18.3972 26.3725C18.6699 26.0542 19.1491 26.0174 19.4673 26.2901C19.7855 26.5629 19.8224 27.042 19.5496 27.3603L17.7282 29.4853C17.584 29.6535 17.3735 29.7503 17.152 29.7503C16.9304 29.7503 16.7199 29.6535 16.5757 29.4853L14.7543 27.3603C14.4815 27.042 14.5184 26.5629 14.8366 26.2901Z" fill="#744D2B"/>
</g>
<rect x="0.75" y="0.75" width="32.5" height="32.5" rx="16.25" stroke="#E56492" stroke-width="1.5"/>
<g clip-path="url(#clip1_2076_39074)">
<rect x="8" width="34" height="34" rx="17" fill="white"/>
<path d="M43.3894 34.3982C43.2847 44.4681 35.0653 50.4342 25.0037 50.3296C14.9422 50.2249 6.84866 44.0892 6.95338 34.0193C7.05811 23.9494 15.2995 15.871 25.361 15.9756C35.4225 16.0802 43.4941 24.3283 43.3894 34.3982Z" fill="#FDD554"/>
<path d="M27.7322 24.8931C28.2344 24.8931 28.643 24.4689 28.643 23.9475V22.803C28.643 22.2816 28.2344 21.8574 27.7322 21.8574C27.2301 21.8574 26.8215 22.2816 26.8215 22.803V23.9475C26.8215 24.4689 27.2301 24.8931 27.7322 24.8931Z" fill="#744D2B"/>
<path d="M22.268 24.8931C22.7701 24.8931 23.1787 24.4689 23.1787 23.9475V22.803C23.1787 22.2816 22.7701 21.8574 22.268 21.8574C21.7658 21.8574 21.3572 22.2816 21.3572 22.803V23.9475C21.3572 24.4689 21.7658 24.8931 22.268 24.8931Z" fill="#744D2B"/>
<path fill-rule="evenodd" clip-rule="evenodd" d="M28.9687 27.0079C29.226 27.3387 29.1664 27.8155 28.8356 28.0729C27.2935 29.2723 25.6696 29.5394 24.2902 29.3651C22.9385 29.1944 21.807 28.5992 21.1834 28.0379C20.8718 27.7575 20.8466 27.2777 21.127 26.9661C21.4073 26.6546 21.8872 26.6293 22.1988 26.9097C22.587 27.2591 23.4287 27.7264 24.4804 27.8593C25.5042 27.9886 26.7136 27.8004 27.9037 26.8747C28.2346 26.6174 28.7114 26.677 28.9687 27.0079Z" fill="#744D2B"/>
<path d="M29.6773 8.84778L22.6394 15.0581C22.2977 15.3529 21.6801 15.0595 21.8703 14.6925L24.5481 9.68409H20.8704C20.2472 9.68409 19.9136 9.12053 20.3228 8.75938L27.3607 2.54936C27.7025 2.25458 28.3202 2.5479 28.13 2.91463L25.4519 7.92307H29.1295C29.7526 7.92307 30.0864 8.48663 29.6771 8.84778H29.6773Z" fill="#FF881B"/>
</g>
<rect x="8.75" y="0.75" width="32.5" height="32.5" rx="16.25" stroke="url(#paint0_linear_2076_39074)" stroke-width="1.5"/>
<rect x="8.75" y="0.75" width="32.5" height="32.5" rx="16.25" stroke="#C4D1FF" stroke-opacity="0.5" stroke-width="1.5"/>
<rect x="8.75" y="0.75" width="32.5" height="32.5" rx="16.25" stroke="#F3953F" stroke-width="1.5"/>
<g clip-path="url(#clip2_2076_39074)">
<rect x="16" width="34" height="34" rx="17" fill="white"/>
<ellipse cx="36.4421" cy="8.48722" rx="3.84221" ry="4.8355" transform="rotate(49.6699 36.4421 8.48722)" fill="#62A76A"/>
<ellipse cx="3.84221" cy="4.8355" rx="3.84221" ry="4.8355" transform="matrix(-0.64719 0.762329 0.762329 0.64719 28.1727 2.60742)" fill="#62A76A"/>
<path fill-rule="evenodd" clip-rule="evenodd" d="M27.984 7.48915C28.1033 7.37977 28.2887 7.38783 28.3981 7.50716C28.9211 8.07772 30.3784 9.42829 31.9769 10.2276C32.1217 10.3 32.1804 10.476 32.108 10.6208C32.0356 10.7656 31.8596 10.8243 31.7148 10.7519C30.0305 9.90976 28.5177 8.50514 27.966 7.90328C27.8566 7.78395 27.8646 7.59854 27.984 7.48915Z" fill="#4A8D52"/>
<path fill-rule="evenodd" clip-rule="evenodd" d="M38.199 7.19521C38.0797 7.08582 37.8943 7.09388 37.7849 7.21321C37.2619 7.78377 35.8046 9.13434 34.2061 9.93361C34.0613 10.006 34.0026 10.1821 34.075 10.3269C34.1474 10.4716 34.3234 10.5303 34.4682 10.4579C36.1525 9.61582 37.6653 8.21119 38.217 7.60933C38.3264 7.49 38.3183 7.30459 38.199 7.19521Z" fill="#4A8D52"/>
<path fill-rule="evenodd" clip-rule="evenodd" d="M32.8724 10.0597C33.1907 10.0008 33.4966 10.211 33.5555 10.5294C33.8089 11.8974 34.1577 15.4575 33.5568 18.9427C33.5018 19.2617 33.1986 19.4758 32.8795 19.4208C32.5605 19.3658 32.3464 19.0625 32.4014 18.7435C32.973 15.4286 32.6379 12.0128 32.4027 10.7429C32.3438 10.4245 32.5541 10.1187 32.8724 10.0597Z" fill="#63A668"/>
<path d="M51.3894 34.3982C51.2847 44.4681 43.0653 50.4342 33.0037 50.3296C22.9422 50.2249 14.8487 44.0892 14.9534 34.0193C15.0581 23.9494 23.2995 15.871 33.361 15.9756C43.4225 16.0802 51.4941 24.3283 51.3894 34.3982Z" fill="#FDD554"/>
<path d="M35.7323 24.8931C36.2345 24.8931 36.643 24.4689 36.643 23.9475V22.803C36.643 22.2816 36.2345 21.8574 35.7323 21.8574C35.2301 21.8574 34.8216 22.2816 34.8216 22.803V23.9475C34.8216 24.4689 35.2301 24.8931 35.7323 24.8931Z" fill="#744D2B"/>
<path d="M30.268 24.8931C30.7702 24.8931 31.1787 24.4689 31.1787 23.9475V22.803C31.1787 22.2816 30.7702 21.8574 30.268 21.8574C29.7658 21.8574 29.3573 22.2816 29.3573 22.803V23.9475C29.3573 24.4689 29.7658 24.8931 30.268 24.8931Z" fill="#744D2B"/>
<path fill-rule="evenodd" clip-rule="evenodd" d="M31.0269 27.3214C31.0269 26.9023 31.3667 26.5625 31.7858 26.5625H34.2144C34.6336 26.5625 34.9733 26.9023 34.9733 27.3214C34.9733 27.7406 34.6336 28.0804 34.2144 28.0804H31.7858C31.3667 28.0804 31.0269 27.7406 31.0269 27.3214Z" fill="#744D2B"/>
</g>
<rect x="16.75" y="0.75" width="32.5" height="32.5" rx="16.25" stroke="url(#paint1_linear_2076_39074)" stroke-width="1.5"/>
<rect x="16.75" y="0.75" width="32.5" height="32.5" rx="16.25" stroke="#C4D1FF" stroke-opacity="0.5" stroke-width="1.5"/>
<rect x="16.75" y="0.75" width="32.5" height="32.5" rx="16.25" stroke="#8CAA8F" stroke-width="1.5"/>
<defs>
<linearGradient id="paint0_linear_2076_39074" x1="40.7114" y1="18.3782" x2="8.18605" y2="29.955" gradientUnits="userSpaceOnUse">
<stop stop-color="#7A96AC"/>
<stop offset="0.18" stop-color="#EAEFF3"/>
<stop offset="0.315" stop-color="#C2D4E1"/>
<stop offset="0.491919" stop-color="white"/>
<stop offset="0.615" stop-color="#D4DEE5"/>
<stop offset="0.785" stop-color="#ABBDC8"/>
<stop offset="0.955" stop-color="#BCCAD7"/>
</linearGradient>
<linearGradient id="paint1_linear_2076_39074" x1="48.7114" y1="18.3782" x2="16.186" y2="29.955" gradientUnits="userSpaceOnUse">
<stop stop-color="#7A96AC"/>
<stop offset="0.18" stop-color="#EAEFF3"/>
<stop offset="0.315" stop-color="#C2D4E1"/>
<stop offset="0.491919" stop-color="white"/>
<stop offset="0.615" stop-color="#D4DEE5"/>
<stop offset="0.785" stop-color="#ABBDC8"/>
<stop offset="0.955" stop-color="#BCCAD7"/>
</linearGradient>
<clipPath id="clip0_2076_39074">
<rect width="34" height="34" rx="17" fill="white"/>
</clipPath>
<clipPath id="clip1_2076_39074">
<rect x="8" width="34" height="34" rx="17" fill="white"/>
</clipPath>
<clipPath id="clip2_2076_39074">
<rect x="16" width="34" height="34" rx="17" fill="white"/>
</clipPath>
</defs>
</svg>
