<svg width="34" height="34" viewBox="0 0 34 34" fill="none" xmlns="http://www.w3.org/2000/svg">
<g clip-path="url(#clip0_1797_41935)">
<rect width="34" height="34" rx="17" fill="white"/>
<path d="M35.3895 34.3977C35.2847 44.4676 27.0653 50.4337 17.0038 50.3291C6.94227 50.2244 -1.15128 44.0887 -1.04656 34.0188C-0.94183 23.9489 7.29955 15.8705 17.3611 15.9751C27.4226 16.0797 35.4942 24.3278 35.3895 34.3977Z" fill="#FDD554"/>
<path d="M19.7324 24.8926C20.2345 24.8926 20.6431 24.4684 20.6431 23.947V22.8026C20.6431 22.2811 20.2345 21.8569 19.7324 21.8569C19.2302 21.8569 18.8217 22.2811 18.8217 22.8026V23.947C18.8217 24.4684 19.2302 24.8926 19.7324 24.8926Z" fill="#744D2B"/>
<path d="M14.2681 24.8926C14.7703 24.8926 15.1789 24.4684 15.1789 23.947V22.8026C15.1789 22.2811 14.7703 21.8569 14.2681 21.8569C13.766 21.8569 13.3574 22.2811 13.3574 22.8026V23.947C13.3574 24.4684 13.766 24.8926 14.2681 24.8926Z" fill="#744D2B"/>
<path fill-rule="evenodd" clip-rule="evenodd" d="M20.9688 27.0069C21.2261 27.3377 21.1665 27.8146 20.8357 28.0719C19.2936 29.2713 17.6697 29.5384 16.2903 29.3642C14.9386 29.1934 13.8071 28.5982 13.1835 28.0369C12.8719 27.7565 12.8467 27.2767 13.1271 26.9651C13.4075 26.6536 13.8873 26.6283 14.1989 26.9087C14.5871 27.2581 15.4288 27.7254 16.4805 27.8583C17.5043 27.9876 18.7137 27.7994 19.9038 26.8738C20.2347 26.6164 20.7115 26.676 20.9688 27.0069Z" fill="#744D2B"/>
<path d="M21.6774 8.84778L14.6395 15.0581C14.2978 15.3529 13.6803 15.0595 13.8704 14.6925L16.5482 9.68409H12.8705C12.2473 9.68409 11.9137 9.12053 12.323 8.75938L19.3609 2.54936C19.7026 2.25458 20.3203 2.5479 20.1302 2.91463L17.452 7.92307H21.1297C21.7527 7.92307 22.0865 8.48663 21.6772 8.84778H21.6774Z" fill="#FF881B"/>
</g>
<rect x="0.75" y="0.75" width="32.5" height="32.5" rx="16.25" stroke="url(#paint0_linear_1797_41935)" stroke-width="1.5"/>
<rect x="0.75" y="0.75" width="32.5" height="32.5" rx="16.25" stroke="#C4D1FF" stroke-opacity="0.5" stroke-width="1.5"/>
<rect x="0.75" y="0.75" width="32.5" height="32.5" rx="16.25" stroke="#F3953F" stroke-width="1.5"/>
<defs>
<linearGradient id="paint0_linear_1797_41935" x1="32.7114" y1="18.3782" x2="0.186049" y2="29.955" gradientUnits="userSpaceOnUse">
<stop stop-color="#7A96AC"/>
<stop offset="0.18" stop-color="#EAEFF3"/>
<stop offset="0.315" stop-color="#C2D4E1"/>
<stop offset="0.491919" stop-color="white"/>
<stop offset="0.615" stop-color="#D4DEE5"/>
<stop offset="0.785" stop-color="#ABBDC8"/>
<stop offset="0.955" stop-color="#BCCAD7"/>
</linearGradient>
<clipPath id="clip0_1797_41935">
<rect width="34" height="34" rx="17" fill="white"/>
</clipPath>
</defs>
</svg>
