<svg width="34" height="34" viewBox="0 0 34 34" fill="none" xmlns="http://www.w3.org/2000/svg">
<g clip-path="url(#clip0_1797_41969)">
<rect width="34" height="34" rx="17" fill="white"/>
<path d="M35.3895 34.3977C35.2847 44.4676 27.0653 50.4337 17.0038 50.3291C6.94227 50.2244 -1.15128 44.0887 -1.04656 34.0188C-0.94183 23.9489 7.29955 15.8705 17.3611 15.9751C27.4226 16.0797 35.4942 24.3278 35.3895 34.3977Z" fill="#FDD554"/>
<path d="M19.7322 24.8926C20.2344 24.8926 20.643 24.4684 20.643 23.947V22.8026C20.643 22.2811 20.2344 21.8569 19.7322 21.8569C19.2301 21.8569 18.8215 22.2811 18.8215 22.8026V23.947C18.8215 24.4684 19.2301 24.8926 19.7322 24.8926Z" fill="#744D2B"/>
<path d="M14.268 24.8926C14.7702 24.8926 15.1787 24.4684 15.1787 23.947V22.8026C15.1787 22.2811 14.7702 21.8569 14.268 21.8569C13.7658 21.8569 13.3573 22.2811 13.3573 22.8026V23.947C13.3573 24.4684 13.7658 24.8926 14.268 24.8926Z" fill="#744D2B"/>
<path d="M14.8751 27.3213H19.1251V27.382C19.1251 28.3544 18.3368 29.1427 17.3644 29.1427H16.6358C15.6634 29.1427 14.8751 28.3544 14.8751 27.382V27.3213Z" fill="white"/>
<path fill-rule="evenodd" clip-rule="evenodd" d="M13.6609 27.3212C13.6609 26.6506 14.2045 26.1069 14.8752 26.1069H19.1252C19.7958 26.1069 20.3395 26.6506 20.3395 27.3212V27.3819C20.3395 29.025 19.0075 30.3569 17.3645 30.3569H16.6359C14.9928 30.3569 13.6609 29.025 13.6609 27.3819V27.3212ZM15.3057 28.5355C15.0375 28.2265 14.8752 27.8232 14.8752 27.3819V27.3212H19.1252V27.3819C19.1252 27.8232 18.9629 28.2265 18.6947 28.5355C18.3719 28.9074 17.8956 29.1426 17.3645 29.1426H16.6359C16.1047 29.1426 15.6285 28.9074 15.3057 28.5355Z" fill="#744D2B"/>
<mask id="mask0_1797_41969" style="mask-type:luminance" maskUnits="userSpaceOnUse" x="10" y="1" width="14" height="14">
<path d="M23.3453 6.37274L19.631 5.9902C19.4046 5.96629 19.2077 5.82425 19.1148 5.61469L17.603 2.19996C17.3793 1.69506 16.6635 1.69506 16.4399 2.19996L14.928 5.61469C14.8352 5.82284 14.6383 5.96629 14.4118 5.9902L10.6975 6.37274C10.1491 6.429 9.92825 7.10969 10.3389 7.47817L13.1194 9.97171C13.2895 10.1236 13.3641 10.3557 13.3163 10.5779L12.5329 14.2289C12.4176 14.7689 12.9956 15.1894 13.4738 14.9124L16.7043 13.0391C16.9012 12.9251 17.1445 12.9251 17.3428 13.0391L20.5733 14.9124C21.05 15.1894 21.6295 14.7689 21.5141 14.2289L20.7308 10.5779C20.683 10.3543 20.7575 10.1236 20.9277 9.97171L23.7081 7.47817C24.1188 7.10969 23.898 6.429 23.3495 6.37274H23.3453Z" fill="white"/>
</mask>
<g mask="url(#mask0_1797_41969)">
<path d="M23.3453 6.37274L19.631 5.9902C19.4046 5.96629 19.2077 5.82425 19.1148 5.61469L17.603 2.19996C17.3793 1.69506 16.6635 1.69506 16.4399 2.19996L14.928 5.61469C14.8352 5.82284 14.6383 5.96629 14.4118 5.9902L10.6975 6.37274C10.1491 6.429 9.92825 7.10969 10.3389 7.47817L13.1194 9.97171C13.2895 10.1236 13.3641 10.3557 13.3163 10.5779L12.5329 14.2289C12.4176 14.7689 12.9956 15.1894 13.4738 14.9124L16.7043 13.0391C16.9012 12.9251 17.1445 12.9251 17.3428 13.0391L20.5733 14.9124C21.05 15.1894 21.6295 14.7689 21.5142 14.2289L20.7308 10.5779C20.683 10.3543 20.7575 10.1236 20.9277 9.97171L23.7081 7.47817C24.1188 7.10969 23.898 6.429 23.3495 6.37274H23.3453Z" fill="#FFE52E"/>
<path d="M17.0208 0.887695V9.17138L19.264 5.95213L17.0208 0.887695Z" fill="#FFB10C"/>
<path d="M24.7742 6.52051L17.0208 9.17157L20.6507 10.2179L24.7742 6.52051Z" fill="#FFB10C"/>
<path d="M21.8123 15.6338L17.0208 9.17139V12.8547L21.8123 15.6338Z" fill="#FFB10C"/>
<path d="M12.2306 15.6338L17.0208 9.17139L13.3923 10.2177L12.2306 15.6338Z" fill="#FFB10C"/>
<path d="M9.26868 6.52033L17.0207 9.17139L14.7789 5.95215L9.26868 6.52033Z" fill="#FFB10C"/>
<path d="M24.7742 6.52033L19.264 5.95215L17.0208 9.17139L24.7742 6.52033Z" fill="#FFD526"/>
<path d="M9.26868 6.52051L13.3922 10.2179L17.0207 9.17157L9.26868 6.52051Z" fill="#FFD526"/>
</g>
<mask id="mask1_1797_41969" style="mask-type:luminance" maskUnits="userSpaceOnUse" x="10" y="1" width="14" height="14">
<path d="M23.3453 6.37274L19.631 5.9902C19.4046 5.96629 19.2077 5.82425 19.1148 5.61469L17.603 2.19996C17.3793 1.69506 16.6635 1.69506 16.4399 2.19996L14.928 5.61469C14.8352 5.82284 14.6383 5.96629 14.4118 5.9902L10.6975 6.37274C10.1491 6.429 9.92825 7.10969 10.3389 7.47817L13.1194 9.97171C13.2895 10.1236 13.3641 10.3557 13.3163 10.5779L12.5329 14.2289C12.4176 14.7689 12.9956 15.1894 13.4738 14.9124L16.7043 13.0391C16.9012 12.9251 17.1445 12.9251 17.3428 13.0391L20.5733 14.9124C21.05 15.1894 21.6295 14.7689 21.5141 14.2289L20.7308 10.5779C20.683 10.3543 20.7575 10.1236 20.9277 9.97171L23.7081 7.47817C24.1188 7.10969 23.898 6.429 23.3495 6.37274H23.3453Z" fill="white"/>
</mask>
<g mask="url(#mask1_1797_41969)">
<path d="M23.3453 6.37274L19.631 5.9902C19.4046 5.96629 19.2077 5.82425 19.1148 5.61469L17.603 2.19996C17.3793 1.69506 16.6635 1.69506 16.4399 2.19996L14.928 5.61469C14.8352 5.82284 14.6383 5.96629 14.4118 5.9902L10.6975 6.37274C10.1491 6.429 9.92825 7.10969 10.3389 7.47817L13.1194 9.97171C13.2895 10.1236 13.3641 10.3557 13.3163 10.5779L12.5329 14.2289C12.4176 14.7689 12.9956 15.1894 13.4738 14.9124L16.7043 13.0391C16.9012 12.9251 17.1445 12.9251 17.3428 13.0391L20.5733 14.9124C21.05 15.1894 21.6295 14.7689 21.5142 14.2289L20.7308 10.5779C20.683 10.3543 20.7575 10.1236 20.9277 9.97171L23.7081 7.47817C24.1188 7.10969 23.898 6.429 23.3495 6.37274H23.3453Z" fill="#99AEF4"/>
<path d="M17.0208 0.887695V9.17138L19.264 5.95213L17.0208 0.887695Z" fill="#3E4E85"/>
<path d="M24.7742 6.52051L17.0208 9.17157L20.6507 10.2179L24.7742 6.52051Z" fill="#3E4E85"/>
<path d="M21.8123 15.6338L17.0208 9.17139V12.8547L21.8123 15.6338Z" fill="#3E4E85"/>
<path d="M12.2306 15.6338L17.0208 9.17139L13.3923 10.2177L12.2306 15.6338Z" fill="#3E4E85"/>
<path d="M9.26868 6.52033L17.0207 9.17139L14.7789 5.95215L9.26868 6.52033Z" fill="#3E4E85"/>
<path d="M24.7742 6.52033L19.264 5.95215L17.0208 9.17139L24.7742 6.52033Z" fill="#4E67B9"/>
<path d="M9.26868 6.52051L13.3922 10.2179L17.0207 9.17157L9.26868 6.52051Z" fill="#4E67B9"/>
</g>
</g>
<rect x="0.75" y="0.75" width="32.5" height="32.5" rx="16.25" stroke="url(#paint0_linear_1797_41969)" stroke-width="1.5"/>
<rect x="0.75" y="0.75" width="32.5" height="32.5" rx="16.25" stroke="#475CA2" stroke-width="1.5"/>
<defs>
<linearGradient id="paint0_linear_1797_41969" x1="32.7114" y1="18.3782" x2="0.186049" y2="29.955" gradientUnits="userSpaceOnUse">
<stop stop-color="#7A96AC"/>
<stop offset="0.18" stop-color="#EAEFF3"/>
<stop offset="0.315" stop-color="#C2D4E1"/>
<stop offset="0.491919" stop-color="white"/>
<stop offset="0.615" stop-color="#D4DEE5"/>
<stop offset="0.785" stop-color="#ABBDC8"/>
<stop offset="0.955" stop-color="#BCCAD7"/>
</linearGradient>
<clipPath id="clip0_1797_41969">
<rect width="34" height="34" rx="17" fill="white"/>
</clipPath>
</defs>
</svg>
