<svg width="34" height="34" viewBox="0 0 34 34" fill="none" xmlns="http://www.w3.org/2000/svg">
<g clip-path="url(#clip0_1797_41986)">
<rect width="34" height="34" rx="17" fill="white"/>
<path d="M35.3892 34.3977C35.2845 44.4676 27.0651 50.4337 17.0036 50.3291C6.94203 50.2244 -1.15152 44.0887 -1.0468 34.0188C-0.942074 23.9489 7.2993 15.8705 17.3608 15.9751C27.4224 16.0797 35.4939 24.3278 35.3892 34.3977Z" fill="#FDD554"/>
<path fill-rule="evenodd" clip-rule="evenodd" d="M21.1284 22.0998C21.3296 22.3681 21.2753 22.7486 21.007 22.9498L20.4403 23.3748L21.007 23.7998C21.2753 24.001 21.3296 24.3816 21.1284 24.6498C20.9272 24.9181 20.5467 24.9724 20.2784 24.7713L19.0641 23.8605C18.9113 23.7459 18.8213 23.5659 18.8213 23.3748C18.8213 23.1837 18.9113 23.0038 19.0641 22.8891L20.2784 21.9784C20.5467 21.7772 20.9272 21.8316 21.1284 22.0998Z" fill="#744D2B"/>
<path d="M14.2681 24.8926C14.7703 24.8926 15.1789 24.4684 15.1789 23.947V22.8026C15.1789 22.2811 14.7703 21.8569 14.2681 21.8569C13.766 21.8569 13.3574 22.2811 13.3574 22.8026V23.947C13.3574 24.4684 13.766 24.8926 14.2681 24.8926Z" fill="#744D2B"/>
<path d="M17 29.75L15.6854 27.4732L18.3145 27.4732L17 29.75Z" fill="white"/>
<path fill-rule="evenodd" clip-rule="evenodd" d="M17 30.9639C16.5662 30.9639 16.1653 30.7324 15.9484 30.3567L14.6339 28.0799C14.417 27.7042 14.417 27.2414 14.6339 26.8657C14.8508 26.49 15.2517 26.2585 15.6855 26.2585L18.3145 26.2585C18.7483 26.2585 19.1492 26.49 19.3661 26.8657C19.583 27.2414 19.583 27.7042 19.3661 28.0799L18.0516 30.3567C17.8347 30.7324 17.4338 30.9639 17 30.9639ZM17 29.7496L18.3145 27.4728L15.6855 27.4728L17 29.7496Z" fill="#744D2B"/>
<path d="M25.9239 11.7136L24.4136 7.85124L21.2318 9.65339L17.036 4.91064L12.8402 9.65339L9.65843 7.85124L8.14819 11.7136L5.44727 10.7888L7.06198 15.1781H17.036H27.0101L28.6248 10.7888L25.9239 11.7136Z" fill="#DD3636"/>
<path d="M12.8402 9.65339L10.3498 12.4665L8.14819 11.7136L5.44727 10.7888L7.06198 15.1781H17.036V4.91064L12.8402 9.65339Z" fill="#FF8D8D"/>
<path d="M25.9242 11.7136L23.7226 12.4665L21.2322 9.65339L17.0364 4.91064V15.1781H27.0104L28.6251 10.7888L25.9242 11.7136Z" fill="#F35959"/>
<path d="M4.64701 10.6798C5.20363 10.6798 5.65486 10.2285 5.65486 9.67192C5.65486 9.1153 5.20363 8.66406 4.64701 8.66406C4.09039 8.66406 3.63916 9.1153 3.63916 9.67192C3.63916 10.2285 4.09039 10.6798 4.64701 10.6798Z" fill="#FF8D8D"/>
<path d="M9.22831 7.33065C9.78493 7.33065 10.2362 6.87941 10.2362 6.32279C10.2362 5.76617 9.78493 5.31494 9.22831 5.31494C8.67169 5.31494 8.22046 5.76617 8.22046 6.32279C8.22046 6.87941 8.67169 7.33065 9.22831 7.33065Z" fill="#DD3636"/>
<path d="M29.4256 10.6798C29.9822 10.6798 30.4334 10.2285 30.4334 9.67192C30.4334 9.1153 29.9822 8.66406 29.4256 8.66406C28.869 8.66406 28.4177 9.1153 28.4177 9.67192C28.4177 10.2285 28.869 10.6798 29.4256 10.6798Z" fill="#F35959"/>
<path d="M24.8438 7.33065C25.4004 7.33065 25.8516 6.87941 25.8516 6.32279C25.8516 5.76617 25.4004 5.31494 24.8438 5.31494C24.2872 5.31494 23.8359 5.76617 23.8359 6.32279C23.8359 6.87941 24.2872 7.33065 24.8438 7.33065Z" fill="#DD3636"/>
<path d="M15.7102 3.14717C15.7102 3.88001 16.3032 4.47305 17.0361 4.47305V1.82129C16.3032 1.82129 15.7102 2.41432 15.7102 3.14717Z" fill="#FF8D8D"/>
<path d="M17.0364 1.82129V4.47305C17.7692 4.47305 18.3623 3.88001 18.3623 3.14717C18.3623 2.41432 17.7692 1.82129 17.0364 1.82129Z" fill="#F35959"/>
<path d="M19.8166 9.36568L17.0674 11.2631L18.291 8.62656C18.7755 8.60628 19.2667 8.7843 19.6385 9.15611C19.7061 9.22371 19.7647 9.29357 19.8166 9.36568Z" fill="#FFEC44"/>
<path d="M19.8636 11.4524L17.0693 11.2631L19.8163 9.36572C20.2692 9.97865 20.2872 10.8169 19.8613 11.4524H19.8636Z" fill="#FFD600"/>
<path d="M19.8636 11.452C19.8005 11.5466 19.7239 11.6413 19.6382 11.7246L18.3763 12.9843L17.0693 11.2627L19.8636 11.452Z" fill="#FFB800"/>
<path d="M18.3765 12.9843L17.1912 14.1696C17.1236 14.2395 17.0132 14.2395 16.9433 14.1696L16.407 13.6333L17.0695 11.2627L18.3765 12.9843Z" fill="#FFA800"/>
<path d="M18.2911 8.62646L17.0675 11.263L16.3982 8.73012C16.6438 8.8135 16.8714 8.95772 17.0675 9.15377C17.4077 8.81125 17.8494 8.63548 18.2911 8.62646Z" fill="#FFF97D"/>
<path d="M17.0674 11.2629L14.6765 8.99825C15.1745 8.61066 15.8258 8.52278 16.3959 8.7301H16.4004L17.0696 11.2629H17.0674Z" fill="#FFEC44"/>
<path d="M17.0672 11.2627L13.971 10.6002C13.9259 10.0819 14.1017 9.55239 14.4961 9.15579C14.5524 9.09945 14.611 9.04762 14.6741 8.99805L17.065 11.2627H17.0672Z" fill="#FFD600"/>
<path d="M17.0674 11.2631L16.4049 13.6337L14.4985 11.725C14.1853 11.4141 14.0072 11.0107 13.9712 10.6006L17.0674 11.2631Z" fill="#FFB800"/>
</g>
<rect x="0.75" y="0.75" width="32.5" height="32.5" rx="16.25" stroke="#E34646" stroke-width="1.5"/>
<defs>
<clipPath id="clip0_1797_41986">
<rect width="34" height="34" rx="17" fill="white"/>
</clipPath>
</defs>
</svg>
