<svg width="12" height="12" viewBox="0 0 12 12" xmlns="http://www.w3.org/2000/svg">
    <path d="M11.143 7.8a.772.772 0 0 1-.772.771H4.2a.772.772 0 0 1-.771-.771V1.629c0-.426.345-.772.771-.772h6.171c.426 0 .772.346.772.772V7.8zM10.429 0H4.143C3.275 0 2.57.704 2.57 1.571v6.286c0 .868.704 1.572 1.572 1.572h6.286c.867 0 1.571-.704 1.571-1.572V1.571C12 .704 11.296 0 10.429 0zM8.643 10.429a.786.786 0 0 1-.786.785H1.571a.786.786 0 0 1-.785-.785V4.143c0-.434.352-.786.785-.786h.786v-.786h-.786C.704 2.571 0 3.275 0 4.143v6.286C0 11.296.704 12 1.571 12h6.286c.868 0 1.572-.704 1.572-1.571v-.786h-.786v.786z" fill="#363636" fill-rule="evenodd"/>
</svg>
