<svg width="37" height="37" viewBox="0 0 37 37" xmlns="http://www.w3.org/2000/svg">
    <path d="m15.031 21.969-8.094-4.625V3.469A3.469 3.469 0 0 1 10.408 0h16.187a3.469 3.469 0 0 1 3.468 3.469v13.875l-8.093 4.625-3.469-1.735-3.469 1.735zM2.45 8.406l2.176-1.16v8.678L0 13.21v-.724C0 10.78.941 9.21 2.449 8.406zM37 13.21l-4.625 2.713V7.245l2.176 1.16A4.625 4.625 0 0 1 37 12.488v.724zm0 2.683L23.835 23.61 37 30.923V15.89v.003zM18.5 23.29l18.364 10.203A4.625 4.625 0 0 1 32.375 37H4.625a4.625 4.625 0 0 1-4.489-3.506L18.5 23.291zM0 30.923l13.165-7.312L0 15.894v15.031-.002z" fill="#FFF" fill-rule="nonzero"/>
</svg>
